<?xml version="1.0" encoding="utf-8"?>
<!-- Generator: Adobe Illustrator 24.2.1, SVG Export Plug-In . SVG Version: 6.00 Build 0)  -->
<svg version="1.1" id="_x2018_лой_x5F_1" xmlns="http://www.w3.org/2000/svg" xmlns:xlink="http://www.w3.org/1999/xlink"
	 x="0px" y="0px" viewBox="0 0 3200 1735.76" style="enable-background:new 0 0 3200 1735.76;" xml:space="preserve">
<rect y="-92.88" style="fill:#FFFFFF;" width="3200" height="2000"/>
<g>
	<path style="fill:#E9F3FE;" d="M2851.06,1719.28c-0.87,2.42-152.73,5.31-153.82,7.72h-258.8l-15.74-0.06l-60-0.19h-678.24
		l-55.75-0.07l-6.92-0.01l-93-0.11l-42.41-0.06H964.19l-218.11-0.23H351.68c0,0-0.64-1.94-1.96-5.81l-0.21-0.49
		c0,0-0.22-0.48-0.22-0.71c-0.87-1.94-456.45-961.74,180.18-1136.15c243.67-66.77,347.15-100.14,600.84-423.93
		c214.71-274.05,969.9-127.56,1184.01,89.31c28.07,28.44,268.53,205.35,167.9,407.62c-63.54,127.7,124.01,159.4,218.11,166.84
		C3022.17,848.39,2853.24,1714.44,2851.06,1719.28z"/>
	<path style="fill:#DFEBFD;" d="M1041.7,311.77c34.22-55.04,129.7-5.94,129.7-5.94s37.15,125.47,56.37,133.96
		c19.22,8.5-10.82-113.47-10.82-113.47c39.82,7.88,124.17,84.93,124.17,84.93s-42.99,120.44-22.27,123.95
		c20.72,3.5,32.62-108.59,32.62-108.59c34.07,22.48,55.89,76.67,55.89,76.67c22.31,84.27-87.05,108.57-87.05,108.57
		s-14,42.06-2.41,98.61l0,0c0,0,3.21,10.76,4.64,27.85l-10.21-3.07c-0.01-2.99-0.14-5.91-0.39-8.76c0.01-0.02,0-0.04-0.01-0.05
		c0-0.04-0.01-0.08-0.01-0.12c-0.23-1.79-0.56-4.33-0.99-7.44c0,0,0-0.01,0-0.01c0-0.01,0-0.01,0-0.02
		c-1.28-7.04-2.04-12.18-2.39-15.84c0-0.01,0-0.02,0-0.03c-3.59-21.97-9.55-50.99-16.95-58.92c0,0,1.61-1.25,3.59-4.03
		c-1.15,1.28-2.34,2.62-3.59,4.03c-28.72,32.19-117.97,12.19-163.65-12.42c-45.68-24.61-20.33-31.96,12.57-46.37
		s86.06,7.96,104.91,4.1c18.85-3.86-2.24-19.72-35.44-26.98c-33.2-7.25-59.18,20.32-113.1,9.57
		c-53.92-10.76-64.24-121.36-64.24-121.36c32.82,22.11,103.72,21.64,109.97,9.9c6.25-11.73-90.24-39.36-104.09-47.6
		C1024.69,404.64,1007.48,366.81,1041.7,311.77z"/>
	<path style="fill:#CDE0FB;" d="M1769.35,464.53c-24.49-39.37-92.79-4.25-92.79-4.25s-26.58,89.76-40.33,95.84
		c-13.75,6.08,7.74-81.18,7.74-81.18c-28.49,5.64-88.84,60.76-88.84,60.76s30.75,86.17,15.93,88.68
		c-14.82,2.51-23.34-77.69-23.34-77.69c-24.37,16.08-39.99,54.85-39.99,54.85c-15.96,60.29,62.28,77.67,62.28,77.67
		s10.01,30.09,1.72,70.55l0,0c0,0-2.3,7.7-3.32,19.92l7.3-2.19c0.01-2.14,0.1-4.23,0.28-6.26c0-0.01,0-0.02,0-0.04
		c0-0.03,0.01-0.06,0.01-0.09c0.16-1.28,0.4-3.1,0.71-5.33c0,0,0-0.01,0-0.01c0,0,0-0.01,0-0.01c0.92-5.04,1.46-8.72,1.71-11.33
		c0-0.01,0-0.02,0-0.02c2.57-15.72,6.83-36.48,12.13-42.16c0,0-1.15-0.89-2.57-2.88c0.82,0.92,1.67,1.88,2.57,2.88
		c20.55,23.03,84.4,8.72,117.08-8.89c32.68-17.61,14.55-22.87-8.99-33.18c-23.54-10.31-61.57,5.7-75.06,2.93
		c-13.49-2.76,1.6-14.11,25.36-19.3c23.75-5.19,42.34,14.54,80.91,6.85c38.58-7.7,45.96-86.82,45.96-86.82
		c-23.48,15.82-74.21,15.48-78.68,7.09c-4.47-8.39,64.56-28.16,74.47-34.05C1781.53,530.97,1793.84,503.91,1769.35,464.53z"/>
	<path style="fill:#AFCDFB;" d="M1444.95,1455.45c0,0-34.75-58.74-78.06-78.7c0,0,6,131.55-18.56,131.15
		c-24.54-0.39,3.89-147.07,3.89-147.07s-110.99-74.13-158.36-76.22c0,0,56.16,135.58,32.48,129.15
		c-23.7-6.43-88.69-144.79-88.69-144.79s-118.91-39.9-148.75,29.69c-29.84,69.59-3.29,110.24,14.15,117.33
		c17.46,7.08,133.74,22,128.6,36.65c-5.15,14.65-86.96,27.68-128.76,7.92c0,0,31.39,125.92,95.56,128.86
		c64.17,2.93,89.32-33.5,128.94-30.96c39.63,2.53,66.78,17.13,45.68,24.91c-21.08,7.78-86.41-8.7-121.88,13.74
		c-35.47,22.43-63.44,35.39-6.35,55.76c57.09,20.38,163.68,27.78,191.18-14.46c9.96,7.87,21.94,40.33,29.96,65.07v0.03
		c1.06,4.16,2.83,9.97,5.55,17.88c0,0.01,0.01,0.01,0.01,0.01c0,0.01,0,0.01,0,0.02c0.57,1.89,1.07,3.6,1.5,5.1h11.07
		c-0.93-2.93-1.82-5.5-2.63-7.67c-1.98-5.4-3.38-8.37-3.38-8.37c-23.34-63.27-14.59-114.32-14.59-114.32
		S1485.55,1548.85,1444.95,1455.45z M1336.09,1638.32c1.17-1.8,2.29-3.55,3.37-5.2C1337.88,1636.24,1336.41,1637.95,1336.09,1638.32
		z"/>
	<polygon style="fill:#94B0ED;" points="1528.77,1225.64 1528.77,1726.57 1486.36,1726.51 1484.77,1726.51 1484.77,1225.64 	"/>
	<path style="fill:#AFCDFB;" d="M1050.72,1225.64h501.2V937.9c0-138.4-112.2-250.6-250.6-250.6h0c-138.4,0-250.6,112.2-250.6,250.6
		V1225.64z"/>
	<polygon style="fill:#AFCDFB;" points="1694.45,687.3 1286.03,687.3 1286.03,1013.61 1644.57,1013.61 	"/>
	<path style="fill:#628AD3;" d="M1443.85,1225.64h501.2V937.9c0-138.4-112.2-250.6-250.6-250.6l0,0
		c-138.4,0-250.6,112.2-250.6,250.6V1225.64z"/>
	<path style="fill:#233862;" d="M1470.83,1196.67h447.26V939.9c0-123.51-100.12-223.63-223.63-223.63l0,0
		c-123.51,0-223.63,100.12-223.63,223.63V1196.67z"/>
	<path style="fill:#628AD3;" d="M2343.1,1225.64h-906.78c-8,0-14.49-6.49-14.49-14.49l0,0c0-8,6.49-14.49,14.49-14.49h906.78
		c8,0,14.49,6.49,14.49,14.49l0,0C2357.59,1219.16,2351.1,1225.64,2343.1,1225.64z"/>
	<path style="fill:#94B0ED;" d="M1404.09,1252.21h212.4c7.51,0,13.61-6.09,13.61-13.61v-13.61H1389.7v12.82
		C1389.7,1245.76,1396.14,1252.21,1404.09,1252.21z"/>
	<g>
		<path style="fill:#163560;" d="M2568.48,725.79c0,0,19.16,31.58-16.86,51.46c0,0,27.69,9.99,37.33,6.22c0,0-2.39,2.49-4.21,3.4
			c0,0,26.03,8.26,39,3.75c12.97-4.51,40.91-130.53-35.91-137.17c0,0-60.59-21.7-73.41,45.92s-36.15,61.06-36.15,61.06
			s5.66,4.78,8.79,5.66c0,0,5.03-0.32,6.59-2.41c0,0-1.94,3.42-3.44,4.25c0,0,24.57,9.29,39.62,4.05
			C2544.89,766.75,2568.24,740.42,2568.48,725.79z"/>
		<path style="fill:#233862;" d="M2491.36,1720.61h98c0,0,2.35-14.94-2.77-26.27c-4.91-10.87-12.54-17.59-13.23-25.92
			c-6.23,6.41-13.89,10.54-28.06,8.63c-1.74,2.82-11.21,17.88-17,22.04C2521.89,1703.7,2493.33,1702.07,2491.36,1720.61z"/>
		<path style="fill:#2B478B;" d="M2572.34,1683.18c0,0-8.36,2.71-17.09,3.48c-15.44,1.38-17.69-3.22-17.69-3.22
			s-15.34-136.56-65-397.59c-7.16-37.7-9.99-58.57-12.58-92.08c-0.78-10.03-1.53-21.19-2.36-34.28
			c-2.25-35.18,3.09-94.39,29.49-109.95c12-7.09,28.36-5.14,50.35,12.17c1.73,1.37,3.5,2.83,5.31,4.39
			c64.34,55.66,37.96,215.51,40.56,290.66c0.44,12.46,1.67,22.59,4.24,29.53c3.32,8.98,10.45,21.42,12.07,33.15
			C2613.15,1516.93,2572.34,1683.18,2572.34,1683.18z"/>
		<path style="fill:#233862;" d="M2583.34,1356.77l-123.35-162.99c-0.78-10.03-1.53-21.19-2.36-34.28
			c-2.25-35.18,3.09-94.39,29.49-109.95l50.35,12.17c1.73,1.37,3.5,2.83,5.31,4.39C2607.12,1121.77,2580.74,1281.62,2583.34,1356.77
			z"/>
		<path style="fill:#233862;" d="M2931.99,1514.36l-40.79-89.11c0,0-14.56,4.08-22.73,13.45c-7.85,8.99-13.53,7.39-31.4-5.02
			c6.73,10.39,7.64,16.51,11.8,30.19c3.28,0.41,21.97,18.49,41.11,23.47C2897.61,1489.33,2914.31,1520.29,2931.99,1514.36z"/>
		<path style="fill:#2B478B;" d="M2504.34,1088.66c0,0,87.82,305.29,120,324.95s201.36,46.68,235.75,61.42c0,0,4.19-6,1.73-18.83
			c-0.54-2.85-5.4-13.1-5.4-13.1s-105.06-78.98-174.21-86.95c-17.16-1.98,34.94-264.04-81.02-274.5
			C2495.25,1072.07,2504.34,1088.66,2504.34,1088.66z"/>
		<path style="fill:#FFB27D;" d="M2374.16,588.09c0,0,1.96-9.79,4.17-17.25c0.98-3.31-5.84-25.01-10.55-27.68
			c-4.72-2.67-17,11.95-13.53,23.17c1.79,5.77,4.72,24.53,4.72,24.53L2374.16,588.09z"/>
		<path style="fill:#FFB27D;" d="M2374.16,588.09c0,0,2.56-5.67,4.88-6.59c2.32-0.92,4.8-10.2,6.5-13.88c0,0-1.64-2.41-4.51,0.69
			c-1.75,1.89-5.66,7.43-5.66,7.43L2374.16,588.09z"/>
		<path style="fill:#FFB27D;" d="M2779.67,626.37c0.6,1.24,1.43,3.46,2.18,5.54c0.01-0.57,0.02-1.13,0.03-1.68
			c0.04-4.15,15.53-26.73,21.9-28.14c6.37-1.41,15.36,19.74,7.41,31.43c-4.09,6.01-16.43,27.41-16.43,27.41l-13.67-8.25
			c0,0-0.09-5.76-3.78-10.43c-1.86-2.35-1.93-13.43-2.59-18.26C2774.71,623.99,2777.45,621.79,2779.67,626.37z"/>
		<path style="fill:#FFB27D;" d="M2521.9,806.63c-0.21,0.06,17.64,12.98,32.79,11.17c14.24-1.7,25.83-18.12,25.65-18.18
			c-5.63-2.01-6.11-10.23-0.9-44.44l-2.7,0.13l-45.36,2.17c0,0-1.06,14.02-2.97,27.09C2526.8,795.53,2524.59,805.83,2521.9,806.63z"
			/>
		<path style="fill:#ED975D;" d="M2531.38,757.47c0,0-1.06,14.02-2.97,27.09c24.76,2.97,41.14-17.58,48.34-29.26L2531.38,757.47z"/>
		<path style="fill:#163560;" d="M2582,751.17c0,0,15.96-18.5,21.66-35.49c4.07-12.14,4.59-59.28-42.83-59.53
			c0,0-13.68-0.68-27.63,6c-11.09,5.31-27.83,17.84-17.56,60.58l2.2,14.25L2582,751.17z"/>
		<path style="fill:#FFB27D;" d="M2465,1076.9c0,0,44.49,28.08,118.61,10.04c0.87-0.21,42.14-6.79,42.14-6.79
			c-1.03-2.83-44.4-74.48-45.42-77.08c-13.15-33.93,17.3-195.93-2.78-205.01c-5.13,5.58-19.78,9.41-32.32,8.29
			c-14.44-1.28-19.28-7.52-18.08-14.23c-15.98,7.56-28.26,14.58-28.26,14.58C2484.3,828.58,2465,1076.9,2465,1076.9z"/>
		<path style="fill:#FFB27D;" d="M2521.3,768.61c0,0,58.2,9.64,63.64-26.69c5.45-36.34,16.63-59.56-20.3-67.25
			c-36.93-7.69-46.24,5.09-51.01,16.77C2508.86,703.12,2506.3,765.17,2521.3,768.61z"/>
		<path style="fill:#163560;" d="M2538.2,669.82c0,0,9.63,45.01,33.21,54.96c23.58,9.95,35.19,4.96,35.19,4.96
			s-16.58-17.73-16.61-44.39C2589.99,685.35,2553.27,651.32,2538.2,669.82z"/>
		<path style="fill:#163560;" d="M2541.65,673.87c0,0-13.35,7.74-17.63,16.57c-4.29,8.82-8.43,27.68-13.88,26.2
			c0,0-7.72-30.77,8.24-45.15C2535.3,656.24,2541.65,673.87,2541.65,673.87z"/>
		<path style="fill:#F99746;" d="M2797.28,661.11c0,0-37.53,114.08-47.52,131.72c-6.02,10.65-73.62,52.74-112.86,80.48
			c-0.43,0.29-0.93,0.91-1.51,1.8c-0.01,0.02-0.02,0.03-0.04,0.05c-9.79,15.14-40.23,108.89-32.96,125.72
			c30.6,70.72,51.58,98.07,59.21,117.91c3.81,9.89-1.28,20.97-11.27,24.53c-12.58,4.48-31.1,10.11-52.95,13.86
			c-4.17,0.72-8.46,1.37-12.85,1.92c-60.31,7.65-101.15-6.5-121.88-16.96c-9.81-4.95-15.72-15.24-15.11-26.2
			c1.24-22.37,12.44-44.52,17.48-98.32c3.82-40.82-31.4-102.95-29.92-124.68c0.59-8.59,7.35-18.88,11.01-25.54c0,0,0-0.01,0.01-0.02
			c6.47-11.79,10.03-22.45,5.72-28.37c-28.7-39.39-90.68-93.71-93.21-107.27c-3.7-19.94-2.03-143.13-2.03-143.13
			c2.37-0.83,5.85-2.81,10.41-3.21c4.05-0.36,9.14,0.95,9.14,0.95s16.42,102.08,17.64,107.48c1.22,5.4,70.42,83.37,89.08,83.06
			c16.85-0.28,40.61,12.73,44.31,15.23c0,0-15.12,26.8-18.9,63c-2.63,25.32,14.28,14.06,24.91-3.28
			c14.38-23.47,43.32-56.9,43.32-56.9s23.55-6.13,41.1,0.24c17.55,6.35,108.33-44.91,111.24-49.63
			c2.92-4.72,51.54-95.32,51.54-95.32s4.03-2.34,10.49,1.03C2797.24,654.6,2797.28,661.11,2797.28,661.11z"/>
		<path style="fill:#FFFFFF;" d="M2538.2,748.88c0,0-2.49,5.02-5.84,5.11c-3.35,0.09-11.85-0.71-12.43-1.58
			c-0.58-0.87-1.99-6.11-1.99-6.11S2532.01,745.74,2538.2,748.88z"/>
		<path style="fill:#ED7D2B;" d="M2650.32,1143.33c-12.58,4.48-31.1,10.11-52.95,13.86c-20.81-28.69-56.03-64.79-46.97-131.19
			c9.37-68.63,76.84-140.87,84.94-150.83c-9.79,15.14-40.23,108.89-32.96,125.72c30.6,70.72,51.58,98.07,59.21,117.91
			C2665.4,1128.69,2660.31,1139.77,2650.32,1143.33z"/>
		<path style="fill:#ED7D2B;" d="M2446.1,867.38c6.47-11.79,10.03-22.45,5.72-28.37c-28.7-39.39-90.68-93.71-93.21-107.27
			c6.15,14.74,81.2,58.77,102.31,77.71C2481.79,828.14,2446.96,866.47,2446.1,867.38z"/>
	</g>
	<g>
		<path style="fill:#2C3A64;" d="M1874.04,463.24c0,0-3.01-32.85,33.69-32.85c0,0-11.12,3.02-16.88,9.05c0,0,23.41-13.74,48.89,7.38
			c25.48,21.12,9.65,74.08,17.39,84.14c7.75,10.06,37.92,12.07,34.23,44.58c-3.69,32.52-95.75,73.24-89.84,100.14
			c0,0-36.08-53.04-10.28-77.24c0,0-12.57,11.84-13.86,25.92c0,0-3.41-27.49,14.08-36.28c15.48-7.78,28.16-36.24,26.82-41.32
			C1916.95,541.68,1874.04,463.24,1874.04,463.24z"/>
		<path style="fill:#FFB27D;" d="M1925.85,601.19c0,0-52.22,131.78-63.48,126.9c-11.26-4.88-77.58-25.95-77.58-25.95l-4.36,16.14
			c0,0,63.11,48.63,95.58,50.76c32.47,2.13,76.46-93.56,76.46-93.56L1925.85,601.19z"/>
		<g>
			<path style="fill:#ED8537;" d="M1926.4,695.74l51.5,179.99c0.76,2.65,1.01,5.34,0.84,7.94c-0.62,9.46-7.1,17.95-16.73,20.71
				l-312.58,89.44c-9.68,2.77-19.69-1.08-25.21-8.84c-1.49-2.09-2.66-4.46-3.4-7.07L1569.32,798c-3.52-12.31,3.59-25.12,15.87-28.64
				l312.58-89.44C1910.04,676.41,1922.83,683.47,1926.4,695.74z"/>
			<g>
				<path style="fill:#DD6D22;" d="M1978.74,883.67c-0.62,9.46-7.1,17.95-16.73,20.71l-312.58,89.44
					c-9.68,2.77-19.69-1.08-25.21-8.84l159.21-145.04L1978.74,883.67z"/>
				<path style="fill:#F99746;" d="M1926.4,695.74l-139.94,173.78l-214.5-62.31l-2.63-9.21c-3.52-12.31,3.59-25.12,15.87-28.64
					l312.58-89.44C1910.04,676.41,1922.83,683.47,1926.4,695.74z"/>
			</g>
		</g>
		<path style="fill:#FFB27D;" d="M1807.93,705.51c0,0-28.6-12.08-32.56,3.21c-2.09,8.08-7.01,18.76,1.82,17.95
			c8.82-0.8,17.68-6.72,18.66-11.54C1796.83,710.32,1807.93,705.51,1807.93,705.51z"/>
		<path style="fill:#2B478B;" d="M2167.89,820.27c-0.24,0.43-0.5,0.88-0.75,1.33c-6,10.43-19.77,35.99-34.93,63.95
			c-7.17,13.27-14.68,27.08-21.8,40.08c-12.27,22.43-23.44,42.4-29.95,52.96c-6.63,10.73-11.5,18.27-13.48,21.29
			c-0.02,0.02-0.02,0.02-0.02,0.02c-0.59,0.93-0.72,2.02-0.64,3.11c0.69,9.47,0.5,18.87-0.43,28.13
			c-9.15,90.99-70.5,139.74-70.5,139.74l-18.24,2.7c0,0,25.81-95.64,33.42-149.71c1.28-9.16,1.84-16.59,1.4-21.43
			c-1.35-14.09,1.16-34.77,5.89-58.51c8.42-42.2,23.87-93.99,37.3-135.44c0.85-2.65,26.5-95.45,26.5-95.45
			c21.53,18.82,100.07,26.59,100.07,26.59S2195.04,771.99,2167.89,820.27z"/>
		<path style="fill:#233862;" d="M1938.86,1196.66h76.13c0,0,1.83-11.6-2.15-20.41c-3.81-8.45-9.24-8.72-0.69-21.96
			c-4.84,4.98-20.39,7.04-31.4,5.56c-1.35,2.19-8.69,16.86-13.2,20.09C1962.58,1183.52,1940.39,1182.25,1938.86,1196.66z"/>
		<path style="fill:#233862;" d="M2167.89,820.27c-0.24,0.43-0.5,0.88-0.75,1.33c-6,10.43-38.45,70.37-53.61,98.33
			c17.57-72.28,5.35-144.56,5.35-144.56L2167.89,820.27z"/>
		<path style="fill:#2C3A64;" d="M1884.42,458.62c-0.5-2,43.48,19.88,45.71,22.35c20.63,22.88,14.75,52.74,2.94,53.03
			c-7.57,0.18-6.1,12.77-6.1,12.77l-84.33-35.67C1842.65,511.09,1852.8,451.89,1884.42,458.62z"/>
		<path style="fill:#F9DDBF;" d="M1912.76,603.93c0,0-11.23,11.63-11.23,46.44c0,0,15.47,24.43,55.61,30.61
			C1957.13,680.98,1922.63,603.91,1912.76,603.93z"/>
		<path style="fill:#2B478B;" d="M2108.54,745.29l-0.26-14.24c28.37,3.58,97.82-33.9,97.82-33.9s29.68,19.74,33.74,76.12
			c1.98,27.52,14.53,143.89,15.92,178.64c0.51,12.59,0.67,21.58,0.73,25.17c-0.01,0.02-0.01,0.03,0,0.04
			c0.02,1.1,0.53,2.06,1.21,2.93c5.87,7.46,10.96,15.37,15.37,23.56c43.29,80.55,20.65,189.99,20.65,189.99l-10.05-2.56
			c0,0-36.61-113.46-60.53-162.54c-4.06-8.32-7.75-14.8-10.84-18.55c-9-10.93-18.48-29.48-27.83-51.81
			C2166.8,915.94,2108.54,745.29,2108.54,745.29z"/>
		<path style="fill:#233862;" d="M2233.18,1196.66h76.13c0,0,1.83-11.6-2.15-20.41c-3.81-8.45-9.78-12.29-8.35-22.51
			c-4.84,4.98-12.72,10.56-23.73,9.08c-1.35,2.19-8.71,13.89-13.21,17.12C2256.9,1183.52,2234.71,1182.25,2233.18,1196.66z"/>
		<path style="fill:#F9DDBF;" d="M1962.27,697.33c10.23,1.74-1.67,9.87,12.4,11.4c20.02,2.19,40.69,3.68,51.52,8
			c3.95,1.58,6.59,3.52,7.42,6.01c4.69,14.11,34.42,38.36,34.42,38.36c132.57-6.03,138.09-63.96,138.09-63.96
			c-86.04-83.56-165.15-132.84-225.56-139.37c-10.34-1.12-23.41,5.44-32.72,9.59c-21.16,9.42-35.06,36.57-35.06,36.57
			S1923.42,690.7,1962.27,697.33z"/>
		<path style="fill:#F2CCAA;" d="M1974.67,708.73c20.02,2.19,40.69,3.68,51.52,8c4.42-66.12-26.78-115.85-26.78-115.85
			S1979.05,683.71,1974.67,708.73z"/>
		<path style="fill:#FFB27D;" d="M1957.4,589.69c0,0,50.34-2.75,59.29,28.86c8.95,31.61-16.78,157.77-22.33,170.79
			c-10.09,23.71-59.24,91.37-59.24,91.37l-18.07-5.5c0,0,32.77-103.36,40.08-113.59C1968.62,745.55,1942.33,603.44,1957.4,589.69z"
			/>
		<path style="fill:#FFB27D;" d="M1917.05,875.2c0,0-0.93,8.02-4.32,12.15c-3.39,4.14-13.24,14.15-13.41,20.01
			c0,0,0.5,2.6,2.61,2.13c2.11-0.48,9.45-7.74,13.22-7.22c0,0-2.01,11.75-4,15.05c-1.99,3.31-0.41,17.34,0.79,20.19
			c1.2,2.85,15.88-15.33,21.92-23.45c6.04-8.12,0.1-41.07,0.1-41.07L1917.05,875.2z"/>
		<path style="fill:#F9DDBF;" d="M2026.62,660.81c-0.13,0.74-47.64,8.74-77.36-6.34c0,0-24.83-77.77,10.65-74.05
			c35.48,3.72,56.48,14.89,57.38,31.88C2018.18,629.28,2026.62,660.81,2026.62,660.81z"/>
		<path style="fill:#FFB27D;" d="M1947.82,567.37c0,0-14,52.23-35.06,36.57c0.59-2.52-3.08-9.85-7.41-17.3
			c-5.54-9.51-12.13-19.24-12.13-19.24l28.5-24.96l1.7-1.49C1932.14,556.19,1940.7,562.17,1947.82,567.37z"/>
		<path style="fill:#ED985F;" d="M1893.22,567.41c0,0,6.59,9.7,12.12,19.23c17.71-10.92,17.73-32.84,16.37-44.2L1893.22,567.41z"/>
		<path style="fill:#FFB27D;" d="M1892.43,579.92c0,0,43-23.93,27.69-50.48c-15.31-26.55-20.08-47.52-48.18-33.37
			c-28.1,14.16-27.55,27.34-24.59,37.44C1850.3,543.62,1880.85,585.46,1892.43,579.92z"/>
		<path style="fill:#2C3A64;" d="M1840.08,518.03c1.97-11.79,7.96-12.91,12.13-12.13c15.88-26.26,41.83-16.01,41.83-16.01
			c13.86,17.39,33.89,20.36,33.89,20.36s-4.99,9.28-25.55,15.03c-6.28,1.76-13.41,0.69-20.28-1.62c14.26,7.95,29.18,11,29.18,11
			c-27.09,2.48-52.87-22.29-55.55-24.94c-1.25,3.84-3.44,11.88-2.13,17.75c1.78,7.98,8.87,22.45,4.54,24.32
			C1858.15,551.79,1837.13,535.71,1840.08,518.03z"/>
	</g>
	<g>
		<g>
			<path style="fill:#FFB27D;" d="M1313.88,905.25c2.68,3.07,3.02,6.49,1.69,10.15c0,0.01-0.01,0.04-0.03,0.05
				c-2.45,6.77-10.54,14.33-19.94,21.88c-1.2,0.97-2.27,1.85-3.2,2.67c-0.24,0.21-0.49,0.43-0.72,0.64
				c-0.19,0.17-0.37,0.34-0.55,0.5c-8.76,8.08-5.47,9.93-21.21,26.33c-17.96,18.68-30.32,19.02-33.83,17.32
				c-2.98-1.45,3.07-11.36,9.77-22.5c0.32-0.54,0.64-1.08,0.98-1.62c0.89-1.48,1.78-2.98,2.66-4.47c7.85-13.4,5.83-19.69,3.97-39.64
				c-1.51-16.21-25.22-90.56-25.22-90.56l34.41-5.93c0,0,10.36,59.2,21.78,68.32c6.1,4.86,12.94,4.92,18.81,8.52
				c0.41,0.25,0.82,0.51,1.22,0.77C1307.8,899.89,1311.19,902.17,1313.88,905.25z"/>
			<path style="fill:#233862;" d="M1313.88,905.25c2.68,3.07,3.02,6.49,1.69,10.15c0,0.01-0.01,0.04-0.03,0.05
				c-3,6.76-10.89,14.28-19.97,21.81c-1.19,0.99-2.23,1.89-3.17,2.74c-0.24,0.21-0.49,0.43-0.72,0.64c-0.19,0.17-0.37,0.34-0.55,0.5
				c-8.76,8.08-5.47,9.93-21.21,26.33c-17.96,18.68-30.32,19.02-33.83,17.32c-2.98-1.45,3.07-11.36,9.77-22.5
				c3.5-1.28,19.73-7.88,32.01-23.58c10.81-13.8,18.02-31.52,25.38-41.79c0.41,0.25,0.82,0.51,1.22,0.77
				C1307.8,899.89,1311.19,902.17,1313.88,905.25z"/>
			<path style="fill:#FFB27D;" d="M1036.42,883.76c-2.13,10.62-17.26,8.85-34.18,4.72c-16.91-4.13-12.89,0.78-36.97-1.88
				c-24.07-2.66-31.37-11.64-32.1-15.22c-0.66-3.18,11.24-4.3,24-5.77c1.6-0.18,3.22-0.38,4.83-0.58
				c14.41-1.81,24.95-11.1,38.04-18.74c12.39-7.23,30.89-36.69,30.89-36.69l33.01,2.62c0,0-17.32,26.31-24.03,37.75
				c-3.94,6.73-3.73,15.63-3.24,22.5C1036.93,876.2,1037.18,880.02,1036.42,883.76z"/>
			<path style="fill:#233862;" d="M1002.24,888.47c-16.91-4.13-12.89,0.78-36.97-1.88c-24.07-2.66-31.37-11.64-32.1-15.22
				c-0.66-3.18,11.24-4.3,24-5.77l0.12,0.25c0,0,14.44,10.24,34.48,10.72c16.33,0.4,33.63-4.28,44.91-4.1
				c0.26,3.73,0.5,7.55-0.25,11.29C1034.3,894.38,1019.16,892.61,1002.24,888.47z"/>
			<path style="fill:#233862;" d="M1162.94,672.66l30.86,83.05l40.29,108.43c0,0,10.94,1.06,21.41-1.96
				c9.64-2.79,20.7-10.08,20.7-10.08s-11.19-116.43-32.06-183.26c-5.35-17.16-11.34-31.03-17.96-38.84
				C1193.83,591.76,1162.94,672.66,1162.94,672.66z"/>
			<path style="fill:#2B478B;" d="M1194.32,540.77c20.22-6.52,77.89,1.85,135.82,13.19l12.13-20.01l125.12-9.77
				c0,0,41.29,91.56,18.68,149.91c-3.32,8.57-9.92,14.07-21.18,14.26c0,0.01-1.82,0-1.83,0c0,0-74.47-0.04-98.65-0.04
				c-62.23,0-131.69-42.77-140.68-44.57c-14.71-2.94-20.59,26.48-35.3,57.36c-14.71,30.89-138.26,136.79-138.26,136.79
				s-18.99,0.19-26.83-2.75c-8.44-3.16-11.52-7.27-11.52-7.27S1148.72,555.48,1194.32,540.77z"/>
			<path style="fill:#A9453D;" d="M1307.41,359.99c39.46,32.09,134.54,87.71,135.06,87.47c0,0,30.46,18.25,51.24,9.29
				c34.63-14.92,61.23-67.16,13.32-124.96c-23.89-28.83-43.7-38.32-39.05-76.64c5.04-41.52-13.71-93.72-61.5-95.92
				c-3.99-0.18-28.19-3.42-45.47,2.01C1316.99,175.06,1243.38,338.73,1307.41,359.99z"/>
			<path style="fill:#FFB27D;" d="M1436.83,311.47c0.2,0.03-9.62,21.44-23.91,26.63c-15.19,5.54-36.76-3.46-36.56-3.58
				c2.58-1.47,4.42-11.21,3.42-22.92c-0.05-0.55-0.09-1.12-0.16-1.69c-1.34-13.1-5.13-27.45-5.37-28.39
				c-0.01-0.03-0.01-0.04-0.01-0.04l46.31-13.24l2.75-0.78C1426.2,304.05,1430.54,310.77,1436.83,311.47z"/>
			<path style="fill:#ED975D;" d="M1420.55,268.23c-4.49,13.46-15.95,37.77-40.92,41.67c-1.34-13.1-5.13-27.45-5.37-28.39
				c-0.01-0.03-0.01-0.04-0.01-0.04L1420.55,268.23z"/>
			<path style="fill:#FFB27D;" d="M1366.54,295.42c0,0,62.42-4.15,59.24-42.98c-3.18-38.83,2.73-65.52-37.26-64.51
				c-39.99,1.01-46.51,16.46-48.6,29.68C1337.83,230.83,1350.22,295.5,1366.54,295.42z"/>
			<path style="fill:#A9453D;" d="M1355.32,187.23c0,0,15.51,45.51,52.33,50.8c26.86,3.86,37.53-3.4,37.53-3.4
				s-14.99-14.25-23.12-36.16c-2.4-6.46-8.06-11.16-14.86-12.21C1388.07,183.3,1363.39,170.64,1355.32,187.23z"/>
			<path style="fill:#A9453D;" d="M1368.55,195.29c0,0-11.14,4.5-18.92,21.14c-4.25,9.09-7.32,30.75-4.7,39.67
				c0,0-17.95-41.52-4.95-60.24C1353.76,176.02,1368.55,195.29,1368.55,195.29z"/>
			<path style="fill:#AEC3FF;" d="M1488.79,454.78c-1.11,4.71-2.06,9.05-2.83,13.05c-1.27,6.46-2.14,12.02-2.75,16.94
				c-1.9,15.31-1.33,24.39-2.61,34.31c-0.71,5.55-2.02,11.37-4.66,18.68c-2.58,7.11-70.23,13.45-108.72,10.89
				c-12.22-0.79-21.53-2.52-24.84-5.37c-13.73-11.93-12.36,14.3-14.24-111.19c-0.91-61.21,51.94-115.73,51.94-115.73
				s4.22,26.15,56.64-4.97c1.86-1.09,22.5,29.48,42.37,67.12C1500.97,420.09,1494.97,428.89,1488.79,454.78z"/>
			<path style="fill:#2B478B;" d="M1193.8,755.7l40.29,108.43c0,0,10.94,1.06,21.41-1.96c9.64-2.79,20.7-10.08,20.7-10.08
				s-11.19-116.43-32.06-183.26L1193.8,755.7z"/>
			<path style="fill:#AEC3FF;" d="M1380.07,316.36c0,0-53.93,9.14-60.27,32.37c-6.33,23.22-50.09,153.09-50.09,153.09
				s33.9,11.57,46.57-1.1s44.07-117.51,44.07-117.51L1380.07,316.36z"/>
			<path style="fill:#FFFFFF;" d="M1376.96,270.48c0,0-1.53,6.73-8.33,7.86c-6.8,1.13-8.81,0.42-10.33-0.81
				c-1.53-1.23-3.26-3.79-3.26-3.79S1365.93,269.64,1376.96,270.48z"/>
			<path style="fill:#94B0ED;" d="M1483.21,484.77c-1.9,15.31-1.33,24.39-2.61,34.31c-48.97,0.16-114.44-37.82-114.44-37.82
				L1483.21,484.77z"/>
			<path style="fill:#94B0ED;" d="M1366.15,449.15c0,0,76.29-2.27,89.15-45.64c14.13-47.64,29.95,19.59,29.95,19.59l-8.42,42.91
				h-83.7L1366.15,449.15z"/>
			<polygon style="fill:#F9DDBF;" points="1381.64,521.05 1263.28,522.16 1205.03,385.28 1323.39,384.18 			"/>
			<path style="fill:#FFB27D;" d="M1366.16,459.2l-8.68-10.66c0,0-5.87-5.24-10.13-6.13c-4.26-0.89-13.26-6.08-14.13-4.62
				c-0.87,1.46,6.91,11.89,6.91,11.89l0.4,0.06c-8.94,6.72-31.5,0.79-34.28,3.53c-3.38,3.32,4.65,10.51,8.95,14.54
				c4.3,4.03,16.61,10.76,26.21,7.77c7.01-2.18,18.05-4.4,18.05-4.4L1366.16,459.2z"/>
			<path style="fill:#AEC3FF;" d="M1436.72,311.4c0,0,49.52,3.24,61.9,22.56c12.38,19.31,27.73,117.37,21.3,151.05
				c-6.44,33.68-165.02-6.44-165.02-6.44l5.06-29.22c0,0,91.52,0.53,96.74-11.39C1463.62,422.11,1436.72,311.4,1436.72,311.4z"/>
			<path style="fill:#FFB27D;" d="M1213.94,409.36c0,0,7.44-8.45,12.17-4.4c4.73,4.06-1.24,24.01-5.75,21.98
				C1215.85,424.91,1211.34,411.84,1213.94,409.36z"/>
		</g>
	</g>
	<g>
		<path style="fill:#163560;" d="M657.97,892.37c-2.64-7.95,88.41-20.54,78.24,52.11c0,0,163.3,21.91,100.07-81.12
			c-21.89-35.67-14.99-61.18-10.33-85.21c4.67-24.03-1.71-97.04-63.05-99.56c0,0-14.75-8.93-36.05-1.85
			C678.41,692.82,542.4,901.35,657.97,892.37z"/>
		<path style="fill:#F9DDBF;" d="M790.47,990.41c0,0,5.83,11.54,16.4,24.8c12.74,15.96,79.61-21.92,73.85-24.8
			c-5.76-2.88-39.36-99.69-47.36-111.85c-8.01-12.16-35.27-18.48-35.27-18.48L790.47,990.41z"/>
		<path style="fill:#233862;" d="M564.81,1643.32c0,0-18.46,16.84-14.85,28.81c3.6,11.97,20.26,19.95,22.51,34.57
			c2.25,14.63,11.25,22.61,19.36,22.61c8.1,0,38.63,0,38.63,0s5.96-10.29-8.44-13.4c-14.41-3.1-19.84-20.29-18.94-36.25
			c0.9-15.96-1.35-37.23-1.35-37.23l-30.61-7.09L564.81,1643.32z"/>
		<path style="fill:#233862;" d="M721.02,1650.47c0,0-6.64,71.35,1.46,75.34l103.7-0.21c0,0,0-11.97-16.66-14.63
			c-16.66-2.66-45.92-12.41-50.87-34.13C753.71,1655.13,721.02,1650.47,721.02,1650.47z"/>
		<path style="fill:#FFB27D;" d="M647.12,1138.56c21.34-47.86,34.4-61.59,31.9-76.45c-1.85-11.05,5.65-206.12,5.65-206.12
			c2.53-0.78,7.61-1.49,10.38-2.1c8.75-1.94,16-8.09,19.01-16.54c3.63-10.17,6.52-25.19,6.45-44.01l2.73,0.54l45.96,9.1
			c0,0-1.05,14.46-1.08,28.09c0,0.11,0,0.23,0,0.34c-0.06,11.83,7.71,22.28,19.08,25.56c5.81,1.68,10.86,3.11,10.86,3.11
			s16.88,48.18,20.1,97.68c3.22,49.5-30.69,71,0.26,169.92C850.03,1228.71,635.34,1165,647.12,1138.56z"/>
		<path style="fill:#E8945B;" d="M769.22,802.98c0,0-1.05,14.46-1.08,28.09c-25.72-0.72-39.31-24.19-44.89-37.19L769.22,802.98z"/>
		<path style="fill:#FFB27D;" d="M772,822.19c0,0-60.25-8.58-54.33-46.02c5.92-37.44,2.13-63.76,40.85-59.87
			c38.72,3.9,43.92,19.36,44.98,32.34C804.56,761.62,787.82,823.46,772,822.19z"/>
		<path style="fill:#163560;" d="M786.03,719.75c0,0-23.45,41.3-49.74,43.77c-26.29,2.47-36.16-6.04-36.16-6.04
			s21.82-12.3,30.12-38.52C730.26,718.95,776.95,696.87,786.03,719.75z"/>
		<path style="fill:#163560;" d="M781.39,722.66c0,0,11.47,6.51,15.08,16.2c3.52,9.48,5.87,21.68,2.65,35.66
			c0,0,17.15-27.88,5.91-46.98C793.11,707.29,781.39,722.66,781.39,722.66z"/>
		<path style="fill:#F9DDBF;" d="M641.25,942.28c0,0-1.55,21.79,0,47.93c1.03,17.33,18.56,40.54,21.04,46.28
			c6.24,14.4,13.28,16.74,13.28,16.74l54.45,13.34l19.14,4.69l60.37-18.03c0,0,27.5-76.75,16.46-119.96
			c-11.04-43.2-27.91-73.21-27.91-73.21s-49.26,48.24-113.41-4.09L641.25,942.28z"/>
		<path style="fill:#F2CCAA;" d="M636.06,990.81c1.03,17.33,23.74,39.94,26.23,45.68c6.24,14.4,13.28,16.74,13.28,16.74l54.45,13.34
			l14.52-20.48c0,0-88.14-24.51-71.45-102.22L636.06,990.81z"/>
		<path style="fill:#ED7D2B;" d="M805.7,1064.88c0,0,29.9,93.06,31.82,124.74c1.92,31.68-57.15,450.09-59.53,464.69
			c-2.24,13.76-19.33,22.53-19.33,22.53s-7.86,4.64-19.08,1.47c-15.56-4.39-20.48-9.66-20.48-9.66s-23.27-298.4-8.87-405
			c14.4-106.6,14.57-198.78,14.57-198.78H805.7z"/>
		<path style="fill:#F99746;" d="M679.03,1062.11c0,0-45.6,61.19-49.86,102.55c-4.25,41.36-6.67,186.66-15.73,226.98
			c-9.06,40.32-42.34,117.92-42.34,243.7c0,0,3.46,7.21,14.14,11.05c3.42,1.23,7.99,2.42,12.43,3.44
			c8.81,2.02,17.85-2.29,21.87-10.38c22.5-45.3,94.17-191.4,97.84-221.73c2.6-21.46,25.23-163.51,74.59-246.86
			c11.85-20.01-7.27-99.59-7.27-99.59L679.03,1062.11z"/>
		<path style="fill:#FFFFFF;" d="M763.8,798.1c0,0,0.34,4.58,11.42,5.64c0,0,9.3,0.9,9.8-4C785.01,799.75,776.62,794.88,763.8,798.1
			z"/>
		<path style="fill:#233862;" d="M810.47,1050.52c0,0-12,9.5-35.85,9.97c-28.48,0.57-99.05-7.26-99.05-7.26s-3.14,8.76-3.01,18.01
			c0,0,86.19,21.74,136.13,3.17C808.7,1074.42,815.14,1062.3,810.47,1050.52z"/>
		<g>
			<path style="fill:#FFFFFF;" d="M768.46,1070.33c0-8.11,5.83-14.71,12.99-14.71c7.17,0,13,6.6,13,14.71
				c0,8.11-5.83,14.71-13,14.71C774.29,1085.04,768.46,1078.44,768.46,1070.33z M772.77,1070.33c0,5.74,3.9,10.4,8.69,10.4
				c4.79,0,8.69-4.67,8.69-10.4s-3.9-10.4-8.69-10.4C776.67,1059.93,772.77,1064.59,772.77,1070.33z"/>
		</g>
		<polygon style="fill:#C5D9EA;" points="719.19,1111.79 848.74,1113 912.48,963.2 782.94,961.98 		"/>
		<path style="fill:#FFB27D;" d="M736.13,1044.09l9.5-11.67c0,0,6.43-5.73,11.09-6.71c4.66-0.97,14.51-6.65,15.46-5.05
			c0.95,1.6-7.56,13.01-7.56,13.01l-0.43,0.06c9.78,7.36,34.47,0.86,37.52,3.86c3.69,3.64-5.09,11.5-9.8,15.91
			c-4.71,4.42-18.18,11.78-28.68,8.51c-7.68-2.39-19.76-4.82-19.76-4.82L736.13,1044.09z"/>
		<path style="fill:#FFB27D;" d="M902.74,989.55c0,0-8.14-9.25-13.32-4.81c-5.18,4.44,1.36,26.27,6.29,24.05
			C900.64,1006.57,905.57,992.26,902.74,989.55z"/>
		<path style="fill:#F9DDBF;" d="M684.68,855.98c0,0-43.2,3.03-59.75,43.28c-16.56,40.25-47.27,126.08-47.27,137.45
			s33.9,53.2,166.54,20.86c0,0,4.52-12.73-4.35-19.17c0,0-92.47-29.69-92.31-35.6c0.3-11.17,12.5-20.82,64.15-72.49
			C725.73,916.27,684.68,855.98,684.68,855.98z"/>
	</g>
	<g style="opacity:0.7;">
		<polygon style="fill:#9EC3F6;" points="2169.95,487.3 2299.35,529.61 2221.84,454.06 2213.97,472.52 2180.66,472.68 		"/>
		<polygon style="fill:#FFFFFF;" points="2299.35,529.61 2198.92,453.21 2091.62,428.7 		"/>
		<polygon style="fill:#FFFFFF;" points="2221.84,454.06 2299.35,529.61 2247.69,423.77 		"/>
	</g>
	<g style="opacity:0.7;">
		<polygon style="fill:#9EC3F6;" points="1757.04,269.35 1620.53,288.82 1711.12,227.08 1715.73,246.87 1748.93,252.88 		"/>
		<polygon style="fill:#FFFFFF;" points="1620.53,288.82 1734.13,230.25 1845.47,224.65 		"/>
		<polygon style="fill:#FFFFFF;" points="1711.12,227.08 1620.53,288.82 1690.66,192.32 		"/>
	</g>
	<g>
		<path style="fill:#CDE0FB;" d="M1055.35,1726.51h-7.95c-41.55-8.08-188.6-39.85-187.36-84.87
			C861.4,1592.98,1031.11,1709.6,1055.35,1726.51z"/>
		<path style="fill:#CDE0FB;" d="M1119.5,1726.51h-30.24c-76.39-49.89-190.76-135.54-181.84-196.17
			c13.29-90.43,90.21,26.31,115.25,72.11C1038.27,1630.95,1085.83,1687.73,1119.5,1726.51z"/>
	</g>
	<g>
		<path style="fill:#CDE0FB;" d="M478.83,957.11l-44.92,60.29c-0.66,0.89-1.46,1.62-2.33,2.2c-3.17,2.11-7.46,2.11-10.69-0.3
			l-104.71-78.01c-3.24-2.42-4.45-6.55-3.32-10.2c0.3-0.99,0.78-1.94,1.43-2.81l44.9-60.27c3.07-4.12,8.89-4.97,13.01-1.91
			l104.71,78.01C481.02,947.18,481.88,952.99,478.83,957.11z"/>
		<g>
			<path style="fill:#BED7FB;" d="M431.58,1019.6c-3.17,2.11-7.46,2.11-10.69-0.3l-104.71-78.01c-3.24-2.42-4.45-6.55-3.32-10.2
				l85.09,15.5L431.58,1019.6z"/>
			<path style="fill:#DFEBFD;" d="M478.83,957.11l-89.57-2.34L356.9,871.1l2.3-3.08c3.07-4.12,8.89-4.97,13.01-1.91l104.71,78.01
				C481.02,947.18,481.88,952.99,478.83,957.11z"/>
		</g>
	</g>
	<g>
		<path style="fill:#ED8537;" d="M2086.84,1303.18l51.79,285.23c0.76,4.2,0.75,8.38,0.07,12.36c-2.41,14.49-13.69,26.57-28.96,29.34
			l-495.36,89.95c-15.35,2.79-30.18-4.68-37.5-17.48c-1.98-3.45-3.41-7.29-4.16-11.41l-51.77-285.11
			c-3.54-19.51,9.37-38.16,28.84-41.69l495.36-89.95C2064.59,1270.88,2083.22,1283.72,2086.84,1303.18z"/>
		<g>
			<path style="fill:#DD6D22;" d="M2138.7,1600.77c-2.41,14.49-13.69,26.57-28.96,29.34l-495.36,89.95
				c-15.35,2.79-30.18-4.68-37.5-17.48l267.54-199.11L2138.7,1600.77z"/>
			<path style="fill:#F99746;" d="M2086.84,1303.18l-242.25,246.34l-320.99-128.87l-2.65-14.59c-3.54-19.51,9.37-38.16,28.84-41.69
				l495.36-89.95C2064.59,1270.88,2083.22,1283.72,2086.84,1303.18z"/>
		</g>
	</g>
	<path style="fill:#CDE0FB;" d="M2430.96,1649.77c11.97-6.35,27.99-37.42,1.51-85.07c-26.49-47.64-108.71-10.32-108.71-10.32
		s-36.38,103.86-52.88,110.21c-16.49,6.34,13.76-94.88,13.76-94.88c-33.77,4.98-107.81,66.23-107.81,66.23s18.79,62.11,18.97,90.82
		h166.88l60,0.19c8.51-23.31,11.65-45.27,11.65-45.27c-28.48,17.22-88.01,13.91-92.79,3.79
		C2336.79,1675.36,2418.97,1656.13,2430.96,1649.77z M2117.39,1710.51c-1.81,5.71-2.87,11.13-3.28,16.24h65.13
		c-8.76-25.97-11.74-78.35-11.74-78.35C2137.96,1665.9,2117.39,1710.51,2117.39,1710.51z"/>
	<path style="fill:#2E3552;" d="M2929.01,1733.42H258.81c-2.24,0-4.08-1.83-4.08-4.08v-4.67c0-2.24,1.84-4.08,4.08-4.08h2670.2
		c2.24,0,4.08,1.83,4.08,4.08v4.67C2933.09,1731.58,2931.25,1733.42,2929.01,1733.42z"/>
	<path style="fill:#2B478B;" d="M1812.41,1502.63c2.5-9.18,6.56-15.34,15.16-15.44c12.93-0.14,17.45,7.25,19.61,15.58
		c2.92,11.26-8.83,15.4-17.38,16.27C1817.55,1520.29,1810.14,1510.93,1812.41,1502.63z"/>
</g>
</svg>
