<?xml version="1.0" encoding="utf-8"?>
<!-- Generator: Adobe Illustrator 24.2.1, SVG Export Plug-In . SVG Version: 6.00 Build 0)  -->
<svg version="1.1" id="Layer_1" xmlns="http://www.w3.org/2000/svg" xmlns:xlink="http://www.w3.org/1999/xlink" x="0px" y="0px"
	 viewBox="0 0 329 226" style="enable-background:new 0 0 329 226;" xml:space="preserve">
<style type="text/css">
	.st0{fill:#CCF2FF;}
	.st1{opacity:0.48;fill:#ADE4F2;}
	.st2{fill:#379CF7;}
	.st3{fill:#092B96;}
	.st4{fill:#1574BC;}
	.st5{fill:#1D88D8;}
	.st6{opacity:5.000000e-02;fill:#FFFFFF;}
	.st7{fill:url(#SVGID_1_);}
	.st8{fill:url(#SVGID_2_);}
	.st9{fill:#2B56E0;}
	.st10{fill:#7DC4F9;}
	.st11{opacity:0.39;fill:#092B96;}
	.st12{fill:#FFFFFF;}
	.st13{fill:#D8E8EF;}
	.st14{fill-rule:evenodd;clip-rule:evenodd;fill:#379CF7;}
	.st15{fill-rule:evenodd;clip-rule:evenodd;fill:#092B96;}
	.st16{fill-rule:evenodd;clip-rule:evenodd;fill:#FFA683;}
	.st17{fill-rule:evenodd;clip-rule:evenodd;fill:#EF7F5E;}
	.st18{fill:#147AC6;}
	.st19{fill:#052575;}
	.st20{fill:#173ACC;}
	.st21{fill:#FFA683;}
	.st22{fill:#09256B;}
	.st23{fill:#EF7F5E;}
	.st24{fill:#63B8F7;}
	.st25{fill:#ABD0DD;}
	.st26{fill:#FF9E34;}
	.st27{fill:#2B3341;}
	.st28{fill:#FF7131;}
	.st29{display:none;}
	.st30{display:inline;fill:#FF9E34;}
	.st31{display:inline;fill:#FFFFFF;}
	.st32{fill:#FCB236;}
	.st33{fill:none;stroke:#FF9E34;stroke-width:3;stroke-linecap:round;stroke-miterlimit:10;stroke-dasharray:2,8;}
	.st34{opacity:0.4;fill:#092B96;}
</style>
<g>
	<path class="st0" d="M264.7,199.5h-206c-20.2,0-37.7-14.7-40.4-34.7c-0.1-0.5-0.1-0.9-0.2-1.4c-0.9-8.7,0.9-17.3,7.9-23.9
		c22.6-21.2-8.9-48.4-4.2-67.3s21.2-8,51.7-37.6c30.6-29.6,25.8-46.1,78.9-9.8c42.6,29.2,93.8-3.3,119.2,9.4
		c25.4,12.7-0.1,50.3,31,90.7c19.6,25.5,4.9,48.6-8.6,62.2c-4.4,4.5-9.8,7.9-15.6,10C274,198.8,269.4,199.5,264.7,199.5z"/>
	<path class="st1" d="M21.8,72.3c4.7-18.8,21.2-8,51.7-37.6C94.3,14.5,98.7,0.4,116.2,4.9c-14,4.9-17.9,9.3-21.8,18.4
		c-22.3,52.1,23.8,104.4-7.5,127.9c-17.3,13,18.6,31.9,51.3,48.3H58.7c-20.2,0-37.7-14.7-40.4-34.7c-0.1-0.5-0.1-0.9-0.2-1.4
		c-0.9-8.7,0.9-17.3,7.9-23.9C48.6,118.4,17,91.1,21.8,72.3z"/>
</g>
<g>
	<g>
		<g>
			<polygon class="st2" points="200,28.6 238.7,20.2 224.3,48.2 214.8,40.7 211.1,47.2 209.8,35.5 			"/>
			<polygon class="st3" points="210.9,34.9 209.8,35.5 211.1,47.2 214.8,40.7 238.7,20.2 			"/>
		</g>
		<polygon class="st4" points="219.1,44.1 211.1,47.2 214.8,40.7 		"/>
	</g>
	<g>
		<path class="st3" d="M208.4,48.6c0.3-0.3,0.7-0.7,1-1.1l-0.3-0.2c-0.3,0.4-0.6,0.7-1,1L208.4,48.6z"/>
		<path class="st3" d="M106.7,107.3c0.9-0.1,1.9-0.1,2.8-0.2l0,0.4c-0.9,0.1-1.9,0.2-2.9,0.2L106.7,107.3z M112.4,106.6
			c0.9-0.2,1.9-0.3,2.8-0.5l0.1,0.4c-0.9,0.2-1.9,0.4-2.8,0.5L112.4,106.6z M117.9,105.5c0.9-0.2,1.8-0.5,2.7-0.8l0.1,0.3
			c-0.9,0.3-1.8,0.5-2.8,0.8L117.9,105.5z M123.4,103.8c0.9-0.3,1.8-0.7,2.6-1l0.1,0.3c-0.9,0.4-1.8,0.7-2.7,1L123.4,103.8z
			 M128.6,101.6c0.9-0.4,1.7-0.8,2.5-1.3l0.2,0.3c-0.8,0.4-1.7,0.9-2.6,1.3L128.6,101.6z M133.6,98.9c0.8-0.5,1.6-1,2.4-1.5l0.2,0.3
			c-0.8,0.5-1.6,1-2.4,1.5L133.6,98.9z M138.4,95.8c0.8-0.6,1.5-1.1,2.3-1.7l0.2,0.3c-0.7,0.6-1.5,1.2-2.3,1.7L138.4,95.8z
			 M142.8,92.2c0.7-0.6,1.4-1.3,2.1-1.9l0.3,0.3c-0.7,0.7-1.4,1.3-2.1,1.9L142.8,92.2z M146.9,88.3c0.6-0.7,1.3-1.4,1.9-2.1l0.3,0.2
			c-0.6,0.7-1.3,1.4-1.9,2.1L146.9,88.3z M150.6,84c0.6-0.8,1.1-1.5,1.7-2.3l0.3,0.2c-0.5,0.8-1.1,1.6-1.7,2.3L150.6,84z
			 M153.9,79.3c0.1-0.2,0.2-0.4,0.4-0.6c0.4-0.6,0.7-1.3,1.1-1.9l0.3,0.2c-0.3,0.6-0.7,1.2-1.1,1.9c-0.1,0.2-0.2,0.4-0.4,0.6
			L153.9,79.3z M156.6,74.3c0.4-0.9,0.8-1.8,1.1-2.6l0.3,0.1c-0.3,0.9-0.7,1.8-1.1,2.6L156.6,74.3z M158.6,69
			c0.3-0.9,0.5-1.8,0.7-2.8l0.4,0.1c-0.2,0.9-0.4,1.9-0.7,2.8L158.6,69z M154.1,63.5l0.1-0.3c0.8,0.2,1.8,0.3,2.8,0.4l0,0.4
			C155.9,63.9,154.9,63.7,154.1,63.5z M159.8,63.5L159.8,63.5c-0.1-0.4,0-0.8,0-1.2c0-0.5,0-1.1-0.1-1.6l0.4,0
			c0.1,0.5,0.1,1.1,0.1,1.6c0,0.4,0,0.8,0,1.2c0.9-0.1,1.7-0.2,2.5-0.4l0.1,0.4c-0.9,0.2-1.9,0.4-2.8,0.4L159.8,63.5z M165.3,62.2
			c0.9-0.4,1.7-0.8,2.5-1.3l0.2,0.3c-0.8,0.5-1.6,1-2.6,1.3L165.3,62.2z M151.2,62.2c-0.7-0.5-1.3-1.2-1.7-2l0.3-0.2
			c0.4,0.7,1,1.4,1.6,1.9c0.1,0.1,0.1,0.1,0.2,0.1l-0.2,0.3C151.3,62.3,151.3,62.3,151.2,62.2z M169.9,59.1c0.6-0.6,1.2-1.4,1.8-2.2
			l0.3,0.2c-0.6,0.8-1.2,1.6-1.8,2.2L169.9,59.1z M157.6,55.6l0.3-0.2c0.6,0.7,1.1,1.5,1.5,2.5l-0.3,0.1
			C158.7,57,158.2,56.2,157.6,55.6z M148.7,57.4c0-0.7,0.2-1.3,0.5-1.8c0.2-0.3,0.4-0.6,0.6-0.9l0.3,0.3c-0.2,0.2-0.4,0.5-0.6,0.8
			c-0.3,0.5-0.4,1.1-0.5,1.7L148.7,57.4z M187,54.9l0-0.4c1,0.1,1.9,0.1,2.8,0.1l0,0.4C189,55,188,54.9,187,54.9z M192.7,54.5
			c1-0.1,1.9-0.2,2.8-0.3l0.1,0.4c-0.9,0.1-1.9,0.2-2.9,0.3L192.7,54.5z M173.1,54.5c0.4-0.8,0.8-1.6,1.2-2.6l0.3,0.1
			c-0.4,1-0.8,1.8-1.2,2.6L173.1,54.5z M181.9,54.3l-0.6-0.1l0.1-0.4L182,54c0.8,0.1,1.5,0.2,2.3,0.3l0,0.4
			C183.4,54.5,182.7,54.4,181.9,54.3z M152.6,53.8l-0.1-0.4c0.9-0.1,2,0,2.9,0.3l-0.1,0.3C154.4,53.8,153.4,53.7,152.6,53.8z
			 M198.3,53.6c0.9-0.2,1.8-0.5,2.7-0.9l0.1,0.3c-0.9,0.3-1.8,0.6-2.7,0.9L198.3,53.6z M175.7,53.1l0.1-0.3c0.8,0.3,1.7,0.5,2.8,0.7
			l-0.1,0.4C177.5,53.6,176.6,53.3,175.7,53.1z M170.5,50.6l0.2-0.3c0.7,0.5,1.6,1,2.4,1.4l-0.2,0.3
			C172.1,51.6,171.3,51.2,170.5,50.6z M203.6,51.6c0.8-0.4,1.7-0.9,2.4-1.5l0.2,0.3c-0.8,0.5-1.6,1.1-2.4,1.5L203.6,51.6z
			 M175.3,49.2c0.3-1,0.5-1.9,0.7-2.7l0.4,0.1c-0.2,0.9-0.4,1.8-0.7,2.8L175.3,49.2z M166.8,46.3l0.3-0.2c0.4,0.8,0.9,1.6,1.5,2.3
			l-0.3,0.2C167.8,47.9,167.2,47.1,166.8,46.3z M176,42.5c-0.1-0.5-0.2-1-0.4-1.5l0.3-0.1c0.2,0.5,0.3,1,0.4,1.6
			c0.1,0.4,0.1,0.8,0.1,1.3l-0.4,0C176.2,43.3,176.1,42.9,176,42.5z M165.8,42c0-0.5,0-0.9,0.1-1.4l0.4,0.1
			c-0.1,0.4-0.1,0.9-0.1,1.3c0,0.5,0,1,0.1,1.5l-0.4,0.1C165.8,43,165.8,42.5,165.8,42z M172.1,36.9l0.1-0.3c0.9,0.4,1.7,1,2.3,1.7
			l-0.3,0.2C173.6,37.8,172.9,37.2,172.1,36.9z M166.9,37.9c0.4-0.6,0.9-1.1,1.5-1.4c0.3-0.1,0.6-0.2,0.9-0.3l0.1,0.4
			c-0.3,0.1-0.6,0.2-0.8,0.3c-0.5,0.3-1,0.7-1.4,1.3L166.9,37.9z"/>
		<path class="st3" d="M103.3,107.7c0.2,0,0.3,0,0.5,0l0-0.4c-0.5,0-1,0-1.4,0l0,0.4C102.7,107.7,103,107.7,103.3,107.7z"/>
	</g>
</g>
<g>
	<g>
		<g>
			<path class="st5" d="M91.9,69.3c5.3,9.8,17.5,13.4,27.3,8.2c0.5-0.3,1-0.6,1.5-0.9c-9.5,4.1-20.7,0.3-25.7-8.9
				c-5-9.3-2-20.7,6.7-26.4c-0.5,0.2-1,0.5-1.6,0.8C90.2,47.3,86.6,59.5,91.9,69.3z"/>
			<path class="st2" d="M94.9,67.7c5.3,9.8,17.5,13.4,27.3,8.2c9.8-5.3,13.4-17.5,8.2-27.3c-5.3-9.8-17.5-13.4-27.3-8.2
				C93.3,45.7,89.6,57.9,94.9,67.7z M99.9,65c-3.8-7-1.2-15.8,5.9-19.6c7-3.8,15.8-1.2,19.6,5.9c3.8,7,1.2,15.8-5.9,19.6
				C112.5,74.6,103.7,72,99.9,65z"/>
			<path class="st2" d="M120.6,76.6c0.5-0.2,1.1-0.5,1.6-0.8c9.8-5.3,13.4-17.5,8.2-27.3c-5.3-9.8-17.5-13.4-27.3-8.2
				c-0.5,0.3-1,0.6-1.5,0.9c9.5-4.1,20.7-0.3,25.7,8.9C132.3,59.5,129.3,70.9,120.6,76.6z"/>
			<path class="st6" d="M106,45.3c7.1-3.7,15.8-0.9,19.5,6.2c3.7,7.1,0.9,15.8-6.2,19.5c-7.1,3.7-15.8,0.9-19.5-6.2
				C96.1,57.7,98.9,48.9,106,45.3z"/>
			
				<linearGradient id="SVGID_1_" gradientUnits="userSpaceOnUse" x1="541.4233" y1="-33.2684" x2="575.7802" y2="-65.1491" gradientTransform="matrix(-0.8802 0.4747 0.4747 0.8802 630.9324 -169.5219)">
				<stop  offset="0" style="stop-color:#FFFFFF"/>
				<stop  offset="1" style="stop-color:#FFFFFF;stop-opacity:0"/>
			</linearGradient>
			<path class="st7" d="M99.9,51.2l27.1,8.1c0.2-2.6-0.3-5.3-1.5-7.8l-20-6C103.1,46.9,101.2,48.9,99.9,51.2z"/>
			
				<linearGradient id="SVGID_2_" gradientUnits="userSpaceOnUse" x1="549.5197" y1="-24.5433" x2="583.8765" y2="-56.424" gradientTransform="matrix(-0.8802 0.4747 0.4747 0.8802 630.9324 -169.5219)">
				<stop  offset="0" style="stop-color:#FFFFFF"/>
				<stop  offset="1" style="stop-color:#FFFFFF;stop-opacity:0"/>
			</linearGradient>
			<path class="st8" d="M99.8,64.7c0.1,0.1,0.1,0.3,0.2,0.4l19.3,5.8c3.3-1.7,5.7-4.6,6.9-7.9l-27.6-8.3
				C97.8,58,98.1,61.5,99.8,64.7z"/>
		</g>
		
			<rect x="126.7" y="71.2" transform="matrix(-0.8802 0.4747 -0.4747 -0.8802 289.365 113.3844)" class="st2" width="7.3" height="44"/>
	</g>
	<g>
		<g>
			<g>
				<path class="st5" d="M37.2,66.5h1.9c0.9,0,1.7,0.6,2,1.5c0.2,0.7,0.5,1.4,0.8,2c0.4,0.8,0.3,1.8-0.4,2.4l-1.4,1.4
					c-0.6,0.6-0.6,1.5,0,2.1l2.7,2.7c0.6,0.6,1.5,0.6,2.1,0l1.4-1.4c0.6-0.6,1.6-0.8,2.4-0.4c0.6,0.3,1.3,0.6,2,0.8
					c0.9,0.3,1.5,1.1,1.5,2v1.9c0,0.8,0.7,1.5,1.5,1.5h3.8c0.8,0,1.5-0.7,1.5-1.5v-1.9c0-0.9,0.6-1.7,1.5-2c0.7-0.2,1.4-0.5,2-0.8
					c0.8-0.4,1.8-0.3,2.4,0.4l1.4,1.4c0.6,0.6,1.5,0.6,2.1,0l2.7-2.7c0.6-0.6,0.6-1.5,0-2.1l-1.4-1.4c-0.6-0.6-0.8-1.6-0.4-2.4
					c0.3-0.6,0.6-1.3,0.8-2c0.3-0.9,1.1-1.5,2-1.5h1.9c0.8,0,1.5-0.7,1.5-1.5v-3.8c0-0.8-0.7-1.5-1.5-1.5h-1.9c-0.9,0-1.7-0.6-2-1.5
					c-0.2-0.7-0.5-1.4-0.8-2c-0.4-0.8-0.3-1.8,0.4-2.4l1.4-1.4c0.6-0.6,0.6-1.5,0-2.1l-2.7-2.7c-0.6-0.6-1.5-0.6-2.1,0L65,49
					c-0.6,0.6-1.6,0.8-2.4,0.4c-0.6-0.3-1.3-0.6-2-0.8c-0.9-0.3-1.5-1.1-1.5-2v-1.9c0-0.8-0.7-1.5-1.5-1.5h-3.8
					c-0.8,0-1.5,0.7-1.5,1.5v1.9c0,0.9-0.6,1.7-1.5,2c-0.7,0.2-1.4,0.5-2,0.8C48,49.8,47,49.7,46.4,49L45,47.6
					c-0.6-0.6-1.5-0.6-2.1,0l-2.7,2.7c-0.6,0.6-0.6,1.5,0,2.1l1.4,1.4c0.6,0.6,0.8,1.6,0.4,2.4c-0.3,0.6-0.6,1.3-0.8,2
					c-0.3,0.9-1.1,1.5-2,1.5h-1.9c-0.8,0-1.5,0.7-1.5,1.5V65C35.7,65.8,36.4,66.5,37.2,66.5z M51.1,63.1c0-2.5,2.1-4.6,4.6-4.6
					s4.6,2.1,4.6,4.6c0,2.5-2.1,4.6-4.6,4.6S51.1,65.6,51.1,63.1z"/>
			</g>
			<g>
				<path class="st2" d="M17.9,89.4H19c0.5,0,1,0.3,1.1,0.8c0.1,0.4,0.3,0.8,0.5,1.1c0.2,0.5,0.2,1-0.2,1.4l-0.8,0.8
					c-0.3,0.3-0.3,0.9,0,1.2l1.5,1.5c0.3,0.3,0.9,0.3,1.2,0l0.8-0.8c0.4-0.4,0.9-0.4,1.4-0.2c0.4,0.2,0.7,0.3,1.1,0.5
					c0.5,0.2,0.8,0.6,0.8,1.1V98c0,0.5,0.4,0.8,0.8,0.8h2.1c0.5,0,0.8-0.4,0.8-0.8v-1.1c0-0.5,0.3-1,0.8-1.1
					c0.4-0.1,0.8-0.3,1.1-0.5c0.5-0.2,1-0.2,1.4,0.2l0.8,0.8c0.3,0.3,0.9,0.3,1.2,0l1.5-1.5c0.3-0.3,0.3-0.9,0-1.2l-0.8-0.8
					c-0.4-0.4-0.4-0.9-0.2-1.4c0.2-0.4,0.3-0.7,0.5-1.1c0.2-0.5,0.6-0.8,1.1-0.8h1.1c0.5,0,0.8-0.4,0.8-0.8v-2.1
					c0-0.5-0.4-0.8-0.8-0.8h-1.1c-0.5,0-1-0.3-1.1-0.8c-0.1-0.4-0.3-0.8-0.5-1.1c-0.2-0.5-0.2-1,0.2-1.4l0.8-0.8
					c0.3-0.3,0.3-0.9,0-1.2l-1.5-1.5c-0.3-0.3-0.9-0.3-1.2,0l-0.8,0.8c-0.4,0.4-0.9,0.4-1.4,0.2c-0.4-0.2-0.7-0.3-1.1-0.5
					c-0.5-0.2-0.8-0.6-0.8-1.1v-1.1c0-0.5-0.4-0.8-0.8-0.8h-2.1c-0.5,0-0.8,0.4-0.8,0.8v1.1c0,0.5-0.3,1-0.8,1.1
					c-0.4,0.1-0.8,0.3-1.1,0.5c-0.5,0.2-1,0.2-1.4-0.2l-0.8-0.8c-0.3-0.3-0.9-0.3-1.2,0l-1.5,1.5c-0.3,0.3-0.3,0.9,0,1.2l0.8,0.8
					c0.4,0.4,0.4,0.9,0.2,1.4c-0.2,0.4-0.3,0.7-0.5,1.1c-0.2,0.5-0.6,0.8-1.1,0.8h-1.1c-0.5,0-0.8,0.4-0.8,0.8v2.1
					C17.1,89.1,17.5,89.4,17.9,89.4z M23.9,87.5c0-2.5,2-4.5,4.5-4.5c2.5,0,4.5,2,4.5,4.5c0,2.5-2,4.5-4.5,4.5
					C25.9,92,23.9,90,23.9,87.5z"/>
			</g>
		</g>
		<g>
			<path class="st9" d="M10.3,65h1.1c0.5,0,1,0.3,1.1,0.8c0.1,0.4,0.3,0.8,0.5,1.1c0.2,0.5,0.2,1-0.2,1.4L12,69.1
				c-0.3,0.3-0.3,0.9,0,1.2l1.5,1.5c0.3,0.3,0.9,0.3,1.2,0l0.8-0.8c0.4-0.4,0.9-0.4,1.4-0.2c0.4,0.2,0.7,0.3,1.1,0.5
				c0.5,0.2,0.8,0.6,0.8,1.1v1.1c0,0.5,0.4,0.8,0.8,0.8h2.1c0.5,0,0.8-0.4,0.8-0.8v-1.1c0-0.5,0.3-1,0.8-1.1
				c0.4-0.1,0.8-0.3,1.1-0.5c0.5-0.2,1-0.2,1.4,0.2l0.8,0.8c0.3,0.3,0.9,0.3,1.2,0l1.5-1.5c0.3-0.3,0.3-0.9,0-1.2l-0.8-0.8
				c-0.4-0.4-0.4-0.9-0.2-1.4c0.2-0.4,0.3-0.7,0.5-1.1c0.2-0.5,0.6-0.8,1.1-0.8h1.1c0.5,0,0.8-0.4,0.8-0.8V62c0-0.5-0.4-0.8-0.8-0.8
				h-1.1c-0.5,0-1-0.3-1.1-0.8c-0.1-0.4-0.3-0.8-0.5-1.1c-0.2-0.5-0.2-1,0.2-1.4l0.8-0.8c0.3-0.3,0.3-0.9,0-1.2L28,54.4
				c-0.3-0.3-0.9-0.3-1.2,0L26,55.1c-0.4,0.4-0.9,0.4-1.4,0.2c-0.4-0.2-0.7-0.3-1.1-0.5c-0.5-0.2-0.8-0.6-0.8-1.1v-1.1
				c0-0.5-0.4-0.8-0.8-0.8h-2.1c-0.5,0-0.8,0.4-0.8,0.8v1.1c0,0.5-0.3,1-0.8,1.1c-0.4,0.1-0.8,0.3-1.1,0.5c-0.5,0.2-1,0.2-1.4-0.2
				l-0.8-0.8c-0.3-0.3-0.9-0.3-1.2,0L12,55.9c-0.3,0.3-0.3,0.9,0,1.2l0.8,0.8c0.4,0.4,0.4,0.9,0.2,1.4c-0.2,0.4-0.3,0.7-0.5,1.1
				c-0.2,0.5-0.6,0.8-1.1,0.8h-1.1c-0.5,0-0.8,0.4-0.8,0.8v2.1C9.5,64.7,9.9,65,10.3,65z M18.5,63.1c0-1.3,1-2.3,2.3-2.3
				c1.3,0,2.3,1,2.3,2.3c0,1.3-1,2.3-2.3,2.3C19.5,65.4,18.5,64.4,18.5,63.1z"/>
		</g>
	</g>
</g>
<g>
	<path class="st5" d="M255.8,132.5c0,0,21.6-28.2,67.3-25.3C323.2,107.2,298.9,136.2,255.8,132.5z"/>
	<path class="st10" d="M269,113.3c0,0-4.7-35.2,29.7-65.5C298.7,47.8,302.1,85.4,269,113.3z"/>
	<path class="st10" d="M272.4,117.8c0,0-30.4-16.5-34.7-60.9C237.7,56.9,269.3,75.8,272.4,117.8z"/>
	<g>
		<g>
			<path class="st5" d="M265.5,115.3c0,0,25.4-15.6,16.1-23.5c-6.9-5.9,6.7-13.5,1.5-16.4c-5.2-2.9-6.3-0.2-4.4-7.8
				c1.8-7.6-4.3-9.6-6.5-17.3c-2.2-7.7-13.1-4.9-12.3,6.3c0.8,11.2-2.5-0.7-6.1,4c-3.6,4.7,8.3,22.8,3.8,21.3
				c-4.5-1.5-8,1.9-6.5,7.4C254.9,102.1,265.5,115.3,265.5,115.3z"/>
			<path class="st11" d="M264.6,120.9c0,0,0.1-0.1,0.1-0.1c1.7-8.6,3.8-20,4.6-31.5l0-0.1l0.1-0.1c2.6-2.2,4.9-4.9,7.1-7.5
				c0.7-0.8,1.5-1.7,2.2-2.5c0,0,0-0.1,0-0.1c0-0.1-0.2-0.1-0.2-0.1c0,0,0,0-0.1,0c-0.7,0.8-1.4,1.6-2.2,2.5c-2,2.4-4.2,4.8-6.5,6.9
				l-0.4,0.4l0-0.5c0.3-4.9,0.4-9.8,0.3-15.2l0-0.1c0,0,0.1-0.1,0.1-0.1c0,0,0,0,0.1,0c2-3.1,3.8-6.3,5.2-9.7c0-0.1,0-0.1,0-0.1
				c-0.1,0-0.1-0.1-0.2,0c0,0,0,0-0.1,0.1c-1.3,3.1-2.9,6.1-4.7,9l-0.4,0.6l0-0.7c-0.1-5.1-0.4-10.3-0.9-16c0-0.1,0-0.1,0-0.1
				c0,0-0.1,0-0.2,0c-0.1,0-0.1,0.1-0.1,0.2c0.7,7.8,1,14.8,0.9,21.5l0,0.4l-0.3-0.2c-3.9-2.8-7.1-6.2-9.6-10.3c0,0-0.1-0.1-0.1,0
				c-0.1,0-0.1,0.1-0.1,0.1c0,0,0,0.1,0,0.1c2.6,4.2,6,7.7,10,10.6l0.1,0.1l0,0.1c0,3.8-0.2,7.2-0.4,10.6l0,0.1l0,0c0,0,0,0.1,0,0.1
				l0,0.1l0,0.1c-0.2,3-0.5,6.2-1,9.6l-0.1,0.6l-0.3-0.5c-3.1-4.5-6.4-8.8-9.9-12.9c-0.1-0.1-0.1-0.1-0.2,0c-0.1,0-0.1,0.1-0.1,0.1
				c0,0,0,0.1,0,0.1c3.7,4.3,7.2,8.9,10.4,13.6l0,0.1l0,0.1c-0.8,6.1-1.9,12.7-3.5,20.7c0,0.1,0,0.1,0,0.1
				C264.4,121,264.5,121,264.6,120.9L264.6,120.9z"/>
		</g>
	</g>
	<g>
		<g>
			<path class="st2" d="M262.1,116.3c0,0,29.2,11.2,29.8-1.5c0.5-9.5,15.5-3,14.7-9.2c-0.9-6.2-3.8-5.4,3.7-8.7
				c7.5-3.3,5.3-9.7,10.3-16.4c5-6.7-4.3-14-13.1-6.2c-8.8,7.8-1-2.5-7.2-2.5c-6.2,0-13.7,21.5-15.3,16.7c-1.6-4.8-6.7-5.5-10.3-0.7
				C266.3,99,262.1,116.3,262.1,116.3z"/>
			<path class="st11" d="M256.8,119.2c0,0,0.1,0,0.1,0c8.3-4.1,19.1-9.6,29.2-16.3l0.1-0.1l0.1,0c3.5,0.8,7.2,1,10.8,1.2
				c1.2,0.1,2.3,0.1,3.5,0.2c0.1,0,0.1,0,0.1-0.1c0-0.1,0-0.2-0.1-0.2c0,0,0,0-0.1,0c-1.1-0.1-2.3-0.2-3.4-0.2
				c-3.3-0.2-6.7-0.4-10-1l-0.5-0.1l0.5-0.3c4.3-2.8,8.5-5.9,12.9-9.4l0.1-0.1c0,0,0.1,0.1,0.1,0.1c0,0,0,0,0.1,0
				c3.9-0.3,7.7-0.9,11.4-1.9c0.1,0,0.1-0.1,0.1-0.1c0-0.1,0-0.2-0.1-0.2c0,0-0.1,0-0.1,0c-3.4,0.9-7,1.5-10.5,1.8l-0.7,0.1l0.6-0.5
				c4.1-3.3,8.3-6.9,12.8-11c0.1,0,0-0.1,0-0.1c0,0-0.1-0.1-0.1-0.1c-0.1,0-0.1,0-0.2,0c-6.1,5.5-11.7,10.3-17.3,14.5l-0.4,0.3
				l0-0.4c-0.1-5,0.7-9.9,2.4-14.5c0-0.1,0-0.1,0-0.1c-0.1,0-0.1,0-0.2,0c0,0-0.1,0.1-0.1,0.1c-1.8,4.8-2.6,9.9-2.4,15.1l0,0.1
				l-0.1,0.1c-3.2,2.4-6.1,4.5-9.1,6.5l-0.1,0l-0.1,0c-0.1,0-0.1,0-0.1,0.1l0,0.1l-0.1,0c-2.6,1.7-5.5,3.5-8.7,5.3l-0.5,0.3l0.2-0.6
				c1.8-5.4,3.3-10.9,4.4-16.5c0-0.1,0-0.1-0.1-0.2c-0.1,0-0.1,0-0.2,0c0,0,0,0-0.1,0.1c-1.2,5.8-2.8,11.6-4.7,17.3l0,0.1l-0.1,0
				c-5.6,3.2-11.8,6.5-19.5,10.3c-0.1,0-0.1,0.1-0.1,0.1C256.7,119.1,256.8,119.1,256.8,119.2L256.8,119.2z"/>
		</g>
	</g>
</g>
<path class="st12" d="M50.5,90.5h228.3c2.1,0,3.9,1.7,3.9,3.9l0.5,111.3c0,2.1-1.7,3.9-3.9,3.9l-228.8-1.9c-2.1,0-3.9-1.7-3.9-3.9
	V94.4C46.6,92.2,48.4,90.5,50.5,90.5z"/>
<path class="st13" d="M72.5,109.3h185.2c2.4,0,4.4,1.9,4.4,4.4v4.7c0,2.4-1.9,4.4-4.4,4.4H72.5c-2.4,0-4.4-1.9-4.4-4.4v-4.7
	C68.1,111.2,70.1,109.3,72.5,109.3z"/>
<path class="st2" d="M236.7,109.3h23.1c1,0,1.8,0.8,1.8,1.9v9.6c0,1-0.8,1.9-1.8,1.9h-23.1c-1,0-1.9-0.8-1.9-1.9v-9.6
	C234.8,110.1,235.7,109.3,236.7,109.3z"/>
<g>
	<path class="st14" d="M51.9,96.6h6c0.3,0,0.6,0.3,0.6,0.6l0,0c0,0.3-0.3,0.6-0.6,0.6h-6c-0.3,0-0.6-0.3-0.6-0.6l0,0
		C51.3,96.9,51.6,96.6,51.9,96.6z"/>
	<path class="st14" d="M51.9,99.5h6c0.3,0,0.6,0.3,0.6,0.6l0,0c0,0.3-0.3,0.6-0.6,0.6h-6c-0.3,0-0.6-0.3-0.6-0.6l0,0
		C51.3,99.7,51.6,99.5,51.9,99.5z"/>
	<path class="st14" d="M51.9,102.2h6c0.3,0,0.6,0.3,0.6,0.6l0,0c0,0.3-0.3,0.6-0.6,0.6h-6c-0.3,0-0.6-0.3-0.6-0.6l0,0
		C51.3,102.5,51.6,102.2,51.9,102.2z"/>
</g>
<g>
	<path class="st2" d="M268.5,99.7c0,1.5,1.2,2.6,2.6,2.6c1.5,0,2.6-1.2,2.6-2.6s-1.2-2.6-2.6-2.6C269.7,97.1,268.5,98.2,268.5,99.7z
		"/>
	<path class="st3" d="M254.2,99.7c0,1.5,1.2,2.6,2.6,2.6s2.6-1.2,2.6-2.6s-1.2-2.6-2.6-2.6S254.2,98.2,254.2,99.7z"/>
	<path class="st5" d="M239.6,99.7c0,1.5,1.2,2.6,2.6,2.6c1.5,0,2.6-1.2,2.6-2.6s-1.2-2.6-2.6-2.6C240.8,97.1,239.6,98.2,239.6,99.7z
		"/>
</g>
<path class="st0" d="M24.5,212.6c0-3.6,60.2-6.5,134.4-6.5c74.2,0,134.4,2.9,134.4,6.5c0,3.6-60.2,6.5-134.4,6.5
	C84.6,219.1,24.5,216.2,24.5,212.6z"/>
<g>
	<path class="st15" d="M177.7,70.2c0.3-1.8,1.2-5.7,4.6-4.4c6.5-2.5,9.5,0.7,9.9,4.9c0.6,5.3,3.6,7.5,2.5,9
		c-1.4,1.9-5.7,4.7-10.1,4.8c-4.6,0.1-8.7-3.6-9.9-5.7C173.7,77.3,176.9,75.6,177.7,70.2z"/>
	<g>
		<path class="st14" d="M155.5,96.8c2.3-4.3,11.6-13.9,12.6-14.3c2.9-1,7.4-1.4,10.1-1.6c1.8-0.3,6.7-0.2,6.7-0.2l2,0
			c2.5,0,9.6,0.3,14.6,2c1,0.3,10.6,9.9,12.9,14.1c0.6,1,0.6,2.2,0.1,3.3l-10,20.1l-5-1.1l4-17.4c0.3-1.3-0.1-2.7-1.1-3.6l-6.4-7.5
			h-9H174l-6.4,7.5c-1,0.9-1.4,2.3-1.1,3.6l4,17.4l-5.1,0.7l-10-19.8C154.9,99.1,154.9,97.8,155.5,96.8z"/>
		<path class="st16" d="M199.9,119.3l-2.2,1.9c-0.3,0.2-0.1,0.7,0.2,0.8l0.9,0.1l-0.6,1.6c-0.6,1.7,2.9,4.3,4.3,0.9l1.5-4.4
			L199.9,119.3z"/>
		<path class="st16" d="M169.8,119.2l2.2,1.9c0.3,0.2,0.1,0.7-0.2,0.8l-0.9,0.1l0.6,1.6c0.6,1.7-2.9,4.3-4.3,0.9l-1.6-4.7
			L169.8,119.2z"/>
	</g>
	<g>
		<g>
			<path class="st16" d="M179.2,72.6l-0.1,4.1c0,1.5,0.6,3,1.6,4c0.2,0.2,0.4,0.3,0.5,0.5c1.9,1.8,4.8,1.9,6.7,0.1l0.5-0.5
				c1.1-1,1.8-2.4,1.8-3.9l0.1-4.1c0,0-5.7-0.1-7.9-2.8C182.6,70,181.5,72.1,179.2,72.6z"/>
			<path class="st16" d="M179.2,72.6l-0.1,4.1c0,1.5,0.6,3,1.6,4c0.2,0.2,0.4,0.3,0.5,0.5c1.9,1.8,4.8,1.9,6.7,0.1l0.5-0.5
				c1.1-1,1.8-2.4,1.8-3.9l0.1-4.1c0,0-5.7-0.1-7.8-2.8C182.6,70,181.5,72.1,179.2,72.6z"/>
			<path class="st16" d="M189,77.6c-1.1-1.8,0.8-3.6,2.5-2.4c0.1,0.1,0.3,0.2,0.3,0.3c1.1,1.8-0.8,3.6-2.5,2.4
				C189.2,77.9,189,77.8,189,77.6z"/>
			<path class="st16" d="M177.8,77.4c-1-1.7,0.7-3.5,2.4-2.5c0.2,0.1,0.4,0.3,0.5,0.5c0.9,1.7-0.9,3.4-2.6,2.3
				C178,77.7,177.8,77.5,177.8,77.4z"/>
		</g>
	</g>
	<path class="st16" d="M181.5,81.6c0-1.8,1.4-3.2,3.2-3.2c1.8,0,3.2,1.4,3.2,3.2c0,1.8-1.4,3.6-3.2,3.6
		C182.9,85.2,181.5,83.3,181.5,81.6z"/>
	<path class="st17" d="M187.9,81.4c0,0.1,0,0.1,0,0.1c0,0.1-1.7,1.8-3.3,1.8c-1.6,0-3.1-1.7-3.1-1.8c0-0.1,0-0.1,0-0.2
		C183.4,82.9,186,83,187.9,81.4z"/>
	<path class="st5" d="M199.4,119.2l4-17.4c0.3-1.3-0.1-2.7-1.1-3.6l-6.4-7.5c0,0-1.4-2.4-0.7-2.1c0.7,0.3,10.1,8.4,11,10.4
		c0.7,1.5-3.1,14.5-4.9,20.6L199.4,119.2z"/>
	<path class="st5" d="M168.1,82.5c0.2-0.1,0.3-0.1,0.5-0.2c-1.8,2.1-12.9,15.3-11.7,18c1.1,2.5,8,15,10.1,19.2l-1.7,0.2l-10-19.8
		c-0.5-1-0.4-2.3,0.1-3.3C157.8,92.6,167,82.9,168.1,82.5z"/>
</g>
<g>
	<path class="st12" d="M241,122.4c0.1,0.1,0.3,0.2,0.5,0.2c0.2,0,0.4,0,0.5-0.2l5.5-4.5c0.1-0.1,0.3-0.1,0.5-0.1
		c0.1,0,0.1,0,0.2,0.1c1.6,1.2,4,1.2,5.6-0.2c1.7-1.5,2.1-4,1-5.8c-0.2-0.3-0.5-0.7-0.8-1c-1.5-1.5-4-1.7-5.7-0.5
		c-1.9,1.3-2.5,3.8-1.5,5.8c0.1,0.2,0.1,0.5-0.1,0.6l-5.5,4.5C240.8,121.7,240.8,122.1,241,122.4z M248.6,111.7
		c1.4-1.2,3.5-1,4.7,0.4c1.2,1.4,1,3.5-0.4,4.7c-1.4,1.2-3.5,1-4.7-0.4C247,115,247.2,112.9,248.6,111.7z"/>
	<path class="st2" d="M248.6,111.7c1.4-1.2,3.5-1,4.7,0.4c1.2,1.4,1,3.5-0.4,4.7c-1.4,1.2-3.5,1-4.7-0.4
		C247,115,247.2,112.9,248.6,111.7z"/>
</g>
<path class="st2" d="M286.9,162.7c-0.8-8.4-2-17.5-3.6-19.9c-0.8-1.2-1.5-2.1-2.4-2.6c0,0,0,0,0,0s7.6,4.9,10.8,12.4
	C293.2,156.2,290.3,159.8,286.9,162.7z"/>
<path class="st18" d="M283.3,141.9c-1.4-1.1-2.4-1.7-2.4-1.7s0,0,0,0c0.9,0.6,1.6,1.4,2.4,2.6c1.6,2.4,2.8,11.5,3.6,19.9
	c0.8-0.7,1.6-1.4,2.4-2.2C288.9,155.4,287.6,146.5,283.3,141.9z"/>
<g>
	<g>
		<g>
			<path class="st3" d="M281.7,170.9l-0.7,1.9l-10.3-1c0,0-11.3,14.4-16,19.3c-0.5,0.5-1,1.1-1.6,1.8c-3-7.2-9-30-2.9-31.8
				C259.3,158.4,281.7,170.9,281.7,170.9z"/>
			<path class="st19" d="M261.1,183.7c-2.4,2.9-4.8,5.7-6.4,7.4c-0.5,0.5-1,1.1-1.6,1.8c-1.9-4.5-4.9-15-5.5-22.8
				C249.7,170.4,256.6,178.3,261.1,183.7z"/>
		</g>
		<g>
			<path class="st20" d="M270.7,171.8c0,0-11.3,14.4-16,19.3c-4.7,4.9-15.4,19.4,13.4,18.3c28.8-1.1,41.9-5.5,41.9-5.5l0.6-6.3
				l-30.1-3.2c0,0,18.8-2.2,16.5-19.9L270.7,171.8z"/>
			<path class="st9" d="M270.2,174l-0.5-0.9c-2.9,3.7-11.1,14-14.9,18c-1.8,1.9-4.6,5.3-5.6,8.7c2.2-5.1,9-9.9,14.8-15.5
				C271.4,177,270.2,174,270.2,174z"/>
			<path class="st3" d="M315.8,198.9c0,0,0.1,0,0.3,0c1,0.1,3.9,0.2,4.5,1.5c0.7,1.5,0.9,8.9-3.9,9.1c-4.8,0.2,0.9-3.6-0.8-5.2
				L315.8,198.9z"/>
			<path class="st3" d="M310.6,197.6l-30.1-3.2c0,0-3.3,1.4-13.4,5.4c-6.1,2.4-12.5,4.9-16.1,6.5c2.6,2.1,7.8,3.4,17.1,3
				c28.8-1.1,41.9-5.5,41.9-5.5L310.6,197.6z"/>
			<path class="st21" d="M310,203.9c0,0,3.6-1.5,5.6,0.5c2.8,2.9,0.2-5.5,0.2-5.5l-5.2-1.3L310,203.9z"/>
		</g>
		<path class="st21" d="M246.6,119.6c0.8-0.1,1.6,0.5,2.4,1.3c0.2-0.7,0.6-1.8,1-2c0.6-0.3,1.3,4.8,1.3,4.8l-0.4-0.4
			c0.1,0.1,0.1,0.2,0.1,0.2l-4.3,2.2C244.1,121.9,244.7,119.8,246.6,119.6z"/>
		<g>
			<path class="st21" d="M275.3,134.4l0.3-3.5c-1.1-0.2-2.1-0.7-2.9-1.5c-2.1-2.2-2.1-6.4-0.2-8.8c1.8,0.5,4.1,0.2,4.1,1.1
				c0.1,1.6,0.3,2.8,0.3,2.8c1.5-0.9,3-0.8,2.8,1.2c-0.1,0.8-0.6,2.1-1.2,2.2c0,0-0.4,3.4,2.9,4.7c0,0,0,0,0,0l0,1.2L275.3,134.4z"
				/>
			<path class="st3" d="M287.2,122.7c-1.5-6-3.8-9.4-10.2-9.5c-5.8-0.1-6.6,4.7-6.6,4.7c0.2,4.2,6.1,2.2,6.3,3.8
				c0.1,1.6,0.3,2.8,0.3,2.8c1.5-0.9,3-0.8,2.8,1.2c-0.1,0.8-0.6,2.1-1.2,2.2c0,0-0.4,3.4,2.9,4.7
				C281.4,132.5,288.6,128.7,287.2,122.7z"/>
			<path class="st22" d="M287.2,122.7c-1.5-6-3.8-9.4-10.2-9.5c-3.9-0.1-5.5,2-6.2,3.4c2.8-2.7,9.1-4.3,13,1.9
				c3.4,5.4,1.2,12-5,11.2c0.3,1,1,2.1,2.6,2.7C281.4,132.5,288.6,128.7,287.2,122.7z"/>
			<path class="st23" d="M276.9,132c0.5-0.3,1.2-2.1,1.2-2.1c-0.7,0.8-2.5,1-2.5,1l-0.3,3.5l1.4-0.1
				C276.7,133.1,276.7,132.2,276.9,132z"/>
		</g>
		<path class="st2" d="M298.3,175.2c0,0-1.8-32.7-5.1-37.8c-1.4-2.1-2.5-3.2-4.6-3.6c-1.3-0.3-5.9-0.4-7.2-0.3
			c-2.8,0.3-10,1.2-11.7,1.9c-2.4,1-11.8,9.2-11.8,9.2l-6.4-21.7l-5.2,2c0,0,5.1,31.7,9.2,31.8c4.1,0.1,14.6-5.8,14.6-5.8
			s0.8,19.9-3.1,23.6C267,174.5,283.3,182.1,298.3,175.2z"/>
	</g>
	<path class="st24" d="M275.9,148.5c0.6-1.1-5.9,2.4-5.9,2.4s0.8,19.9-3.1,23.6c0,0,1.1,0.5,3.1,1.2c2.2-6.7,1.7-15.7,2.1-18.8
		C272.7,152.6,275.4,149.6,275.9,148.5z"/>
</g>
<g>
	<g>
		<g>
			<path class="st2" d="M13,155c0.4,2.3,7.9,15.5,12.6,24.4c3.6,6.9,2.9,13.5,2.3,16h-0.9c0.5-3.1,0.7-2.6,0-7.4
				c-0.8-5.2-9-8.9-14.2-19C7.7,159,12.6,152.8,13,155z"/>
			<path class="st2" d="M30.3,190c-0.3,2.5-0.5,4.2-0.6,5.4h-0.5c-0.2-4.3-0.4-11.6-0.2-16.5c0.3-7.2-1.7-10.2-2.9-22.4
				c-1.1-12.2,2-29.4,2-29.4s7.6,15.5,4.9,32.7C30.5,177,31.4,179,30.3,190z"/>
			<path class="st2" d="M32.4,187.6c-0.1,2.7-0.5,6.1-0.8,7.9h-0.5c0.1-1.3,0.2-3.6,0.3-7.7c0.3-12.5,1.6-12.3,3.7-20.7
				c2.2-8.4,5.6-11.8,9.3-16c0,0,3.7,6-1.5,14.9c-5.3,8.9-7.3,9.5-8.6,13.9C33,184.3,32.5,183.7,32.4,187.6z"/>
			<path class="st2" d="M33.7,195.4h-0.5c-0.3-1.7-0.3-4.3,1.1-6.6c2.4-4.1,4.3-9.4,8-13c5.1-4.8,8.6-16.9,8.6-16.9
				s2.7,10.7-2.5,19.2c-5.1,8.5-9.4,10.1-11.7,11.5C34.1,191.2,33.6,193.6,33.7,195.4z"/>
		</g>
		<path class="st5" d="M29.7,195.4L29.7,195.4l-0.5-1.7c-0.1-4.3-0.3-10.5-0.2-14.9c0.3-7.2-1.7-10.2-2.9-22.4
			c-1.1-12.2,2-29.4,2-29.4s2.9,24,2.1,35.1C29.6,172.4,29.7,192.5,29.7,195.4z"/>
		<path class="st5" d="M12.8,154.6c-0.1,3.2,0.2,14.3,6.7,20.1c7.5,6.8,9.9,14.3,7.7,20.7h-0.1c0.5-3.1,0.7-2.6,0-7.4
			c-0.8-5.2-9-8.9-14.2-19C8.3,160.2,11.7,154.2,12.8,154.6z"/>
		<path class="st5" d="M31.4,195.4h-0.3c0.1-1.3,0.2-3.6,0.3-7.7c0.3-12.5,1.6-12.3,3.7-20.7c2.2-8.4,5.6-11.8,9.3-16
			c0,0,0.2,8.3-5.2,16.3c-5.4,8-6.9,13.9-7,16.1C32,185.2,31.6,192.8,31.4,195.4z"/>
		<path class="st5" d="M33.5,195.4h-0.4c-0.3-1.7-0.3-4.3,1.1-6.6c2.4-4.1,4.3-9.4,8-13c5.1-4.8,8.6-16.9,8.6-16.9
			s-0.2,13.7-4.1,17.7c-4,4-3.9,2.8-7,6.8c-3.1,3.9-4,5-5.2,7.5C33.7,192.4,33.5,194.3,33.5,195.4z"/>
	</g>
	<path class="st13" d="M23.7,193.2h14c1.4,0,2.5,1.3,2.2,2.7l-2.7,14.3c-0.2,1.1-1.1,1.8-2.2,1.8h-8.5c-1.1,0-2-0.8-2.2-1.8
		l-2.7-14.3C21.2,194.5,22.3,193.2,23.7,193.2z"/>
	<path class="st25" d="M21.5,195c0.2-1,1.1-1.7,2.2-1.7h14c1.1,0,2,0.8,2.2,1.7H21.5z"/>
	<path class="st25" d="M23.7,193.2h3.1c-1.4,0-2.5,1.3-2.2,2.7l2.7,14.3c0.2,1.1,1.1,1.8,2.2,1.8h-3.1c-1.1,0-2-0.8-2.2-1.8
		l-2.7-14.3C21.2,194.5,22.3,193.2,23.7,193.2z"/>
</g>
<g>
	<g>
		<path class="st26" d="M81,126.2h7.7c1.5,0,2.9,0.2,4.2,0.7c1.3,0.5,2.4,1.2,3.3,2.1c0.9,0.9,1.6,1.9,2.1,3.1
			c0.5,1.2,0.8,2.5,0.8,3.9v0.1c0,1.4-0.3,2.7-0.8,3.9c-0.5,1.2-1.2,2.2-2.1,3.1c-0.9,0.9-2,1.6-3.3,2.1c-1.3,0.5-2.7,0.8-4.2,0.8
			H81V126.2z M88.6,141.9c0.9,0,1.7-0.1,2.4-0.4c0.7-0.3,1.3-0.7,1.9-1.2c0.5-0.5,0.9-1.1,1.2-1.8c0.3-0.7,0.4-1.5,0.4-2.4V136
			c0-0.9-0.1-1.7-0.4-2.4c-0.3-0.7-0.7-1.4-1.2-1.9c-0.5-0.5-1.1-0.9-1.9-1.2c-0.7-0.3-1.5-0.4-2.4-0.4h-3.3v11.8H88.6z"/>
		<path class="st26" d="M134.2,146.2c-1.4,0-2.8-0.3-4-0.8c-1.2-0.5-2.3-1.2-3.2-2.1c-0.9-0.9-1.6-2-2.1-3.2c-0.5-1.2-0.8-2.6-0.8-4
			V136c0-1.4,0.3-2.7,0.8-3.9c0.5-1.2,1.2-2.3,2.1-3.2c0.9-0.9,2-1.7,3.2-2.2c1.3-0.5,2.6-0.8,4.1-0.8c0.9,0,1.8,0.1,2.5,0.2
			c0.8,0.1,1.4,0.4,2.1,0.6c0.6,0.3,1.2,0.6,1.7,1c0.5,0.4,1,0.8,1.5,1.2l-2.7,3.2c-0.8-0.7-1.5-1.2-2.3-1.6
			c-0.8-0.4-1.7-0.6-2.7-0.6c-0.8,0-1.6,0.2-2.3,0.5c-0.7,0.3-1.3,0.8-1.8,1.3c-0.5,0.6-0.9,1.2-1.2,1.9c-0.3,0.7-0.4,1.5-0.4,2.4
			v0.1c0,0.8,0.1,1.6,0.4,2.4c0.3,0.7,0.7,1.4,1.2,2c0.5,0.6,1.1,1,1.8,1.3s1.5,0.5,2.3,0.5c1.1,0,2.1-0.2,2.8-0.6
			c0.8-0.4,1.5-1,2.3-1.7l2.7,2.8c-0.5,0.5-1,1-1.6,1.5c-0.5,0.4-1.1,0.8-1.8,1.1c-0.6,0.3-1.4,0.5-2.1,0.7
			C136,146.1,135.2,146.2,134.2,146.2z"/>
		<path class="st26" d="M153.9,146.1c-2.6,0-4.7-0.7-6.2-2.2c-1.5-1.5-2.3-3.6-2.3-6.5v-11.2h4.3v11.1c0,1.6,0.4,2.8,1.1,3.6
			c0.7,0.8,1.8,1.2,3.1,1.2c1.3,0,2.4-0.4,3.1-1.2c0.7-0.8,1.1-2,1.1-3.5v-11.2h4.3v11.1c0,1.5-0.2,2.8-0.6,3.9
			c-0.4,1.1-1,2-1.7,2.8c-0.7,0.7-1.7,1.3-2.7,1.7C156.4,146,155.2,146.1,153.9,146.1z"/>
		<path class="st26" d="M166.9,126.2h4.7l5.2,8.3l5.2-8.3h4.7v19.6h-4.3V133l-5.5,8.4h-0.1l-5.5-8.3v12.7h-4.3V126.2z"/>
		<path class="st26" d="M191.2,126.2H206v3.8h-10.5v4h9.2v3.8h-9.2v4.1h10.6v3.8h-14.9V126.2z"/>
		<path class="st26" d="M210,126.2h4l9.2,12.1v-12.1h4.3v19.6h-3.7l-9.5-12.5v12.5H210V126.2z"/>
		<path class="st26" d="M236.7,130.2h-6v-4H247v4h-6v15.6h-4.3V130.2z"/>
	</g>
	<g>
		<path class="st27" d="M88,195.7c-1.5,0-3-0.3-4.4-0.8c-1.4-0.5-2.7-1.3-3.9-2.4l2.6-3.1c0.9,0.7,1.8,1.3,2.8,1.7
			c0.9,0.4,2,0.6,3.1,0.6c0.9,0,1.6-0.2,2.1-0.5c0.5-0.3,0.7-0.8,0.7-1.4V190c0-0.3-0.1-0.5-0.2-0.7c-0.1-0.2-0.3-0.4-0.6-0.6
			c-0.3-0.2-0.7-0.4-1.2-0.6c-0.5-0.2-1.2-0.4-2-0.6c-1-0.2-1.9-0.5-2.7-0.8c-0.8-0.3-1.5-0.7-2.1-1.1c-0.6-0.4-1-1-1.3-1.6
			c-0.3-0.7-0.5-1.5-0.5-2.4v-0.1c0-0.9,0.2-1.7,0.5-2.4c0.3-0.7,0.8-1.3,1.4-1.9c0.6-0.5,1.3-0.9,2.2-1.2c0.8-0.3,1.8-0.4,2.8-0.4
			c1.4,0,2.8,0.2,4,0.6c1.2,0.4,2.3,1,3.3,1.8l-2.2,3.3c-0.9-0.6-1.7-1.1-2.6-1.4c-0.8-0.3-1.7-0.5-2.5-0.5c-0.8,0-1.5,0.2-1.9,0.5
			c-0.4,0.3-0.6,0.7-0.6,1.2v0.1c0,0.3,0.1,0.6,0.2,0.8c0.1,0.2,0.3,0.4,0.7,0.6c0.3,0.2,0.8,0.4,1.3,0.5c0.6,0.2,1.3,0.4,2.1,0.6
			c1,0.3,1.9,0.6,2.7,0.9c0.8,0.3,1.4,0.7,2,1.2c0.5,0.5,0.9,1,1.2,1.6c0.3,0.6,0.4,1.4,0.4,2.2v0.1c0,1-0.2,1.8-0.5,2.6
			c-0.4,0.8-0.8,1.4-1.5,1.9c-0.6,0.5-1.4,0.9-2.3,1.2C90,195.6,89.1,195.7,88,195.7z"/>
		<path class="st27" d="M104.5,187.7l-7.5-11.9h5l4.7,7.9l4.8-7.9h4.9l-7.5,11.8v7.8h-4.3V187.7z"/>
		<path class="st27" d="M126,195.7c-1.5,0-3-0.3-4.4-0.8c-1.4-0.5-2.7-1.3-3.9-2.4l2.6-3.1c0.9,0.7,1.8,1.3,2.8,1.7
			c0.9,0.4,2,0.6,3.1,0.6c0.9,0,1.6-0.2,2.1-0.5c0.5-0.3,0.7-0.8,0.7-1.4V190c0-0.3-0.1-0.5-0.2-0.7c-0.1-0.2-0.3-0.4-0.6-0.6
			c-0.3-0.2-0.7-0.4-1.2-0.6c-0.5-0.2-1.2-0.4-2-0.6c-1-0.2-1.9-0.5-2.7-0.8c-0.8-0.3-1.5-0.7-2.1-1.1c-0.6-0.4-1-1-1.3-1.6
			c-0.3-0.7-0.5-1.5-0.5-2.4v-0.1c0-0.9,0.2-1.7,0.5-2.4c0.3-0.7,0.8-1.3,1.4-1.9c0.6-0.5,1.3-0.9,2.2-1.2c0.8-0.3,1.8-0.4,2.8-0.4
			c1.4,0,2.8,0.2,4,0.6c1.2,0.4,2.3,1,3.3,1.8l-2.2,3.3c-0.9-0.6-1.7-1.1-2.6-1.4c-0.8-0.3-1.7-0.5-2.5-0.5c-0.8,0-1.5,0.2-1.9,0.5
			c-0.4,0.3-0.6,0.7-0.6,1.2v0.1c0,0.3,0.1,0.6,0.2,0.8c0.1,0.2,0.3,0.4,0.7,0.6c0.3,0.2,0.8,0.4,1.3,0.5c0.6,0.2,1.3,0.4,2.1,0.6
			c1,0.3,1.9,0.6,2.7,0.9c0.8,0.3,1.4,0.7,2,1.2c0.5,0.5,0.9,1,1.2,1.6c0.3,0.6,0.4,1.4,0.4,2.2v0.1c0,1-0.2,1.8-0.5,2.6
			c-0.4,0.8-0.8,1.4-1.5,1.9c-0.6,0.5-1.4,0.9-2.3,1.2C128,195.6,127.1,195.7,126,195.7z"/>
		<path class="st27" d="M141.5,179.8h-6v-4h16.3v4h-6v15.6h-4.3V179.8z"/>
		<path class="st27" d="M155.1,175.8h14.8v3.8h-10.5v4h9.2v3.8h-9.2v4.1H170v3.8h-14.9V175.8z"/>
		<path class="st27" d="M173.9,175.8h4.7l5.2,8.3l5.2-8.3h4.7v19.6h-4.3v-12.8l-5.5,8.4h-0.1l-5.5-8.3v12.7h-4.3V175.8z"/>
	</g>
	<g>
		<g>
			<path class="st27" d="M85.6,154.1h-6v-4h16.3v4h-6v15.6h-4.3V154.1z"/>
			<path class="st27" d="M99.2,150.1h9c2.5,0,4.4,0.7,5.7,2c1.1,1.1,1.7,2.6,1.7,4.5v0.1c0,1.6-0.4,2.9-1.2,3.9
				c-0.8,1-1.8,1.7-3,2.2l4.8,7h-5l-4.2-6.3h-0.1h-3.3v6.3h-4.3V150.1z M107.8,159.6c1.1,0,1.9-0.3,2.5-0.8c0.6-0.5,0.9-1.2,0.9-2
				v-0.1c0-0.9-0.3-1.6-0.9-2.1c-0.6-0.5-1.4-0.7-2.5-0.7h-4.3v5.6H107.8z"/>
			<path class="st27" d="M126.1,150h4l8.4,19.8H134l-1.8-4.4h-8.3l-1.8,4.4h-4.4L126.1,150z M130.7,161.5l-2.6-6.4l-2.6,6.4H130.7z"
				/>
			<path class="st27" d="M150.8,170.1c-1.4,0-2.8-0.3-4-0.8c-1.2-0.5-2.3-1.2-3.2-2.1c-0.9-0.9-1.6-2-2.1-3.2
				c-0.5-1.2-0.8-2.6-0.8-4v-0.1c0-1.4,0.3-2.7,0.8-3.9c0.5-1.2,1.2-2.3,2.1-3.2c0.9-0.9,2-1.7,3.2-2.2c1.3-0.5,2.6-0.8,4.1-0.8
				c0.9,0,1.8,0.1,2.5,0.2c0.8,0.1,1.4,0.4,2.1,0.6c0.6,0.3,1.2,0.6,1.7,1c0.5,0.4,1,0.8,1.5,1.2l-2.7,3.2c-0.8-0.7-1.5-1.2-2.3-1.6
				c-0.8-0.4-1.7-0.6-2.7-0.6c-0.8,0-1.6,0.2-2.3,0.5c-0.7,0.3-1.3,0.8-1.8,1.3c-0.5,0.6-0.9,1.2-1.2,1.9c-0.3,0.7-0.4,1.5-0.4,2.4
				v0.1c0,0.8,0.1,1.6,0.4,2.4c0.3,0.7,0.7,1.4,1.2,2c0.5,0.6,1.1,1,1.8,1.3c0.7,0.3,1.5,0.5,2.3,0.5c1.1,0,2.1-0.2,2.8-0.6
				c0.8-0.4,1.5-1,2.3-1.7l2.7,2.8c-0.5,0.5-1,1-1.6,1.5c-0.5,0.4-1.1,0.8-1.8,1.1c-0.6,0.3-1.4,0.5-2.1,0.7
				C152.6,170,151.7,170.1,150.8,170.1z"/>
			<path class="st27" d="M162.2,150.1h4.3v8.6l8-8.6h5.2l-8,8.3l8.4,11.3h-5.2l-6.1-8.4l-2.3,2.4v6h-4.3V150.1z"/>
			<path class="st27" d="M182.9,150.1h4.3v19.6h-4.3V150.1z"/>
			<path class="st27" d="M192.1,150.1h4l9.2,12.1v-12.1h4.3v19.6h-3.7l-9.5-12.5v12.5h-4.3V150.1z"/>
			<path class="st27" d="M223.7,170.1c-1.5,0-2.9-0.3-4.2-0.8c-1.3-0.5-2.3-1.2-3.3-2.1c-0.9-0.9-1.6-2-2.1-3.2
				c-0.5-1.2-0.8-2.6-0.8-4v-0.1c0-1.4,0.3-2.7,0.8-3.9c0.5-1.2,1.2-2.3,2.1-3.2c0.9-0.9,2-1.7,3.3-2.2c1.3-0.5,2.6-0.8,4.1-0.8
				c0.9,0,1.7,0.1,2.4,0.2c0.7,0.1,1.4,0.3,2,0.5c0.6,0.2,1.2,0.5,1.7,0.8c0.5,0.3,1.1,0.7,1.6,1.1l-2.7,3.3
				c-0.4-0.3-0.7-0.6-1.1-0.8c-0.4-0.2-0.8-0.4-1.2-0.6c-0.4-0.2-0.8-0.3-1.3-0.4c-0.5-0.1-1-0.1-1.5-0.1c-0.8,0-1.5,0.2-2.2,0.5
				c-0.7,0.3-1.3,0.8-1.8,1.3c-0.5,0.6-0.9,1.2-1.2,1.9c-0.3,0.7-0.4,1.5-0.4,2.4v0.1c0,0.9,0.1,1.7,0.4,2.5c0.3,0.8,0.7,1.4,1.2,2
				c0.5,0.6,1.2,1,1.9,1.3c0.7,0.3,1.5,0.5,2.4,0.5c1.6,0,3-0.4,4.1-1.2v-2.8h-4.3v-3.7h8.5v8.5c-1,0.9-2.2,1.6-3.6,2.2
				C227.1,169.8,225.5,170.1,223.7,170.1z"/>
		</g>
	</g>
	<path class="st28" d="M104.6,129c-4.4,3.9-4.8,10.5-0.9,14.9c3.9,4.4,10.5,4.8,14.9,0.9c4.4-3.9,4.8-10.5,0.9-14.9
		C115.7,125.5,109,125.1,104.6,129z M117.3,143.4c-3.6,3.2-9.1,2.8-12.2-0.8c-3.2-3.6-2.8-9.1,0.8-12.2c3.6-3.2,9.1-2.8,12.2,0.8
		C121.3,134.7,120.9,140.2,117.3,143.4z"/>
	<path class="st28" d="M119.3,145.6c-0.4,0.4-0.8,0.7-1.3,1l4.3,4.9c0.4,0.5,1.3,0.4,2-0.2l0,0c0.7-0.6,0.9-1.5,0.5-1.9l-4.3-4.9
		C120.1,144.8,119.7,145.2,119.3,145.6z"/>
	<g>
		<g>
			<g>
				<path class="st26" d="M109.2,144.1c-1.9,0-3.4-1.5-3.4-3.4c0-0.8,0.5-1.4,1.1-1.6c-0.6-0.2-1-0.6-1.1-1.2c0-0.1,0-0.3,0-0.4
					l0-5.1c0-1.7,1.1-3.1,2.7-3.4c0.2,0,0.5-0.1,0.7-0.1l1.8,0c0.4-1.3,1.4-2.2,2.7-2.4l0.1,0l0.2,0h6.4l0.3,0.1
					c0.2,0,0.3,0.1,0.5,0.1c1.3,0.5,2.1,1.5,2.3,2.9l0,0.2v8.6l0,0.2c0,0.2,0,0.3-0.1,0.5c-0.4,1.5-1.7,2.6-3.3,2.6
					c-0.3,0-1.6,0-1.6,0c-0.4,1.5-1.8,2.5-3.3,2.5l-3.3,0L109.2,144.1z M107.9,139.1c0.7,0.2,1.1,0.8,1.1,1.5c0,0.2,0.1,0.3,0.2,0.3
					l3.1,0c-0.2-0.2-0.4-0.4-0.6-0.6l-1.6,0c-0.8,0-1.5-0.6-1.6-1.4c0-0.1,0-0.1,0-0.2C108.3,138.9,108.1,139,107.9,139.1z
					 M114.5,129.6c-0.2,0-0.3,0.1-0.3,0.3v8.3c0,0.2,0.1,0.2,0.2,0.3c0.1,0,0.1,0,0.2,0c0,0,5.5,0,5.5,0c0.2,0,0.3-0.1,0.3-0.3
					c0-2.8,0-5.5,0-8.3c0-0.2-0.1-0.3-0.3-0.3l-2.3,0L114.5,129.6z M109,137.5C109,137.5,109,137.4,109,137.5
					C109,137.4,109,137.4,109,137.5C109,137.4,109,137.5,109,137.5z M109,135C109,135,109,135,109,135C109,135,109,134.9,109,135
					L109,135z M109.3,132c-0.2,0-0.3,0.1-0.3,0.3v0.2c0.3-0.3,0.7-0.4,1.1-0.4l0.8,0V132h-0.8H109.3z"/>
				<path class="st12" d="M120.4,127.3c0.2,0,0.3,0.1,0.5,0.1c1,0.4,1.5,1.1,1.6,2.1c0,0.1,0,0.1,0,0.1c0,2.8,0,5.6,0,8.5
					c0,0.2,0,0.4-0.1,0.6c-0.3,1.1-1.2,1.8-2.3,1.8c-0.3,0-0.6,0-0.9,0c-0.4,0-0.9,0-1.3,0c0,0,0,0-0.1,0c0,0,0,0-0.1,0
					c0,0-0.1,0-0.1,0c0,0.3-0.1,0.5-0.1,0.7c-0.3,1-1.3,1.8-2.3,1.8c-1.1,0-2.1,0-3.2,0c-0.9,0-1.9,0-2.8,0c-1.3,0-2.4-1.1-2.4-2.4
					c0-0.4,0.2-0.6,0.6-0.7c0,0,0,0,0,0c0.3,0,0.6,0.2,0.6,0.6c0,0.7,0.6,1.2,1,1.2c0.1,0,0.1,0,0.2,0c1.2,0,2.3,0,3.5,0
					c0.8,0,1.7,0,2.5,0c0.6,0,1.2-0.5,1.2-1.1c0,0,0-0.1,0-0.1c0,0-0.1,0-0.1,0c0,0,0,0-0.1,0c-0.1,0-0.2,0-0.2,0
					c-0.2,0-0.4,0-0.6,0c-0.3,0-0.6,0-0.9,0c-0.9,0-1.7-0.4-2.2-1.2c-0.1-0.1-0.1-0.1-0.2-0.1c0,0,0,0,0,0c-0.4,0-0.7,0-1.1,0
					c-0.3,0-0.6,0-0.9,0c-0.3,0-0.5-0.2-0.6-0.5c0-0.3,0.1-0.6,0.4-0.7c0.1,0,0.2,0,0.3,0c0.6,0,1.1,0,1.7,0c0,0,0,0,0,0
					c0-0.4,0-0.8,0-1.2c0,0-0.1,0-0.1,0c0,0,0,0-0.1,0c0,0,0,0,0,0c-0.3,0-0.6,0-0.9,0c-0.2,0-0.4,0-0.7,0c-0.4,0-0.7-0.3-0.6-0.7
					c0.1-0.3,0.3-0.5,0.6-0.5c0.2,0,0.5,0,0.7,0c0.3,0,0.6,0,0.9,0c0,0,0,0,0,0c0,0,0,0,0.1,0c0,0,0.1,0,0.1,0c0-0.4,0-0.8,0-1.2
					c-0.1,0-0.1,0-0.2,0c0,0-0.1,0-0.1,0c-0.3,0-0.6,0-0.8,0c-0.2,0-0.4,0-0.6,0c-0.4,0-0.7-0.3-0.7-0.7c0.1-0.3,0.3-0.5,0.6-0.5
					c0.2,0,0.5,0,0.7,0c0.3,0,0.6,0,0.9,0c0,0,0,0,0,0c0,0,0,0,0.1,0c0,0,0.1,0,0.1,0c0-0.7,0-1.4,0-2.1c-0.1,0-0.1,0-0.2,0
					c-0.5,0-1,0-1.5,0c-0.3,0-0.6,0-1,0c-0.8,0-1.3,0.5-1.3,1.3c0,1.7,0,3.4,0,5.1c0,0.1,0,0.2,0,0.3c-0.1,0.3-0.3,0.5-0.6,0.5
					c0,0,0,0,0,0c-0.3,0-0.5-0.2-0.6-0.5c0-0.1,0-0.1,0-0.2c0-1.7,0-3.4,0-5.1c0-1.2,0.8-2.2,1.9-2.5c0.2,0,0.4-0.1,0.5-0.1
					c0.4,0,0.8,0,1.2,0c0.4,0,0.9,0,1.3,0c0.1,0,0.1,0,0.2,0c0-0.2,0-0.4,0.1-0.6c0.2-1,1-1.7,2-1.8c0,0,0.1,0,0.1,0
					C116.2,127.3,118.3,127.3,120.4,127.3 M114.5,139.4c0.1,0,0.2,0,0.3,0c0,0,0,0,0,0c1,0,2,0,2.9,0c0.8,0,1.5,0,2.3,0
					c0.8,0,1.3-0.5,1.3-1.3c0-2.8,0-5.5,0-8.3c0-0.8-0.5-1.3-1.3-1.3c-0.9,0-1.9,0-2.8,0c-0.9,0-1.8,0-2.8,0c-0.7,0-1.3,0.5-1.3,1.3
					c0,1.4,0,2.8,0,4.1c0,1.4,0,2.8,0,4.1c0,0.6,0.4,1.1,1,1.2C114.3,139.4,114.4,139.4,114.5,139.4 M120.6,125.3h-0.3h-6.2h-0.3
					l-0.2,0.1c-1.4,0.3-2.5,1.2-3.1,2.4c-0.4,0-0.8,0-1.2,0c-0.3,0-0.7,0-1,0.1c-2.1,0.5-3.5,2.2-3.5,4.4c0,1.3,0,2.7,0,4l0,1.1
					c0,0.2,0,0.4,0,0.6c0.1,0.4,0.2,0.8,0.5,1.1c-0.3,0.4-0.5,1-0.5,1.6c0,2.4,2,4.4,4.4,4.4c1,0,1.9,0,2.9,0c1.1,0,2.1,0,3.2,0
					c1.7,0,3.2-1,4-2.5c0.3,0,0.6,0,0.9,0c2,0,3.8-1.4,4.2-3.4c0-0.2,0.1-0.4,0.1-0.6l0-0.1l0-0.2v-0.2v-8.5v-0.2l0-0.2l0,0l0-0.1
					l0,0c-0.2-1.8-1.2-3.1-2.9-3.7c-0.2-0.1-0.5-0.1-0.6-0.2l-0.1,0L120.6,125.3L120.6,125.3z M115.2,130.6l2,0l2.1,0
					c0,2.3,0,4.5,0,6.8l-1.5,0l-2.6,0c0-0.7,0-1.5,0-2.2l0-1.2l0-1.2L115.2,130.6L115.2,130.6z"/>
			</g>
			<g class="st29">
				<path class="st30" d="M114.5,140.4c-0.2,0-0.4,0-0.5,0c-1.1-0.2-1.8-1.1-1.8-2.2v-8.3c0-1.3,1-2.3,2.3-2.3l5.6,0
					c1.3,0,2.3,1,2.3,2.3c0,2.8,0,5.5,0,8.3c0,1.3-1,2.3-2.3,2.3L114.5,140.4z"/>
				<path class="st31" d="M117.2,128.6c0.9,0,1.9,0,2.8,0c0.8,0,1.3,0.5,1.3,1.3c0,2.8,0,5.5,0,8.3c0,0.8-0.5,1.3-1.3,1.3
					c-0.7,0-1.5,0-2.3,0c-1,0-2,0-2.9,0c0,0,0,0,0,0c-0.1,0-0.2,0-0.3,0c-0.1,0-0.2,0-0.4,0c-0.6-0.1-1-0.6-1-1.2c0-1.4,0-2.8,0-4.1
					c0-1.4,0-2.8,0-4.1c0-0.8,0.5-1.3,1.3-1.3C115.4,128.6,116.3,128.6,117.2,128.6 M116.2,131.9c0.4,0,0.7,0,1.1,0c0,0,0,0,0,0
					c0.4,0,0.8,0,1.2,0c0.3,0,0.6,0,0.9,0c0.4,0,0.7-0.4,0.6-0.8c-0.1-0.3-0.3-0.5-0.6-0.5c-0.4,0-0.8,0-1.1,0c-0.4,0-0.9,0-1.3,0
					c0,0,0,0,0,0c-0.3,0-0.6,0-0.9,0c-0.3,0-0.6,0-0.9,0c-0.3,0-0.5,0.2-0.6,0.5c-0.1,0.3,0,0.5,0.3,0.7c0.1,0.1,0.3,0.1,0.4,0.1
					C115.5,131.9,115.8,131.9,116.2,131.9 M117,133.1c-0.3,0-0.7,0-1,0c-0.3,0-0.7,0-1,0c-0.3,0-0.5,0.2-0.6,0.4
					c-0.1,0.2,0,0.5,0.2,0.7c0.1,0.1,0.3,0.1,0.4,0.1c0.8,0,1.6,0,2.4,0c0.6,0,1.3,0,1.9,0c0.4,0,0.7-0.3,0.7-0.6
					c0-0.4-0.3-0.6-0.7-0.6c-0.3,0-0.6,0-0.9,0c-0.4,0-0.8,0-1.3,0C117.2,133.1,117.1,133.1,117,133.1 M118,136.8c0.2,0,0.3,0,0.5,0
					c0,0,0,0,0,0c0.2,0,0.4,0,0.6,0c0.1,0,0.3,0,0.4,0c0.3,0,0.5-0.2,0.5-0.5c0-0.3-0.2-0.6-0.4-0.6c-0.1,0-0.1,0-0.2,0
					c-0.4,0-0.7,0-1.1,0c-0.3,0-0.5,0-0.8,0c-0.3,0-0.6,0.2-0.6,0.5c0,0.3,0.1,0.6,0.4,0.7c0.1,0,0.2,0,0.3,0
					C117.8,136.8,117.9,136.8,118,136.8 M117.2,126.6l-2.8,0c-1.9,0-3.3,1.4-3.3,3.3l0,2.9l0,1.2l0,1.2c0,1,0,2,0,2.9
					c0,1.6,1.1,2.9,2.7,3.2c0.3,0,0.5,0.1,0.7,0.1l0.2,0l0.1,0l2.9,0l2.3,0c1.9,0,3.3-1.4,3.3-3.3c0-2.8,0-5.5,0-8.3
					c0-1.9-1.4-3.3-3.3-3.3L117.2,126.6L117.2,126.6z"/>
			</g>
			<g>
				<path class="st26" d="M115.1,132.9c-0.3,0-0.6-0.1-0.8-0.2c-0.6-0.3-1-1.1-0.8-1.8c0.2-0.7,0.8-1.2,1.5-1.2l4.4,0
					c0.8,0,1.4,0.5,1.6,1.2c0.1,0.5,0,1-0.3,1.4c-0.3,0.4-0.8,0.6-1.3,0.6l-3.2,0C115.8,132.9,115.5,132.9,115.1,132.9z"/>
				<path class="st12" d="M115.9,130.6c0.3,0,0.6,0,0.9,0c0,0,0,0,0,0c0.4,0,0.9,0,1.3,0c0.4,0,0.8,0,1.1,0c0.3,0,0.5,0.2,0.6,0.5
					c0.1,0.4-0.2,0.8-0.6,0.8c-0.3,0-0.6,0-0.9,0c-0.4,0-0.8,0-1.3,0c0,0,0,0,0,0c-0.4,0-0.7,0-1.1,0c-0.3,0-0.7,0-1,0
					c-0.1,0-0.3,0-0.4-0.1c-0.2-0.1-0.3-0.4-0.3-0.7c0.1-0.3,0.3-0.5,0.6-0.5C115.3,130.6,115.6,130.6,115.9,130.6 M115.9,128.6
					c-0.3,0-0.6,0-0.9,0c-1.2,0-2.2,0.8-2.5,2c-0.3,1.2,0.2,2.4,1.3,2.9c0.4,0.2,0.8,0.3,1.3,0.3c0.4,0,0.7,0,1.1,0l0.6,0l0.5,0
					l0.6,0l0.6,0c0.3,0,0.6,0,0.9,0c0.8,0,1.6-0.4,2.1-1c0.5-0.6,0.7-1.5,0.5-2.2c-0.3-1.2-1.3-2-2.6-2l-1.1,0l-0.7,0l-0.6,0l-0.5,0
					L115.9,128.6L115.9,128.6z"/>
			</g>
			<g>
				<path class="st26" d="M117.6,135.3c-0.8,0-1.6,0-2.5,0c-0.3,0-0.7-0.1-1-0.3c-0.6-0.4-0.8-1.1-0.6-1.8c0.2-0.6,0.8-1.1,1.5-1.1
					l4.3,0c0.9,0,1.6,0.7,1.7,1.6c0,0.4-0.1,0.8-0.4,1.2c-0.3,0.3-0.7,0.5-1.2,0.5L117.6,135.3z"/>
				<path class="st12" d="M118.5,133.1c0.3,0,0.6,0,0.9,0c0.4,0,0.7,0.2,0.7,0.6c0,0.4-0.3,0.6-0.7,0.6c-0.6,0-1.3,0-1.9,0
					c-0.8,0-1.6,0-2.4,0c-0.1,0-0.3-0.1-0.4-0.1c-0.2-0.1-0.3-0.4-0.2-0.7c0.1-0.2,0.3-0.4,0.6-0.4c0.3,0,0.6,0,1,0
					c0.4,0,0.7,0,1.1,0c0,0,0.1,0,0.1,0C117.7,133.1,118.1,133.1,118.5,133.1 M118.5,131.1l-0.7,0l-0.6,0l-0.1,0l-0.6,0l-0.6,0
					c-0.3,0-0.6,0-1,0c-1.1,0-2.1,0.7-2.5,1.8c-0.4,1.1,0,2.3,1,3c0.5,0.3,1,0.5,1.5,0.5c0.8,0,1.6,0,2.4,0l1.9,0
					c0.7,0,1.4-0.3,1.9-0.8c0.5-0.5,0.7-1.2,0.7-1.9c0-1.4-1.2-2.5-2.7-2.6L118.5,131.1L118.5,131.1z"/>
			</g>
			<g>
				<path class="st26" d="M117.6,137.8c-0.2,0-0.3,0-0.6-0.1c-0.8-0.2-1.2-1-1.1-1.8c0.1-0.8,0.8-1.4,1.6-1.4h1.9
					c0.2,0,0.3,0,0.5,0.1c0.7,0.2,1.2,1,1.1,1.7c-0.1,0.8-0.7,1.4-1.5,1.4c0,0,0,0,0,0l-1.5,0L117.6,137.8z"/>
				<path class="st12" d="M118.3,135.6c0.4,0,0.7,0,1.1,0c0.1,0,0.1,0,0.2,0c0.3,0.1,0.5,0.4,0.4,0.6c0,0.3-0.3,0.5-0.5,0.5
					c-0.1,0-0.3,0-0.4,0c-0.2,0-0.4,0-0.6,0c0,0,0,0,0,0c-0.2,0-0.3,0-0.5,0c-0.1,0-0.3,0-0.4,0c-0.1,0-0.2,0-0.3,0
					c-0.3-0.1-0.5-0.4-0.4-0.7c0-0.3,0.3-0.5,0.6-0.5C117.8,135.6,118.1,135.6,118.3,135.6 M118.3,133.6c-0.3,0-0.5,0-0.8,0
					c-1.3,0-2.4,1-2.6,2.2c-0.2,1.3,0.6,2.5,1.8,2.9c0.3,0.1,0.6,0.1,0.8,0.1c0.1,0,0.3,0,0.4,0l0.2,0l0.2,0h2v-0.2
					c0.8-0.4,1.4-1.1,1.5-2.1c0.1-1.2-0.6-2.4-1.8-2.8c-0.2-0.1-0.5-0.1-0.8-0.1l-0.2,0L118.3,133.6L118.3,133.6z"/>
			</g>
		</g>
	</g>
	<g>
		<path class="st28" d="M239.1,156.1c0-1.8,1.4-3.3,3.2-3.4c1.8-0.1,3.3,1.4,3.4,3.1c0.1,1.9-1.4,3.4-3.2,3.4
			C240.7,159.3,239.2,157.9,239.1,156.1z M244.1,155.9c0-0.9-0.8-1.7-1.7-1.7c-0.9,0-1.7,0.8-1.7,1.7c0,0.9,0.8,1.7,1.7,1.7
			C243.4,157.7,244.1,156.9,244.1,155.9z"/>
		<path class="st32" d="M249.1,155.9c-0.1-3.7-3.1-6.7-6.8-6.7c-3.7,0-6.6,3.1-6.6,6.8c0,2.2,0.7,4.3,1.6,6.3c0.2,0.4,0.6,0.6,1,0.4
			c0.5-0.2,0.6-0.6,0.4-1.1c-0.4-1.4-0.9-2.8-1.3-4.2c-0.4-1.6-0.2-3.3,0.9-4.7c1.3-1.7,3.5-2.4,5.6-1.8c2.1,0.7,3.5,2.6,3.5,4.7
			c0,1.8-0.6,3.5-1.2,5.2c-0.9,2.3-2.2,4.5-3.5,6.6c-0.3,0.5-0.4,0.5-0.7,0c-0.4-0.7-0.9-1.4-1.3-2.1c-0.3-0.5-0.7-0.7-1.1-0.4
			c-0.5,0.3-0.5,0.7-0.2,1.2c0.5,0.8,1,1.6,1.5,2.4c0.7,1.1,2.3,1.1,3,0c2-3,3.7-6.1,4.7-9.6C248.8,158,249,157,249.1,155.9z"/>
	</g>
	<g>
		<path class="st32" d="M221.5,193.7c-0.1,0.4-0.2,0.8-0.5,1.1c-0.3,0.4-0.7,0.6-1.2,0.7c-1.1,0-2.2,0-3.2,0c0-0.7,0-1.4,0-2.1
			c0-1.7,0-3.4,0-5.1c0-0.6,0-1.2-0.3-1.8c0,0,0-0.1,0-0.1c1,0.1,2-0.1,2.9,0.2c1.3,0.5,2,1.4,2.2,2.7c0,0,0,0.1,0,0.1
			C221.5,190.8,221.5,192.3,221.5,193.7z"/>
		<path class="st26" d="M209.7,195.5c-1.5,0-3.1,0-4.6,0c-0.6,0-0.8-0.2-0.8-0.8c0-2.2,0-4.4,0-6.6c0-1.7,1-3,2.6-3.3
			c0.2-0.1,0.5-0.1,0.7-0.1c1.4,0,2.7,0,4.1,0c1.6,0,2.9,1.1,3.3,2.6c0.1,0.3,0.1,0.5,0.1,0.8c0,2.2,0,4.4,0,6.6
			c0,0.5-0.3,0.8-0.8,0.8C212.9,195.5,211.3,195.5,209.7,195.5z"/>
		<path class="st26" d="M209.8,183.8c-2.2,0-4.1-1.8-4.1-4.1c0-2.2,1.8-4,4.1-4c2.2,0,4.1,1.8,4,4
			C213.8,181.9,212,183.8,209.8,183.8z"/>
		<path class="st32" d="M203,195.5c-0.5,0-0.9,0-1.4,0c-0.5,0-1,0-1.5,0c-1.2,0-2.1-0.9-2.1-2.1c0-1.2,0-2.3,0-3.5
			c0-2,1.4-3.4,3.4-3.5c0.6,0,1.2,0,1.8,0c0,0.1,0,0.1,0,0.2c-0.1,0.5-0.2,1-0.2,1.6c0,2.2,0,4.4,0,6.6
			C203,194.9,203,195.2,203,195.5z"/>
		<path class="st32" d="M199.6,182.5c0-1.7,1.4-3,3-3c1.7,0,3,1.3,3,3c0,1.7-1.4,3.1-3,3.1C201,185.5,199.6,184.2,199.6,182.5z"/>
		<path class="st32" d="M219.9,182.5c0,1.7-1.4,3-3.1,3c-1.7,0-3-1.4-3-3.1c0-1.7,1.4-3,3.1-3C218.6,179.5,220,180.9,219.9,182.5z"
			/>
	</g>
	<g>
		<polyline class="st33" points="225.1,191 247.5,191 247.5,181.9 230.6,181.9 230.6,174.4 244.6,174.4 		"/>
	</g>
</g>
<g>
	<g>
		<path class="st21" d="M57.1,208.9c0,0.3,0,0.5,0.1,0.8c0.1,0.9,1.1,1.4,1.3,1.6c-0.1,0-0.2,0-0.3,0.1c-1.6,0.7-2.5,0.9-4.1,0.2
			c-0.1-0.1-0.2-0.1-0.4,0c0.1-0.8,0.2-1.9,0.3-2.7H57.1z"/>
		<path class="st9" d="M53.4,214c0-0.7,0-1.4,0-2c0-0.4,0.4-0.6,0.7-0.4c1.6,0.7,2.5,0.5,4.1-0.2c1.2-0.5,5.2,1.7,6.2,2.3
			c0,0,0,0,0,0c0.5,0.3,0.3,1.1-0.4,1.1h-9.8C53.8,214.9,53.4,214.5,53.4,214z"/>
	</g>
	<g>
		<path class="st21" d="M41,208.3c0,0.3,0,0.5,0.1,0.8c0.1,0.9,1.1,1.4,1.3,1.6c-0.1,0-0.2,0-0.3,0.1c-1.6,0.7-2.5,0.9-4.1,0.2
			c-0.1-0.1-0.2-0.1-0.4,0c0.1-0.8,0.2-1.9,0.3-2.7H41z"/>
		<path class="st9" d="M37.2,213.4c0-0.7,0-1.4,0-2c0-0.4,0.4-0.6,0.7-0.4c1.6,0.7,2.5,0.5,4.1-0.2c1.2-0.5,5.2,1.7,6.2,2.3
			c0,0,0,0,0,0c0.5,0.3,0.3,1.1-0.4,1.1h-9.8C37.6,214.3,37.2,213.9,37.2,213.4z"/>
	</g>
	<path class="st3" d="M40.2,152c0,1.4-1,5.1-1,9.2c0,8,4.1,18.7,4.1,18.7l-6.8,28.8l5.7,0.2L55,180.7l-0.9-30.1L40.2,152z"/>
	<path class="st9" d="M44.8,150.4c0,0,0.9,9.4,2.8,16.3c1.6,5.8,13.1,14.5,13.1,14.5l-7.5,28h4.7L74.7,182c0.4-1.2,0.4-2.5-0.2-3.6
		l-16-30.5L44.8,150.4z"/>
	<path class="st21" d="M84.3,145.4l6,0c0,0-0.3,3.6-6.6,3.6L84.3,145.4z"/>
	<g>
		<path class="st21" d="M52,114.8c0-0.3-0.1-1.1-0.1-1.6c0.2-1.9,1.3-2.2,2.6-1c0,0,1.2-0.7,1.8-2.2c0.4-0.9,2-0.2,3.2-0.4
			c1.1,2.6,0.1,6.2-2.2,7.9c-0.9,0.7-1.8,0.8-2.9,0.8l-0.3,4.6l-5.6-1.5l0.1-2.7C50.8,118.8,52.3,116.9,52,114.8z"/>
	</g>
	<path class="st34" d="M56.4,209.3c1.2-2,15.9-27.1,13.7-30.1c-2.3-3.2-12.4-23-12.4-23l2.4-3.1c0,0,0.7,0.6,1.9,1.5l12.5,23.8
		c0.5,1.1,0.6,2.4,0.2,3.6l-16.8,27.2H56.4z"/>
	<path class="st2" d="M58.3,127.9c-0.3-5.7-9.2-6.2-10.2-6.2c-1.3,0-2.5,0.7-3.3,1.6c-1.4,1.6-4.1,5.1-3.3,10
		c2.2,12.6-2.4,20.6-3,24.5c8.3,3.4,25.9-0.8,25.9-0.8l-5.4-20.4L58.3,127.9z"/>
	<path class="st2" d="M65,141.6c0,0-5.5-19.8-12.4-18.7c-7.7,1.3,5,25.8,5,25.8l26.3,0.5l0.5-4.2L65,141.6z"/>
	<path class="st18" d="M53.6,148.1c1.3,3.9,5.6,3.6,5.6,3.6l2.4,5.9c1.8-0.3,2.9-0.6,2.9-0.6l-2.1-8.1l-4.8-0.1
		c0,0-8.8-17.1-7.3-23.5C50,125.8,47.9,130.9,53.6,148.1z"/>
	<path class="st3" d="M46.1,134.9c8.9-0.5,5.9-17.8,5.8-21.1c-0.1-1.9,1.3-2.7,2.6-1.5c0,0,1.2-0.7,1.8-2.2c0.4-0.9,2.4-0.2,3.6-0.5
		c-2.5-10.2-14.6-9.8-19.9,4.1C35.5,125.7,31.9,135.6,46.1,134.9z"/>
	<path class="st23" d="M53.7,119.2c-0.2-0.2-1.2-2.1-1.2-2.1c0.5,0.5,1.3,0.9,1.7,1.1c0.1,0.1,0.2,0.1,0.2,0.1l-0.3,4.6l-0.6-0.2
		C53.7,121.4,53.8,119.4,53.7,119.2z"/>
	<path class="st24" d="M60,132.8c-1.2-5.5-4.8-8.9-5.6-9.7c6.1,2,10.6,18.5,10.6,18.5l19.4,3.5l-21.7-1.3
		C62.7,143.8,61.4,139,60,132.8z"/>
	<path class="st19" d="M50.2,105.1c-6.5,2.9-10.2,13.4-8.4,29.6c-9-1.5-5.8-10.5-1.8-21c5.3-13.9,17.3-14.3,19.9-4.1
		C59.9,109.6,56.7,102.2,50.2,105.1z"/>
</g>
</svg>
