<?xml version="1.0" encoding="utf-8"?>
<!-- Generator: Adobe Illustrator 24.2.1, SVG Export Plug-In . SVG Version: 6.00 Build 0)  -->
<svg version="1.1" id="Layer_1" xmlns="http://www.w3.org/2000/svg" xmlns:xlink="http://www.w3.org/1999/xlink" x="0px" y="0px"
	 viewBox="0 0 500 438" style="enable-background:new 0 0 500 438;" xml:space="preserve">
<style type="text/css">
	.st0{fill:#FFCB83;}
	.st1{fill:#FFFFFF;}
	.st2{fill:#FF6E53;}
	.st3{fill:#65CEFE;}
	.st4{fill:#C9EDF9;}
	.st5{fill:#EEFBFF;}
	.st6{fill:#F7A491;}
	.st7{fill:#E74A60;}
	.st8{fill:#F47458;}
	.st9{fill:#F8A492;}
	.st10{fill:#031322;}
	.st11{fill:#063E70;}
	.st12{fill:#4054E7;}
	.st13{fill:#6577FF;}
	.st14{fill:#FE875E;}
	.st15{fill:#FF7131;}
	.st16{fill:#064C91;}
</style>
<g>
	<path class="st0" d="M182.6,75.6c-13.4,5.6-28.8-0.7-34.4-14.1c-5.6-13.4,0.7-28.8,14.1-34.4c13.4-5.6,28.8,0.7,34.4,14.1
		C202.3,54.6,195.9,70,182.6,75.6z"/>
	<path class="st0" d="M182.3,75c-13,5.5-28.1-0.7-33.5-13.7c-5.5-13,0.7-28.1,13.7-33.5c13-5.5,28.1,0.7,33.5,13.7
		C201.5,54.5,195.3,69.5,182.3,75z"/>
	<path class="st1" d="M191.7,43.4c4.5,10.6-0.6,22.9-11.2,27.4c-10.6,4.5-22.9-0.6-27.4-11.2c-4.5-10.6,0.6-22.9,11.2-27.4
		C175,27.8,187.3,32.8,191.7,43.4z"/>
	<path class="st1" d="M180.1,69.7c-10.1,4.2-21.7-0.5-25.9-10.6c-4.2-10.1,0.5-21.7,10.6-25.9c10.1-4.2,21.7,0.5,25.9,10.6
		C194.9,53.8,190.1,65.5,180.1,69.7z"/>
	<g>
		<path class="st0" d="M156.2,57.1l-3.3,1.4c-0.5,0.2-0.8,0.8-0.6,1.4c0.2,0.5,0.8,0.8,1.4,0.6L157,59c0.5-0.2,0.8-0.8,0.6-1.4
			C157.3,57.1,156.7,56.8,156.2,57.1z"/>
		<path class="st0" d="M178.6,66.2c-0.5,0.2-0.8,0.8-0.6,1.4l1.4,3.3c0.2,0.5,0.8,0.8,1.4,0.6c0.5-0.2,0.8-0.8,0.6-1.4l-1.4-3.3
			C179.8,66.3,179.2,66,178.6,66.2z"/>
		<path class="st0" d="M191.1,42.4l-3.3,1.4c-0.5,0.2-0.8,0.8-0.6,1.4c0.2,0.5,0.8,0.8,1.4,0.6l3.3-1.4c0.5-0.2,0.8-0.8,0.6-1.4
			C192.3,42.4,191.6,42.2,191.1,42.4z"/>
		<path class="st0" d="M164,31.3c-0.5,0.2-0.8,0.8-0.6,1.4l1.4,3.3c0.2,0.5,0.8,0.8,1.4,0.6c0.5-0.2,0.8-0.8,0.6-1.4l-1.4-3.3
			C165.2,31.4,164.5,31.1,164,31.3z"/>
	</g>
	<g>
		<path class="st0" d="M171.4,22.4l0.3-4.2c0-0.3,0.3-0.6,0.7-0.6l4.8,0.3c0.3,0,0.6,0.3,0.6,0.7l-0.3,4.2c0,0.3-0.3,0.6-0.7,0.6
			l-4.8-0.3C171.6,23.1,171.3,22.8,171.4,22.4z"/>
	</g>
	<g>
		<path class="st0" d="M152.8,30.3l-3.2-2.7c-0.3-0.2-0.7-0.2-0.9,0.1l-3.1,3.6c-0.2,0.3-0.2,0.6,0.1,0.9l3.2,2.7
			c0.3,0.2,0.7,0.2,0.9-0.1l3.1-3.6C153.1,30.9,153,30.5,152.8,30.3z"/>
	</g>
	<g>
		<path class="st0" d="M157.9,23.5c-0.3,0.1-0.7,0-0.8-0.3l-1.2-2.8c-0.1-0.3,0-0.7,0.3-0.8l5.6-2.4c0.3-0.1,0.7,0,0.8,0.3l1.2,2.8
			c0.1,0.3,0,0.7-0.3,0.8L157.9,23.5z"/>
		<path class="st0" d="M159.4,24.5c-2.7,0.2-5.4-1.3-6.6-4c-1.4-3.4,0.2-7.2,3.5-8.6c3.4-1.4,7.2,0.2,8.6,3.5
			c1.1,2.7,0.3,5.7-1.7,7.5l0.6,1.5c2.9-2.2,4-6.1,2.6-9.6c-1.7-4.1-6.5-6.1-10.7-4.4c-4.1,1.7-6.1,6.5-4.4,10.7
			c1.5,3.5,5.1,5.4,8.6,4.9L159.4,24.5z"/>
		<path class="st0" d="M162,26.7c0.7-0.3,1.3-0.5,2-0.7l-1.7-4l-3.1,1.3l1.6,3.9C161.3,27,161.7,26.8,162,26.7z"/>
	</g>
	<g>
		<path class="st0" d="M174.2,50.6c0.4,1-0.1,2.1-1,2.5c-1,0.4-2.1-0.1-2.5-1c-0.4-1,0.1-2.1,1-2.5
			C172.6,49.2,173.8,49.6,174.2,50.6z"/>
		<path class="st0" d="M174.5,35.6l-1.4,15.8c0,0.4-0.4,0.7-0.8,0.7c-0.4,0-0.7-0.4-0.7-0.8C171.6,51.3,171.5,51.9,174.5,35.6z"/>
		<path class="st0" d="M186.3,59.2l-14.2-7.1c-0.4-0.2-0.5-0.6-0.3-1c0.2-0.4,0.6-0.5,1-0.3C172.8,50.8,172.2,50.4,186.3,59.2z"/>
		<path class="st0" d="M173.1,51.1c0.2,0.4,0,0.9-0.4,1c-0.4,0.2-0.9,0-1-0.4c-0.2-0.4,0-0.9,0.4-1C172.5,50.5,173,50.7,173.1,51.1z
			"/>
	</g>
</g>
<g>
	<path class="st2" d="M373.4,197c-0.2-0.2-0.5-0.3-0.8-0.2c-1.4,0.4-3.9-0.2-5.1-0.6l-1.4-6.7c1-0.9,3.1-2.4,4.5-2.6
		c0.3,0,0.5-0.2,0.6-0.5l1.7-5.1c0.1-0.3,0-0.6-0.2-0.8c-1-1-1.8-3.5-2-4.8l5.1-4.5c1.3,0.4,3.6,1.5,4.5,2.6
		c0.2,0.2,0.5,0.3,0.8,0.3l5.3-1.1c0.3-0.1,0.5-0.3,0.6-0.6c0.4-1.4,2.1-3.3,3.1-4.1l6.5,2.2c0.3,1.3,0.5,3.9,0,5.2
		c-0.1,0.3-0.1,0.6,0.1,0.8l3.6,4c0.2,0.2,0.5,0.3,0.8,0.2c1.4-0.4,3.9,0.2,5.1,0.6l1.4,6.7c-1,0.9-3.1,2.4-4.5,2.6
		c-0.3,0-0.5,0.2-0.6,0.5l-1.7,5.1c-0.1,0.3,0,0.6,0.2,0.8c1,1,1.8,3.5,2,4.8l-5.1,4.5c-1.3-0.4-3.6-1.5-4.5-2.6
		c-0.2-0.2-0.5-0.3-0.8-0.3l-5.3,1.1c-0.3,0.1-0.5,0.3-0.6,0.6c-0.4,1.4-2.1,3.3-3.1,4.1l-6.5-2.2c-0.3-1.3-0.5-3.9,0-5.2
		c0.1-0.3,0.1-0.6-0.1-0.8L373.4,197z M388.2,195.3c3.6-0.7,6-4.3,5.3-7.9c-0.7-3.6-4.3-6-7.9-5.3c-3.6,0.7-6,4.3-5.3,7.9
		C381,193.7,384.5,196.1,388.2,195.3z M389,199.6c6-1.2,9.9-7,8.7-13c-1.2-6-7-9.9-13-8.7s-9.9,7-8.7,13
		C377.2,196.9,383.1,200.8,389,199.6z"/>
	<path class="st2" d="M417,221c0.1-0.2,0.2-0.4,0.5-0.4l4.2-0.8c0.2,0,0.5,0,0.6,0.2c0.7,0.9,2.6,1.8,3.5,2.1l4.1-3.6
		c-0.2-1-0.8-3-1.6-3.8c-0.2-0.2-0.2-0.4-0.1-0.6l1.4-4c0.1-0.2,0.3-0.4,0.5-0.4c1.1-0.2,2.8-1.3,3.6-2l-1.1-5.3
		c-1-0.3-3-0.8-4.1-0.5c-0.2,0.1-0.5,0-0.6-0.2l-2.8-3.2c-0.2-0.2-0.2-0.4-0.1-0.6c0.4-1.1,0.2-3.1,0-4.1l-5.1-1.7
		c-0.8,0.7-2.2,2.2-2.5,3.3c-0.1,0.2-0.2,0.4-0.5,0.4l-4.2,0.8c-0.2,0-0.5,0-0.6-0.2c-0.7-0.9-2.6-1.8-3.5-2.1l-4.1,3.6
		c0.2,1,0.8,3,1.6,3.8c0.2,0.2,0.2,0.4,0.1,0.6l-1.4,4c-0.1,0.2-0.3,0.4-0.5,0.4c-1.1,0.2-2.8,1.3-3.6,2l1.1,5.3
		c1,0.3,3,0.8,4.1,0.5c0.2-0.1,0.5,0,0.6,0.2l2.8,3.2c0.2,0.2,0.2,0.4,0.1,0.6c-0.4,1.1-0.2,3.1,0,4.1l5.1,1.7
		C415.3,223.6,416.7,222.1,417,221z M418.4,214.6c-3.6,0.7-7.1-1.6-7.8-5.2c-0.7-3.6,1.6-7.1,5.2-7.8c3.6-0.7,7.1,1.6,7.8,5.2
		C424.3,210.4,422,213.9,418.4,214.6z"/>
</g>
<path class="st3" d="M123.2,149.4l-4.6-1.7l-4.1,2.8c-0.5,0.3-1.1,0-1.1-0.6l0.2-5l-3.9-3c-0.4-0.3-0.3-1.1,0.2-1.2l4.8-1.3l1.6-4.7
	c0.2-0.5,0.9-0.6,1.2-0.2l2.7,4.1l5,0.1c0.6,0,0.9,0.7,0.5,1.1l-3.1,3.9l1.4,4.7C124.2,149.1,123.7,149.6,123.2,149.4z"/>
<polygon class="st3" points="142.3,99 139.8,92.2 133.3,94.1 130.5,87.6 124.1,88.6 121.2,84.1 118.9,85.5 122.8,91.6 128.8,90.6 
	131.7,97.4 138.1,95.5 140.4,101.7 "/>
<polygon class="st3" points="387.5,127.7 381.2,124.2 377.6,129.9 371.2,126.8 367.1,131.8 361.9,130.2 361.1,132.8 368,134.9 
	371.9,130.2 378.6,133.5 382.1,127.9 387.9,131 "/>
<polygon class="st4" points="229.1,21 226.4,27.7 232.5,30.7 230.1,37.4 235.5,40.9 234.6,46.2 237.3,46.7 238.6,39.6 233.4,36.3 
	235.9,29.3 229.9,26.4 232.4,20.3 "/>
<polygon class="st2" points="386,239 384.6,236.4 381.6,236.5 380.4,233.5 377.2,234.6 375.6,231.2 372.6,231.8 370.5,228.8 
	371.6,228 373.2,230.3 376.4,229.6 377.9,232.9 381.1,231.7 382.5,235.1 385.5,235 386.7,237.4 388.6,237 388.9,238.3 "/>
<polygon class="st2" points="328.3,81.4 326.9,77.3 333.3,74.3 332,67.9 336.5,64.9 335,62.6 329,66.7 330.2,72.7 323.5,75.8 
	325.6,82.1 "/>
<g>
	<path class="st0" d="M393.4,54.2c7.1,10.9-2.6,26-15.3,23.8c-2.3-0.4-4.7,0.1-6.7,1.4l-7,4.3c-1.9,1.2-4.4,0.7-5.6-1.2l-2.7-4.1
		c-1.2-1.9-0.8-4.4,0.9-5.9c6.3-5.4,9-7,9.9-11.5C369.4,47.6,386.3,43.3,393.4,54.2z"/>
	<g>
		<path class="st5" d="M376.6,60.2c-0.1-0.6-0.3-1.3-0.3-1.9c-0.3-3.8,2.6-5.1,4.2-4.1c1,0.6,1.4,2.1,0.8,3.5
			c-0.5,1.2-1.6,2.1-2.8,3.1c0.6,2.1,1.6,4.1,2.8,5.8c3.5-2.1,5.9-0.9,6.1,0.9c0.1,1.2-0.7,2.5-1.9,3c-0.7,0.3-2.5,0.7-4.7-1.7
			c-5.9,4.1-13.5,10.2-13.5,10.3l-1-1.3c0,0,7.6-6.1,13.5-10.2c-1.2-1.7-2.1-3.5-2.8-5.5c-6.7,5.8-12.6,10.4-12.8,10.6l-1-1.4
			C363.8,70.9,369.5,66.4,376.6,60.2z M379.5,55.6c-0.5-0.2-1.9,0.4-1.3,3.3C379.7,57.5,380.1,57,379.5,55.6z M382.4,67.8
			c0.9,0.9,2.1,1.7,3,0.7C386.6,67.3,385,66.4,382.4,67.8z"/>
	</g>
	<path class="st3" d="M371.6,79.2c-0.1,0-0.1,0.1-0.2,0.1l-7,4.3c-1.9,1.2-4.4,0.7-5.6-1.2l-2.7-4.1c-1.2-1.9-0.8-4.4,0.9-5.9
		c2.8-2.4,4.9-4.1,6.5-5.5L371.6,79.2z"/>
</g>
<g>
	<g>
		<g>
			<path class="st6" d="M53,342.5c0,0-0.2-1.1-0.3-1.5c-0.1-0.4-0.1-1.8-0.1-1.8s0-4.7,0.3-4.6c0.3,0,0.8,0.8,0.9,1.1
				c0.1,0.3,0.2,0.6,0.3,0.9c0.1,0.3,0.4,0.5,0.8,0.4c0.4-0.1,0.2-1.3,0.1-1.8c-0.4-1.3-2.3-4.5-2.5-4.9c-0.2-0.4,1.3-8.5,1.6-11.3
				h0c0.6-4.6,1.5-9.3,1.5-9.8l8.2-18.1l-5.5-5.6c0,0-9.3,19.9-9.7,21c-0.2,0.5-0.8,11.2-0.8,11.2c0,5.3,0.1,10,0.1,10.9
				c0,0-0.8,2.7-1.4,4.3c-0.6,1.7-0.5,3.5-0.6,3.9c0,0.1-0.4,1.8-0.1,3.9c0.2,1.8,0.9,0,0.9,0s0.2-3.5,0.4-3.4c0.2,0,0,1.9,0.3,4
				c0.1,0.5,0.1,1,0.2,1.5c0.2,1.2,1,1.5,1,0.2c0-0.5,0-1.2-0.1-1.8c-0.1-0.6,0-1.2,0-1.7c0-1,0-1.8,0-1.7c0.1,0,0.2-0.2,0.3,0.4
				c0.1,0.7,0,2.1,0.2,3.1c0.1,0.5,0.3,1.7,0.3,1.7s0.5,1.8,0.6,1.8c0.6,0,0.6-1.4,0.3-2.2c0.1-0.5-0.2-1.8-0.2-1.8s0.1-2.6,0.4-2.6
				c0.3,0,1.4,6.1,2,6.1C53.3,344.4,53,342.5,53,342.5z"/>
		</g>
		<path class="st7" d="M60.6,301.7c0,0-3.4-0.6-5.2-1.3c-2.4-0.9-4-1.7-4-1.7s2.6-11.3,5.9-18.1c1.4-2.8,2.7-4.2,4.6-4.5
			c0,0,4,2.6,3.9,9C65.8,286.7,60.6,301.7,60.6,301.7z"/>
		<g>
			<path class="st6" d="M71,339.6l4.4,40.4c0,0-2.1,8.5-1.9,11c0.3,2.4,4.8,34.3,4.8,34.3l-0.2,1.8l0,5.3h16.8c0,0-3.6-1.6-8.5-4.9
				c-0.4-0.2-1.2-1-1.4-2.5c-1.3-9.8,1.3-42.6,1.3-42.6l2.1-42.6L71,339.6z"/>
			<path class="st6" d="M57.5,348.1c-0.9,0.2-2.4,35-3.2,36.5c-5,9.8-6.2,39.5-6.2,39.5l-1.4,4.2l-1.5,5.2c0,0,5,1.4,7.6-0.1
				l-0.3-5.1l-0.3-4.7l12.5-37l6.9-37.7L57.5,348.1z"/>
			<path class="st2" d="M82.4,280.7c-2-2.8-10.4-11.1-11.3-11.1c-2.7,0-11.6,0.1-13.3,1l0,1.9c0,8.7,1.2,17.3,3.3,25.7
				c1.5,5.9,3,12.1,2.8,14.4l0,0c5.1,5.1,13.2,4.7,17.9-0.9l0,0c0,0,0-6.2,0.7-11.9C83.8,291,87.5,287.8,82.4,280.7z"/>
			<path class="st6" d="M68.4,260.8c0,0,0.2,5.8-0.3,8c-0.5,2.2-1.2,2.4,3.2,3c1.7,0.3,3.3,0.7,3.3,0.7s-0.4-3.2-0.5-4.6
				c-0.1-2.2,0.5-9.2,0.5-9.2L68.4,260.8z"/>
			<path class="st8" d="M71.7,263.7c0.9,0.5,1.7,0.8,2.5,0.9c0.1-2.7,0.4-5.9,0.4-5.9l-5.9,2C69.4,261.9,70.4,263,71.7,263.7z"/>
			<path class="st6" d="M69.8,244.6c0,0-2.5,0.9-3.8,3.6c-1.4,2.7-1.9,10.4,3.5,13.4c2.7,1.5,5.7,1.8,7.2,0.5
				c1.5-1.3,1.3-4.3,1.2-6.8C77.5,250.4,76.5,243,69.8,244.6z"/>
			<path class="st6" d="M65.8,254.2c0.3,1.3-0.1,2.5-0.9,2.8c-0.8,0.2-1.7-0.6-2-1.9c-0.3-1.3,0.1-2.5,0.9-2.8
				C64.6,252.1,65.5,253,65.8,254.2z"/>
			<path class="st7" d="M52.4,428.2c-2.3,1-4.7,0.4-5.7,0.1l-1.6,5.2c0,0,5,1.5,7.6,0L52.4,428.2z"/>
			<path class="st8" d="M54.6,368.7C54.6,368.7,54.6,368.7,54.6,368.7L54.6,368.7z"/>
			<path class="st7" d="M77.9,433.6h17.4c0.6-0.1,0.8-0.6,0.6-0.9c-0.5-0.7-2.5-1.2-4.8-2.3c-4,0.4-12.4-2.4-13.1-3.4
				C77.7,428.9,77.5,433.5,77.9,433.6z"/>
			<path class="st9" d="M112.9,293.9c0.3-0.5,1.5-2.8,1.5-2.8s1.2-3.9,0.9-3.9c-0.1,0-0.6,0.6-1.2,1.8c-0.3,0.7-0.7,2-1.1,2.6
				c-0.6,1.1-1.3,1.6-1.2,1.1c0.1-0.3,0.6-0.6,0.9-1.2c0.9-1.6,1.8-4.2,1.4-4.2c-0.3,0-1.2,1.9-2.2,3.3c-0.4,0.6-1.7,1.4-2.4,1.9
				c0-0.3,0.1-0.7,0.2-0.9c0.1-0.3,1.5-2.1,0.9-2.4c-0.5-0.2-3.8,3.7-3.8,3.7l-1.4,2.3l-0.1,0.1h0c0,0-16.4,6.4-17,6.3
				c-1.3-0.4-5.7-13.2-5.7-13.2l-9.2,1.7c-0.1-0.1,9.7,19.1,11.5,20c1.6,0.8,18.7-8.1,21.9-10c4.4-1.7,6.1-3.7,6.9-4.8
				c0.4-0.6,1.9-3,1.9-3s0.3-3.4,0.1-3.4c-0.8-0.1-1,3.1-1,3.1s-1.1,1.5-1.3,1.7C112.8,294.3,112.9,293.9,112.9,293.9z"/>
			<path class="st7" d="M67.5,277.3c-1.3,5.3,5.4,17.2,5.4,17.2s9.5-4.6,11.2-6.6c0,0-6.6-10.9-7-11.6c-0.9-1.5-4-4.7-6.1-4.1
				C69.8,272.6,67.5,277.3,67.5,277.3z"/>
			<path class="st10" d="M69,264.2c0.7-4.9,8.8-14.8,5.7-19c-2.5-3.4-6.9-2.4-9.8-1.4c-12.7,4.4-12,20.4-16,22.9
				c-7.3,4.5-11.8,7.4-12.3,17.6c-0.6,12.1,9.7,18.3,22.1,15.4c6.7-1.6,8.4-3.8,11.1-10.1c1.2-2.8,3.6-11.7,3-16
				C72.1,269.8,68.4,268.1,69,264.2z"/>
			<path class="st6" d="M73.8,255.3c0,1.4-0.5,2.6-1.2,2.6c-0.6,0-1.2-1.2-1.2-2.6c0-1.4,0.5-2.6,1.2-2.6
				C73.3,252.6,73.8,253.8,73.8,255.3z"/>
			<path class="st0" d="M89.8,365.9l0.6-24c0.1-6.8-1.2-13.5-3.9-19.7l-4.5-10.4c-1.8,0.6-3.6,1.1-5.5,1.3c-4.2,0.5-8.3,0-12.5-0.5
				c0,0.2,0,0.3-0.1,0.4c-0.8,3.5-5,11.4-6.7,22.2c-2,12.2-2.8,30.5-2.5,31.9C73.9,368,78.5,368.7,89.8,365.9z"/>
		</g>
	</g>
</g>
<g>
	<path class="st11" d="M329.7,245.8l14.5,14.5c0,0,27.6,10.8,30.7,17.4c3.1,6.6-2.8,6.3-9.3,5.4c-6.5-0.9-24.8-12.3-24.8-12.3
		L324,251.4L329.7,245.8z"/>
	<path class="st0" d="M372.2,274.8l-3.6-1.3l-6.9,3.2c0,0-3.6,2.4-5.3,8.4c-1.7,6,0,42,2.9,47.8
		C362.1,338.8,372.2,274.8,372.2,274.8z"/>
	<path class="st6" d="M395,419.2c0,0,2.6,1.6,2.8,2.4c0.2,0.8,2.1,8.9,1.4,9.9c-0.7,0.9-3.3,0.5-2.3,1.2c0.8,0.5,5.6,0.9,8.7,0.1
		c0.9-0.2,0.5-7.9,0.6-9.1c0.2-1.7,1.4-5.5,0.7-6.5c-0.3-0.5-2.3-1.3-4.1-2c-1.9-0.7-4-2.8-4-2.8L395,419.2z"/>
	<path class="st11" d="M402.5,415c0,0-1.5,14.5-3.3,15.6c-0.5,0.3-2.9,0.5-3.2,1.7c0,0-0.1,1.2,0.7,1.2l9.4,0c0,0,0.1-7.1,0-9.9
		c0,0,1.3-7.1,0.9-7.7C406.7,415.4,402.5,415,402.5,415z"/>
	<path class="st6" d="M431.8,419.2c0,0,2.6,1.6,2.8,2.4c0.2,0.8,2.1,8.9,1.4,9.9c-0.7,0.9-3.3,0.5-2.3,1.2c0.8,0.5,5.6,0.9,8.7,0.1
		c0.9-0.2,0.5-7.9,0.6-9.1c0.2-1.7,1.4-5.5,0.7-6.5c-0.3-0.5-2.3-1.3-4.1-2c-1.9-0.7-4-2.8-4-2.8L431.8,419.2z"/>
	<path class="st12" d="M385.6,324.9c0,0,8.6,17.1,10.4,21.7l13.1,33.2l28.9,34c0,0-2.1,5.5-5.3,6.9c0,0-34.8-28.1-37.7-32.6
		c-4.4-6.8-24.3-48.1-24.3-48.1l-3.7-8L385.6,324.9z"/>
	<path class="st13" d="M364.8,324.7l0.1,14.6c0,0-6.2,47.6-5,50.4c2.9,6.9,35.3,30.2,35.3,30.2l4.4-7.6l-23.2-25.9l8.8-25.2
		c2.5-5.9,7.7-17.2,7.6-23.5c-0.1-5.4-10.9-18.1-10.9-18.1L364.8,324.7z"/>
	<path class="st11" d="M378,346.2c8.6-1.9,15.5-5,16.2-7.4c0.3-1.1-4.5-11.9-8-26.5c-1.1-4.7-0.9-9.2-2.8-25.8
		c-0.4-3.5-1.8-10.9-7.3-12.8c-1.9-0.7-3-0.6-3-0.6c0,0-6.9,0.1-10.1,1.8c-0.8,1.1-3.7,6.8-4.4,22.6c-0.3,6.9-1.7,28.9-1.4,32.5
		c0,0.5,0.1,1,0.2,1.5C358.6,341.2,368.6,348.4,378,346.2z"/>
	<path class="st6" d="M362.9,285.8C362.9,285.8,362.9,285.8,362.9,285.8c3.5-0.4,12.3-11.9,12.3-11.9l0,0l-5.4-8.6
		c0,0-8,1.5-6.4,3.9c1.6,2.4,2.4,8.3,2.4,8.3c0,0.1-0.1,0.1-0.1,0.2C365.1,278.9,363.3,282.4,362.9,285.8z"/>
	<path class="st14" d="M363.3,269.2c-1.6-2.4,6.4-3.9,6.4-3.9l0.5,0.7c0,0.6-0.1,1.2-0.2,1.6c-0.9,2.4-2.9,4.6-5.1,5.6
		C364.5,271.8,363.9,270.2,363.3,269.2z"/>
	<g>
		<path class="st6" d="M365.2,251.8c0.2-0.2,6.2,9.8,4.8,13.9c-1.5,4.1-6.3,7.4-9.2,5.9c-3.2-1.6-8.1-13-5.1-17.9
			C358.5,248.8,365.2,251.8,365.2,251.8z"/>
		<path class="st10" d="M356.4,247.3c3.6-0.8,9.9,0.3,13.5,2.8c4.4,3.1,4.6,8.6,2.6,12.2c-2,3.6-0.8,6.2-0.8,6.2s-6.2-0.4-7.4-4.6
			c-0.5-1.8,0.1-3-1.1-4c-0.9-0.8-1.7-3-2.6-4.8c0,0-4-2.1-5.5-0.4C354.6,255.4,351.9,248.3,356.4,247.3z"/>
		<path class="st6" d="M362.6,260.7c0.5,1.3,1.6,2.1,2.3,1.8c0.8-0.3,0.9-1.6,0.4-2.9c-0.5-1.3-1.6-2.1-2.3-1.8
			C362.2,258.1,362.1,259.4,362.6,260.7z"/>
	</g>
	<path class="st11" d="M439.4,415.1c0,0-1.5,14.5-3.3,15.6c-0.5,0.3-2.9,0.5-3.2,1.7c0,0-0.1,1.3,0.7,1.2l9.4,0c0,0,0.1-7.1,0-9.9
		c0,0,1.3-7.1,0.9-7.7C443.5,415.4,439.4,415.1,439.4,415.1z"/>
</g>
<g>
	<g>
		<path class="st15" d="M231.6,348.1c-7.5-15.6-9.5-38.9-1.4-57.4c13.7-31.2,51.5-43.9,48.7-79.3c-0.7-8.9-4.7-16.1-10.5-20.7
			c-15.4-12.1-40.1-5.7-57.7,2.8c-11.3,5.4-21.7,13.1-31.4,23l-4.9-62.5c21.2-15,46.8-22.9,72.4-24.9c52.4-4.1,92.9,15.5,97,68
			c3.8,47.8-28.6,69-50.2,92.9c-12,13.3-14.8,23.5-13.8,35.3c0.5,6.1,2.8,13.7,6.5,18.5L231.6,348.1z M269.3,433.5
			c-50.9,4-56.8-64.4-5.4-68.5C314.6,361,320,429.5,269.3,433.5z"/>
	</g>
</g>
<path class="st9" d="M322,249c-0.1-0.4,0.3-0.1-0.4-3.5c-0.2-1-0.8-2-1.2-2.5c-0.2-0.3-0.8-0.8-1.2-1c-0.6-0.3-1,0.2-0.9,0.5
	c0.1,0.3,0.7,1.4,0.8,1.7c0.1,0.3,0.2,1.1-0.1,1.4c-0.3,0.3-4.5-4.6-4.7-5c-0.2-0.4-0.7-1.9-0.7-1.9s-0.4-1.1-0.8-0.9
	c-0.3,0.2-0.6,1.1,0.2,3c0.7,1.6,1.8,2.9,1.6,3c-0.3,0.2-2.1-1.9-2.1-1.9s-0.6-1.2-1.1-1.7c-0.3-0.8-0.8-1.8-1.3-1.4
	c-0.1,0.1,0.2,1.8,0.2,1.8s0.6,1.1,0.9,1.7c0.5,1,1.6,2.2,1.9,2.8c0.3,0.5,0,0.4,0,0.5c0,0-0.5-0.6-1.2-1.4
	c-0.4-0.4-0.9-0.9-1.2-1.4c-0.3-0.5-0.9-1.2-1.2-1.6c-0.9-1.1-1.5-0.4-0.7,0.8c0.3,0.5,0.6,0.9,0.9,1.4c1.2,1.9,2.7,3.5,2.5,3.6
	c-0.2,0.2-2.7-2.7-2.7-2.7s-1.8-1.2-0.7,0.6c1.2,2,2.6,3.4,2.6,3.4c0.4,0.4,1.6,2.1,3.2,3.2c1.7,1.1,4.3,2.6,4.3,2.6
	c0.3,0.4,1.1,1.6,2.2,3.3l4-4.8C323.8,251.1,322,249.3,322,249z"/>
<path class="st16" d="M318.8,255.8l5.6-4.9l19.1,18.8c0,0,29.5,2.6,29.6,2.6l1.2,0.4c10.7,3.7,6.3,12.4,4.2,13.8
	c-4.8,3.2-31.5,1.3-40.1-4C331.3,278.1,318.8,255.8,318.8,255.8z"/>
<g>
	<path class="st9" d="M120,282.8c0.2,0.8,0.3,1,0.6,1.6c1.7,3.4,5.8,8.2,5.8,8.2l3.1-7.5c0,0-0.5-2.4-1.4-5.7
		C125.1,280.1,122.2,280.6,120,282.8z"/>
	<path class="st13" d="M137.9,276.2c0,0-17.5,8-18,7.9c-0.4-0.1-7.2-12.3-7.2-23.7c0-5.3,5.1-11.6,10.8-10.4
		c2.9,0.6,2.8,1.5,7.1,8.1C134.9,264.8,137.9,276.2,137.9,276.2z"/>
	<path class="st6" d="M152.8,420.2c0,0-0.4,7.3-0.4,7.3c-0.2,0.9-0.8,3.2-0.8,4.1c0,3.2,14.1-2.7,11-4.1c-0.3-0.1-1.8-1.1-1.9-2.2
		c-0.1-1.7-0.5-5-0.5-5L152.8,420.2z"/>
	<path class="st11" d="M162.6,427.5c0,0-3.3,1-5,1.2c-1.7,0.2-3.9-1.8-5.1-1.2c-1.3,0.6-1.3,6.1-1.3,6.1s17.8,1.6,22.8-0.1
		C175.9,432.8,169.4,429.7,162.6,427.5z"/>
	<path class="st6" d="M123.9,420.2c0,0-0.4,7.3-0.4,7.3c-0.2,0.9-0.8,3.2-0.8,4.1c0,3.2,14.1-2.7,11-4.1c-0.3-0.1-2.2-1.8-2.3-2.9
		c-0.1-1.7-0.1-4.3-0.1-4.3L123.9,420.2z"/>
	<path class="st11" d="M133.7,427.5c0,0-3.3,1-5,1.2c-1.7,0.2-3.9-1.8-5.1-1.2c-1.3,0.6-1.4,6.1-1.4,6.1s17.9,1.8,22.9-0.1
		C147,432.7,140.5,429.7,133.7,427.5z"/>
	<g>
		<path class="st6" d="M128.3,286.8l12.4-18.6c0.1-0.2,0.2-0.5,0.3-1c0.6-1.8,1.9-5.7,3.1-9.5l0,0c0.4-1.3,1.1-3.7,1.8-5.9
			c0.8-2.5,1.8-5.6,1.9-6.1c0-0.1-0.1-0.3-0.2-0.5c-0.5-1.3-1.1-4.3-1.3-5.6c-0.1-0.8-0.3-2.9,0.7-2.9c1.5,0,0.8,2,1.4,3.3
			c0.2-0.8,0.7-2.5,1-4.2l0.2-4c0-0.3-0.3-2.5,0.8-2.5l0,0c0.9,0.1,0.9,2.4,1.3,6.3c0.1-0.5,0.2-1,0.3-1.5c0-0.3,0.2-1.4,0.3-2.1
			c-0.2-1.1-0.1-2.8,1-2.7c0.5,0.1,0.5,2.5,0.5,2.5c0,0.3,0,2.9,0,3.4c0.1-0.9,0.5-4.5,1.4-4.5c0.7,0,0.8,1,0.8,1.8
			c0,0.5-0.5,4.4-0.5,4.9c0.3-0.6,0.7-4.1,1.1-4.1c1.4,0,0.9,4.9,0.4,6.2c0,0.1-0.1,0.4-0.2,0.7c-0.2,0.9-0.5,2.4-1.2,3.7
			c-0.9,1.6-2.1,4.1-2.3,4.5c-0.1,0.8-0.6,3.6-1.1,7.2c-0.2,1.5-0.5,3.2-0.7,4.9l0,0c0,0.4-0.3,1.6-1.3,6c-1.3,6.1-1.5,6.4-1.5,6.5
			c-0.6,1.1-14,20.5-14.6,21.4l-0.3,0.5L128.3,286.8z"/>
		<path class="st8" d="M151.4,243.4c0,0-1-2.8-2.8-2.8c0,0,1-0.4,1.9,0.3C151.3,241.7,151.4,243.4,151.4,243.4z"/>
	</g>
	<g>
		<path class="st6" d="M125.2,238.1l-1.6,10.8c0,0,6.1,5.2,9.7,4.1c3-0.9,0.9-5.1,0.9-5.1s-1.6-5.8-1.1-8.8
			C133.6,236.1,125.2,238.1,125.2,238.1z"/>
		<path class="st14" d="M126.4,241.4c1.5,0.8,4.6,1.8,6.9,2.1c-0.2-1.5-0.4-3.1-0.2-4.3c0.2-1.4-1.4-1.7-3.3-1.7
			c-2.4,0.2-4.6,0.6-4.6,0.6l-0.3,2.1C125.4,240.7,125.9,241.1,126.4,241.4z"/>
		<path class="st6" d="M117.5,225.6c-0.3,0,2.4,12.1,6.5,14.2c4.1,2.1,10.3,1,11.4-2.3c1.3-3.6-3.4-15.9-9.2-17.5
			C120.5,218.5,117.5,225.6,117.5,225.6z"/>
		<path class="st10" d="M122.3,214.5c-3.3,2-4.8,5-5.3,6.3c-1.5,0.8-3.4,2.5-4.3,7c-1.1,5.6,2.8,9.9,7,11.2c4.2,1.3,4.9,4.2,4.9,4.2
			l0.4-3.2c0,0-0.9-2.8-2.3-4.1c-1.4-1.4,0.7-3.4,0.8-5c0.1-1.3-0.7-3.7-0.5-5.8c0,0,2.3-3.7,4.6-4.7
			C131.4,219,126.5,211.9,122.3,214.5z"/>
		<path class="st6" d="M124.1,233.1c0.5,1.4,0.3,2.8-0.5,3.1c-0.8,0.3-1.9-0.6-2.4-2c-0.5-1.4-0.3-2.8,0.5-3.1
			C122.4,230.8,123.5,231.7,124.1,233.1z"/>
	</g>
	<path class="st9" d="M139.4,287.1l24-4.2c0,0-2.7-7.3-3.7-7.3c-1,0-18.1,8-18.1,8l-1.4,2.9L139.4,287.1z"/>
	<path class="st11" d="M127.1,304.7c0,0-2.4,12.4-1.4,21.7c1,9.4,1.1,42.6,1.1,42.6l-3.7,53.2l8.8,0.2c0,0,10.5-53.2,10.3-51.8
		c-0.2,1.4,3.5-37.5,3.5-37.5l-12.5-29.7L127.1,304.7z"/>
	<path class="st16" d="M129.5,304.1c0,0-1.6,11.1,0.4,16c2,4.9,16.7,52.7,16.9,56.6c0.2,3.9,5.1,47,5.1,47l10.3-0.3l2.2-48
		l-4.7-60.3l-4.5-15.2L129.5,304.1z"/>
	<path class="st6" d="M123.6,248.9c0,0,2.5,1.8,4.9,1.6c2.4-0.2,5.7-2.5,5.7-2.5l-0.5-1.7c0,0-6.1-0.9-6.3-0.8
		C127.4,245.5,123.6,248.9,123.6,248.9z"/>
	<path class="st9" d="M150.6,275.3c0,0,9.1,9.1,13.2,7.6c4.1-1.6,5.8-6.9-4.2-14.7C150.7,261.1,150.6,275.3,150.6,275.3z"/>
	<path class="st3" d="M156.8,286.5c-1.3-7.8-11.1-32.2-11.9-36.7c-0.4-2.2-5.7-2.2-10.7-1.9c-5.3,0.3-10.6,1-10.6,1
		s-4.7,0.8-6.8,2.9c-2.1,2.1-2.6,7.8,0.4,18.6c2.3,8.6,5.3,13.3,6.7,19.5c0.3,2.1,0.5,4.2,0.9,6.6c0.5,9.3,0,21.6,0,21.6
		s25.6,5.7,35.1-2.9C159.9,315.2,158.2,294.6,156.8,286.5z"/>
	<path class="st13" d="M163.3,269.7c0,0-10,8.8-10.6,8.8c-0.4,0-14.3-10.9-17.5-19.9c-1.8-5,2-10.5,6.2-10.5c3,0,4.3,0.8,10.1,6.1
		C157.4,259.5,163.3,269.7,163.3,269.7z"/>
</g>
<g>
	<path class="st2" d="M309.2,63.8l-21.7,14.7c-2.2,1.5-5.2,0.9-6.7-1.3L266,55.5c-1.5-2.2-0.9-5.2,1.3-6.7L289.1,34
		c2.2-1.5,5.2-0.9,6.7,1.3l14.7,21.7C312,59.3,311.4,62.3,309.2,63.8z"/>
	<path class="st1" d="M298.3,48.4c3.8,5.6,2.3,13.3-3.3,17.1c-5.6,3.8-13.3,2.3-17.1-3.3c-3.8-5.6-2.3-13.3,3.3-17.1
		C286.8,41.3,294.5,42.7,298.3,48.4z"/>
	<path class="st2" d="M284,50.2l5,5.5c0.4,0.4,0.3,1-0.1,1.4c-0.4,0.4-1,0.3-1.4-0.1c-0.1-0.1-0.1-0.1-0.1-0.2L284,50.2z"/>
	<path class="st2" d="M287.9,55.7l7.6-4.3l-6.6,5.7c-0.4,0.3-0.9,0.3-1.2-0.1c-0.3-0.4-0.3-0.9,0.1-1.2
		C287.8,55.8,287.8,55.8,287.9,55.7z"/>
</g>
<path class="st4" d="M97.6,213.6H62.7c-10.5,0-18.9-8.5-18.9-18.9v0c0-10.5,8.5-18.9,18.9-18.9h34.9c10.5,0,18.9,8.5,18.9,18.9v0
	C116.5,205.2,108.1,213.6,97.6,213.6z"/>
<polygon class="st4" points="107.9,199.3 125.8,207.4 113.8,190.6 "/>
<g>
	<path class="st1" d="M68,193.5c0,1.5-1.4,2.8-3.1,2.8c-1.7,0-3.1-1.2-3.1-2.8c0-1.5,1.4-2.8,3.1-2.8C66.6,190.7,68,191.9,68,193.5z
		"/>
	<path class="st1" d="M82.6,193.5c0,1.5-1.4,2.8-3.1,2.8c-1.7,0-3.1-1.2-3.1-2.8c0-1.5,1.4-2.8,3.1-2.8
		C81.2,190.7,82.6,191.9,82.6,193.5z"/>
	<path class="st1" d="M97.2,193.5c0,1.5-1.4,2.8-3.1,2.8c-1.7,0-3.1-1.2-3.1-2.8c0-1.5,1.4-2.8,3.1-2.8
		C95.8,190.7,97.2,191.9,97.2,193.5z"/>
</g>
<g>
	<polygon class="st4" points="261.8,14.8 258.9,8.5 261.3,7.3 263,10.9 267.1,8.4 268.5,10.7 	"/>
</g>
<g>
	<polygon class="st2" points="93,136.6 86.5,139 85.6,136.4 89.3,135.1 87.2,130.8 89.7,129.6 	"/>
</g>
<g>
	<path class="st0" d="M369.7,32.4c0.6,1.8,1.1,3.5,1.7,5.3c0.4,1.4,0.8,3.6,2.1,4.4c0.3,0.2,0.9,0.1,1.1-0.3
		c0.7-1.5-0.3-3.3-0.8-4.8c-0.6-1.8-1.1-3.5-1.7-5.3C371.6,30.2,369.2,30.8,369.7,32.4L369.7,32.4z"/>
</g>
<g>
	<path class="st0" d="M388.3,30.5c-2.8,9.7-2.9,9.4-2.7,10.4c0.2,0.8,1.2,1,1.7,0.5c0.7-0.7,0.5-0.5,3.3-10.2
		C391,29.6,388.7,29,388.3,30.5L388.3,30.5z"/>
</g>
<g>
	<path class="st0" d="M399.2,52.1c1.7-0.8,3.4-1.6,5-2.4c1.5-0.7,3.4-1.3,4.4-2.6c0.4-0.6-0.2-1.4-0.8-1.4c-1.7,0-3.4,1.2-4.9,1.9
		c-1.7,0.8-3.3,1.6-5,2.4C396.5,50.7,397.8,52.8,399.2,52.1L399.2,52.1z"/>
</g>
<g>
	<path class="st0" d="M393.7,81.3c1.7,2.2,3.4,4.5,5.4,6.5c1,1.1,2.6-0.5,1.6-1.6c-1.8-2.2-3.7-4.3-5.4-6.5
		C394.4,78.5,392.8,80.2,393.7,81.3L393.7,81.3z"/>
</g>
<g>
	<path class="st0" d="M400,70c1.6,0.7,3.1,1.3,4.7,1.9c1.4,0.6,3.2,1.6,4.7,1.4c0.8-0.1,0.9-1.2,0.5-1.7c-0.6-0.6-0.9-0.6-4.3-1.9
		c-1.5-0.6-3.1-1.2-4.6-1.8C399.7,67.3,398.8,69.4,400,70L400,70z"/>
</g>
</svg>
