<?xml version="1.0" encoding="utf-8"?>
<!-- Generator: Adobe Illustrator 24.2.1, SVG Export Plug-In . SVG Version: 6.00 Build 0)  -->
<svg version="1.1" id="Layer_1" xmlns="http://www.w3.org/2000/svg" xmlns:xlink="http://www.w3.org/1999/xlink" x="0px" y="0px"
	 viewBox="0 0 500 385" style="enable-background:new 0 0 500 385;" xml:space="preserve">
<style type="text/css">
	.st0{fill:#282828;}
	.st1{fill:#1E1E1E;}
	.st2{opacity:0.31;}
	.st3{fill:#E7E7E7;}
	.st4{fill:#F5F5F5;}
	.st5{fill:#FFFFFF;}
	.st6{fill:#F0F0F0;}
	.st7{fill:#E1E1E1;}
	.st8{fill:#FAFAFA;}
	.st9{fill:#4C4C4C;}
	.st10{fill:#FFB570;}
	.st11{fill:#1A2E35;}
	.st12{opacity:0.2;}
	.st13{fill:#007CFF;}
	.st14{fill:#FF8935;}
	.st15{opacity:0.5;fill:#FFFFFF;}
	.st16{opacity:0.4;fill:#FFFFFF;}
	.st17{opacity:0.3;fill:#FFFFFF;}
	.st18{opacity:0.2;fill:#FFFFFF;}
	.st19{opacity:0.1;fill:#FFFFFF;}
</style>
<g>
	<g>
		<g>
			<g>
				<g>
					
						<rect x="187.8" y="34.8" transform="matrix(-1 -1.224647e-16 1.224647e-16 -1 484.962 225.3744)" class="st0" width="109.3" height="155.7"/>
					
						<rect x="183.6" y="34.8" transform="matrix(-1 -1.224647e-16 1.224647e-16 -1 476.5974 225.3744)" class="st0" width="109.3" height="155.7"/>
					
						<rect x="167.5" y="65.5" transform="matrix(-1.836970e-16 1 -1 -1.836970e-16 350.986 -125.6115)" class="st0" width="141.7" height="94.3"/>
					
						<rect x="121.9" y="111.1" transform="matrix(-1.836970e-16 1 -1 -1.836970e-16 305.4211 -80.0467)" class="st0" width="141.7" height="3.2"/>
					
						<rect x="186.8" y="141.5" transform="matrix(-1 -1.224647e-16 1.224647e-16 -1 476.5973 292.3113)" class="st0" width="103.1" height="9.4"/>
					
						<rect x="186.8" y="54.2" transform="matrix(-1 -1.224647e-16 1.224647e-16 -1 476.5973 117.8369)" class="st0" width="103.1" height="9.4"/>
				</g>
			</g>
		</g>
		<g>
			<g>
				<g>
					
						<rect x="54.7" y="34.8" transform="matrix(-1 -1.224647e-16 1.224647e-16 -1 218.6716 225.3744)" class="st0" width="109.3" height="155.7"/>
					
						<rect x="50.5" y="34.8" transform="matrix(-1 -1.224647e-16 1.224647e-16 -1 210.307 225.3744)" class="st0" width="109.3" height="155.7"/>
					
						<rect x="34.3" y="65.5" transform="matrix(-1.836970e-16 1 -1 -1.836970e-16 217.8407 7.5338)" class="st0" width="141.7" height="94.3"/>
					
						<rect x="-11.2" y="111.1" transform="matrix(-1.836970e-16 1 -1 -1.836970e-16 172.276 53.0985)" class="st0" width="141.7" height="3.2"/>
					
						<rect x="53.6" y="141.5" transform="matrix(-1 -1.224647e-16 1.224647e-16 -1 210.3069 292.3113)" class="st0" width="103.1" height="9.4"/>
					
						<rect x="53.6" y="54.2" transform="matrix(-1 -1.224647e-16 1.224647e-16 -1 210.3069 117.8369)" class="st0" width="103.1" height="9.4"/>
				</g>
			</g>
		</g>
	</g>
	<g>
		<path class="st0" d="M425.2,240.2c5.6-3.3,9.8-9,9-22c-1.2-21.7-17.8-24.3-21.6-33.7c1.1-1.2,2.2-2.9,3.2-5.2
			c5.5-12.8-6.6-17.4-0.4-24.4c3.7-4.2,1-9.8-3.4-12.6c-4.5-2.8-6.9-3.5-4.7-7.9c2.3-4.7-3.1-14.5-11.3-13.7
			c-9.2,0.9-9.3-5.4-15.4-2.9c-6.2,2.5,1,8.7-8.2,12.2c-2.1,0.8-3.4,2-4,3.5c-5.8-2.6-12.9-3-19,0.9c-15.1,9.5-20.7-1.3-29.1,8.2
			c-8.6,9.7,9.1,14.1-3.5,28.1c-8.5,9.3-2.2,18.3,6.9,23.1c0,0,0,0,0,0c-10,0.5-14.7,13.1-11.1,18.4c3.4,4.9,0.6,6.2-4.2,10.3
			c-4.8,4.1-7,11.3-1.8,15.7c8.6,7.2-5,14.9,3.8,29.2c12.5,20.2,32.2-14.5,42,20.5c1.3,4.6-0.9,16.4,2.5,17.2
			c6.3,8.2,22.4,5.2,30.3,1.2c0.9-0.4-0.5-6.8,0.3-7.4c3-2,5.7-4.5,8.1-7.5c8.6-4.4,14.7,10.3,25.5-2.5c9-10.6-1.3-18.6,6.6-23.5
			c4.8-2.9,3.8-9.1,0.4-13.1c-3.5-4-5.6-5.3-2.2-9C424.4,242.4,424.9,241.4,425.2,240.2z"/>
		<g>
			<path class="st0" d="M344.2,298c0,0,0.7,36.7,28.8,36.7c28.1,0,28.8-36.7,28.8-36.7H344.2z"/>
		</g>
	</g>
	<g>
		<g>
			<g>
				
					<rect x="45.5" y="229.6" transform="matrix(-1.836970e-16 1 -1 -1.836970e-16 380.2819 159.6203)" class="st0" width="129.6" height="80.7"/>
				
					<rect x="91.3" y="191.5" transform="matrix(-1.836970e-16 1 -1 -1.836970e-16 337.8007 117.1391)" class="st0" width="38.2" height="71.9"/>
				
					<rect x="91.3" y="233.1" transform="matrix(-1.836970e-16 1 -1 -1.836970e-16 379.3817 158.7201)" class="st0" width="38.2" height="71.9"/>
				
					<rect x="91.3" y="274.7" transform="matrix(-1.836970e-16 1 -1 -1.836970e-16 420.9626 200.3011)" class="st0" width="38.2" height="71.9"/>
				
					<rect x="69.4" y="213.3" transform="matrix(-1.836970e-16 1 -1 -1.836970e-16 315.9959 138.9438)" class="st0" width="38.2" height="28.3"/>
				
					<rect x="69.4" y="254.9" transform="matrix(-1.836970e-16 1 -1 -1.836970e-16 357.5769 180.5249)" class="st0" width="38.2" height="28.3"/>
				<g>
					<g>
						
							<rect x="115.3" y="272.9" transform="matrix(-1 -1.224647e-16 1.224647e-16 -1 250.228 561.0166)" class="st0" width="19.6" height="15.2"/>
						<rect x="134.9" y="272.9" class="st0" width="8.3" height="15.2"/>
					</g>
					<g>
						
							<rect x="83.7" y="272.9" transform="matrix(-1 -1.224647e-16 1.224647e-16 -1 186.9456 561.0166)" class="st0" width="19.6" height="15.2"/>
						<rect x="103.3" y="272.9" class="st0" width="8.3" height="15.2"/>
					</g>
				</g>
				
					<rect x="69.4" y="296.5" transform="matrix(-1.836970e-16 1 -1 -1.836970e-16 399.1579 222.1058)" class="st0" width="38.2" height="28.3"/>
				
					<rect x="96.9" y="259" transform="matrix(-1.836970e-16 1 -1 -1.836970e-16 431.6185 108.2837)" class="st0" width="129.6" height="21.9"/>
			</g>
			
				<rect x="93.5" y="297.1" transform="matrix(-1 -1.224647e-16 1.224647e-16 -1 231.1088 626.7644)" class="st0" width="44.2" height="32.7"/>
			<rect x="137.6" y="297.1" class="st0" width="8.6" height="32.7"/>
			
				<rect x="79.3" y="213.9" transform="matrix(-1 -1.224647e-16 1.224647e-16 -1 216.9045 460.4406)" class="st0" width="58.4" height="32.7"/>
			<rect x="137.6" y="213.9" class="st0" width="8.6" height="32.7"/>
		</g>
		<g>
			<g>
				
					<rect x="132.3" y="229.6" transform="matrix(-1.836970e-16 1 -1 -1.836970e-16 467.0263 72.8758)" class="st0" width="129.6" height="80.7"/>
				
					<rect x="178" y="191.5" transform="matrix(-1.836970e-16 1 -1 -1.836970e-16 424.5452 30.3946)" class="st0" width="38.2" height="71.9"/>
				
					<rect x="178" y="233.1" transform="matrix(-1.836970e-16 1 -1 -1.836970e-16 466.1262 71.9756)" class="st0" width="38.2" height="71.9"/>
				
					<rect x="178" y="274.7" transform="matrix(-1.836970e-16 1 -1 -1.836970e-16 507.7072 113.5565)" class="st0" width="38.2" height="71.9"/>
				
					<rect x="156.2" y="213.3" transform="matrix(-1.836970e-16 1 -1 -1.836970e-16 402.7404 52.1993)" class="st0" width="38.2" height="28.3"/>
				
					<rect x="156.2" y="254.9" transform="matrix(-1.836970e-16 1 -1 -1.836970e-16 444.3214 93.7803)" class="st0" width="38.2" height="28.3"/>
				<g>
					<g>
						
							<rect x="171.9" y="231.3" transform="matrix(-1 -1.224647e-16 1.224647e-16 -1 363.419 477.8547)" class="st0" width="19.6" height="15.2"/>
						<rect x="191.5" y="231.3" class="st0" width="8.3" height="15.2"/>
						<g>
							
								<rect x="195.6" y="227" transform="matrix(-1 -1.224647e-16 1.224647e-16 -1 416.4281 473.5201)" class="st0" width="25.2" height="19.6"/>
							<rect x="220.8" y="227" class="st0" width="10.6" height="19.6"/>
						</g>
					</g>
				</g>
				
					<rect x="156.2" y="296.5" transform="matrix(-1.836970e-16 1 -1 -1.836970e-16 485.9024 135.3613)" class="st0" width="38.2" height="28.3"/>
				
					<rect x="183.6" y="259" transform="matrix(-1.836970e-16 1 -1 -1.836970e-16 518.363 21.5392)" class="st0" width="129.6" height="21.9"/>
			</g>
			
				<rect x="169.2" y="321.4" transform="matrix(-1 -1.224647e-16 1.224647e-16 -1 391.7588 651.069)" class="st0" width="53.4" height="8.3"/>
			<rect x="222.6" y="321.4" class="st0" width="10.4" height="8.3"/>
			
				<rect x="178.6" y="261.6" transform="matrix(-1 -1.224647e-16 1.224647e-16 -1 404.5502 549.7142)" class="st0" width="47.4" height="26.5"/>
			<rect x="226" y="261.6" class="st0" width="7" height="26.5"/>
		</g>
	</g>
</g>
<g>
	<rect x="2" y="333.5" class="st1" width="496" height="0.2"/>
	<rect x="409.5" y="343" class="st1" width="32.9" height="0.2"/>
	<rect x="132.4" y="346.3" class="st1" width="49.5" height="0.2"/>
	<rect x="379.2" y="352.2" class="st1" width="29.3" height="0.2"/>
	<rect x="54" y="350.5" class="st1" width="21.4" height="0.2"/>
	<rect x="84.3" y="350.5" class="st1" width="38.1" height="0.2"/>
	<rect x="237.6" y="340.3" class="st1" width="92.9" height="0.2"/>
	<path class="st1" d="M237.1,289.3H45.5c-3.1,0-5.7-2.5-5.7-5.7V14.4c0-3.1,2.5-5.7,5.7-5.7h191.6c3.1,0,5.7,2.5,5.7,5.7v269.3
		C242.8,286.8,240.2,289.3,237.1,289.3z M45.5,8.9c-3,0-5.4,2.4-5.4,5.4v269.3c0,3,2.4,5.4,5.4,5.4h191.6c3,0,5.4-2.4,5.4-5.4V14.4
		c0-3-2.4-5.4-5.4-5.4H45.5z"/>
	<path class="st1" d="M451.7,289.3H260.1c-3.1,0-5.7-2.5-5.7-5.7V14.4c0-3.1,2.5-5.7,5.7-5.7h191.6c3.1,0,5.7,2.5,5.7,5.7v269.3
		C457.3,286.8,454.8,289.3,451.7,289.3z M260.1,8.9c-3,0-5.4,2.4-5.4,5.4v269.3c0,3,2.4,5.4,5.4,5.4h191.6c3,0,5.4-2.4,5.4-5.4V14.4
		c0-3-2.4-5.4-5.4-5.4H260.1z"/>
</g>
<g class="st2">
	<g>
		<g>
			<g>
				<g>
					
						<rect x="187.8" y="34.8" transform="matrix(-1 -1.224647e-16 1.224647e-16 -1 484.962 225.3744)" class="st3" width="109.3" height="155.7"/>
					
						<rect x="183.6" y="34.8" transform="matrix(-1 -1.224647e-16 1.224647e-16 -1 476.5974 225.3744)" class="st4" width="109.3" height="155.7"/>
					
						<rect x="167.5" y="65.5" transform="matrix(-1.836970e-16 1 -1 -1.836970e-16 350.986 -125.6115)" class="st5" width="141.7" height="94.3"/>
					
						<rect x="121.9" y="111.1" transform="matrix(-1.836970e-16 1 -1 -1.836970e-16 305.4211 -80.0467)" class="st3" width="141.7" height="3.2"/>
					
						<rect x="186.8" y="141.5" transform="matrix(-1 -1.224647e-16 1.224647e-16 -1 476.5973 292.3113)" class="st4" width="103.1" height="9.4"/>
					
						<rect x="186.8" y="54.2" transform="matrix(-1 -1.224647e-16 1.224647e-16 -1 476.5973 117.8369)" class="st4" width="103.1" height="9.4"/>
				</g>
			</g>
		</g>
		<g>
			<g>
				<g>
					
						<rect x="54.7" y="34.8" transform="matrix(-1 -1.224647e-16 1.224647e-16 -1 218.6716 225.3744)" class="st3" width="109.3" height="155.7"/>
					
						<rect x="50.5" y="34.8" transform="matrix(-1 -1.224647e-16 1.224647e-16 -1 210.307 225.3744)" class="st4" width="109.3" height="155.7"/>
					
						<rect x="34.3" y="65.5" transform="matrix(-1.836970e-16 1 -1 -1.836970e-16 217.8407 7.5338)" class="st5" width="141.7" height="94.3"/>
					
						<rect x="-11.2" y="111.1" transform="matrix(-1.836970e-16 1 -1 -1.836970e-16 172.276 53.0985)" class="st3" width="141.7" height="3.2"/>
					
						<rect x="53.6" y="141.5" transform="matrix(-1 -1.224647e-16 1.224647e-16 -1 210.3069 292.3113)" class="st4" width="103.1" height="9.4"/>
					
						<rect x="53.6" y="54.2" transform="matrix(-1 -1.224647e-16 1.224647e-16 -1 210.3069 117.8369)" class="st4" width="103.1" height="9.4"/>
				</g>
			</g>
		</g>
	</g>
	<g>
		<path class="st3" d="M425.2,240.2c5.6-3.3,9.8-9,9-22c-1.2-21.7-17.8-24.3-21.6-33.7c1.1-1.2,2.2-2.9,3.2-5.2
			c5.5-12.8-6.6-17.4-0.4-24.4c3.7-4.2,1-9.8-3.4-12.6c-4.5-2.8-6.9-3.5-4.7-7.9c2.3-4.7-3.1-14.5-11.3-13.7
			c-9.2,0.9-9.3-5.4-15.4-2.9c-6.2,2.5,1,8.7-8.2,12.2c-2.1,0.8-3.4,2-4,3.5c-5.8-2.6-12.9-3-19,0.9c-15.1,9.5-20.7-1.3-29.1,8.2
			c-8.6,9.7,9.1,14.1-3.5,28.1c-8.5,9.3-2.2,18.3,6.9,23.1c0,0,0,0,0,0c-10,0.5-14.7,13.1-11.1,18.4c3.4,4.9,0.6,6.2-4.2,10.3
			c-4.8,4.1-7,11.3-1.8,15.7c8.6,7.2-5,14.9,3.8,29.2c12.5,20.2,32.2-14.5,42,20.5c1.3,4.6-0.9,16.4,2.5,17.2
			c6.3,8.2,22.4,5.2,30.3,1.2c0.9-0.4-0.5-6.8,0.3-7.4c3-2,5.7-4.5,8.1-7.5c8.6-4.4,14.7,10.3,25.5-2.5c9-10.6-1.3-18.6,6.6-23.5
			c4.8-2.9,3.8-9.1,0.4-13.1c-3.5-4-5.6-5.3-2.2-9C424.4,242.4,424.9,241.4,425.2,240.2z"/>
		<g>
			<path class="st6" d="M344.2,298c0,0,0.7,36.7,28.8,36.7c28.1,0,28.8-36.7,28.8-36.7H344.2z"/>
		</g>
	</g>
	<g>
		<g>
			<g>
				
					<rect x="45.5" y="229.6" transform="matrix(-1.836970e-16 1 -1 -1.836970e-16 380.2819 159.6203)" class="st6" width="129.6" height="80.7"/>
				
					<rect x="91.3" y="191.5" transform="matrix(-1.836970e-16 1 -1 -1.836970e-16 337.8007 117.1391)" class="st3" width="38.2" height="71.9"/>
				
					<rect x="91.3" y="233.1" transform="matrix(-1.836970e-16 1 -1 -1.836970e-16 379.3817 158.7201)" class="st3" width="38.2" height="71.9"/>
				
					<rect x="91.3" y="274.7" transform="matrix(-1.836970e-16 1 -1 -1.836970e-16 420.9626 200.3011)" class="st3" width="38.2" height="71.9"/>
				
					<rect x="69.4" y="213.3" transform="matrix(-1.836970e-16 1 -1 -1.836970e-16 315.9959 138.9438)" class="st7" width="38.2" height="28.3"/>
				
					<rect x="69.4" y="254.9" transform="matrix(-1.836970e-16 1 -1 -1.836970e-16 357.5769 180.5249)" class="st7" width="38.2" height="28.3"/>
				<g>
					<g>
						
							<rect x="115.3" y="272.9" transform="matrix(-1 -1.224647e-16 1.224647e-16 -1 250.228 561.0166)" class="st6" width="19.6" height="15.2"/>
						<rect x="134.9" y="272.9" class="st7" width="8.3" height="15.2"/>
					</g>
					<g>
						
							<rect x="83.7" y="272.9" transform="matrix(-1 -1.224647e-16 1.224647e-16 -1 186.9456 561.0166)" class="st6" width="19.6" height="15.2"/>
						<rect x="103.3" y="272.9" class="st7" width="8.3" height="15.2"/>
					</g>
				</g>
				
					<rect x="69.4" y="296.5" transform="matrix(-1.836970e-16 1 -1 -1.836970e-16 399.1579 222.1058)" class="st7" width="38.2" height="28.3"/>
				
					<rect x="96.9" y="259" transform="matrix(-1.836970e-16 1 -1 -1.836970e-16 431.6185 108.2837)" class="st4" width="129.6" height="21.9"/>
			</g>
			
				<rect x="93.5" y="297.1" transform="matrix(-1 -1.224647e-16 1.224647e-16 -1 231.1088 626.7644)" class="st6" width="44.2" height="32.7"/>
			<rect x="137.6" y="297.1" class="st7" width="8.6" height="32.7"/>
			
				<rect x="79.3" y="213.9" transform="matrix(-1 -1.224647e-16 1.224647e-16 -1 216.9045 460.4406)" class="st8" width="58.4" height="32.7"/>
			<rect x="137.6" y="213.9" class="st6" width="8.6" height="32.7"/>
		</g>
		<g>
			<g>
				
					<rect x="132.3" y="229.6" transform="matrix(-1.836970e-16 1 -1 -1.836970e-16 467.0263 72.8758)" class="st6" width="129.6" height="80.7"/>
				
					<rect x="178" y="191.5" transform="matrix(-1.836970e-16 1 -1 -1.836970e-16 424.5452 30.3946)" class="st3" width="38.2" height="71.9"/>
				
					<rect x="178" y="233.1" transform="matrix(-1.836970e-16 1 -1 -1.836970e-16 466.1262 71.9756)" class="st3" width="38.2" height="71.9"/>
				
					<rect x="178" y="274.7" transform="matrix(-1.836970e-16 1 -1 -1.836970e-16 507.7072 113.5565)" class="st3" width="38.2" height="71.9"/>
				
					<rect x="156.2" y="213.3" transform="matrix(-1.836970e-16 1 -1 -1.836970e-16 402.7404 52.1993)" class="st7" width="38.2" height="28.3"/>
				
					<rect x="156.2" y="254.9" transform="matrix(-1.836970e-16 1 -1 -1.836970e-16 444.3214 93.7803)" class="st7" width="38.2" height="28.3"/>
				<g>
					<g>
						
							<rect x="171.9" y="231.3" transform="matrix(-1 -1.224647e-16 1.224647e-16 -1 363.419 477.8547)" class="st6" width="19.6" height="15.2"/>
						<rect x="191.5" y="231.3" class="st7" width="8.3" height="15.2"/>
						<g>
							
								<rect x="195.6" y="227" transform="matrix(-1 -1.224647e-16 1.224647e-16 -1 416.4281 473.5201)" class="st6" width="25.2" height="19.6"/>
							<rect x="220.8" y="227" class="st7" width="10.6" height="19.6"/>
						</g>
					</g>
				</g>
				
					<rect x="156.2" y="296.5" transform="matrix(-1.836970e-16 1 -1 -1.836970e-16 485.9024 135.3613)" class="st7" width="38.2" height="28.3"/>
				
					<rect x="183.6" y="259" transform="matrix(-1.836970e-16 1 -1 -1.836970e-16 518.363 21.5392)" class="st4" width="129.6" height="21.9"/>
			</g>
			
				<rect x="169.2" y="321.4" transform="matrix(-1 -1.224647e-16 1.224647e-16 -1 391.7588 651.069)" class="st6" width="53.4" height="8.3"/>
			<rect x="222.6" y="321.4" class="st7" width="10.4" height="8.3"/>
			
				<rect x="178.6" y="261.6" transform="matrix(-1 -1.224647e-16 1.224647e-16 -1 404.5502 549.7142)" class="st8" width="47.4" height="26.5"/>
			<rect x="226" y="261.6" class="st6" width="7" height="26.5"/>
		</g>
	</g>
</g>
<ellipse id="_x3C_Path_x3E__31_" class="st9" cx="250" cy="368.6" rx="193.9" ry="11.3"/>
<g>
	<g>
		<polygon class="st10" points="279.3,350.2 272.1,348.1 275.1,330.8 282.3,332.9 		"/>
		<polygon class="st10" points="342,360.9 334.5,360.9 332.6,343.4 340.1,343.4 		"/>
		<path class="st11" d="M333.9,360h9.2c0.3,0,0.6,0.2,0.6,0.5l1.5,6.7c0.2,0.7-0.4,1.4-1.1,1.3c-3-0.1-5.1-0.2-8.8-0.2
			c-2.3,0-9.2,0.2-12.4,0.2c-3.1,0-3.6-3.1-2.3-3.4c5.8-1.3,10.2-3,12-4.7C333,360.2,333.4,360,333.9,360z"/>
		<path class="st11" d="M272.4,347.2l7.9,2.3c0.3,0.1,0.5,0.4,0.5,0.7l-0.5,6.8c0,0.7-0.7,1.2-1.4,1c-2.8-0.9-6.9-2.3-10.5-3.3
			c-4.2-1.2-7.9-2.1-12.8-3.5c-3-0.9-2.9-4.1-1.6-4c6,0.4,10.7,1.7,16.5,0.1C271.1,347.1,271.7,347.1,272.4,347.2z"/>
		<path class="st10" d="M324.9,130.8c-3.9,2.7-7.7,5.3-11.8,7.7c-4,2.4-8.1,4.8-12.3,6.9l-1.6,0.8l-0.4,0.2
			c-0.2,0.1-0.5,0.2-0.7,0.3c-0.5,0.2-1,0.4-1.5,0.5c-2.1,0.5-4.1,0.4-5.7,0c-3.3-0.8-5.7-2.4-7.8-4c-4.1-3.3-7.2-7-9.9-11.2
			l4.4-3.6c3.3,2.8,6.9,5.6,10.4,7.5c1.7,0.9,3.5,1.6,4.7,1.7c0.6,0,1-0.1,1.1-0.2c0,0,0.1-0.1,0.1-0.1c0,0,0,0,0,0l0.3-0.2l1.4-0.9
			c3.8-2.4,7.6-4.9,11.4-7.4l11.4-7.5L324.9,130.8z"/>
		<path class="st11" d="M303.2,128.6l8.2,17.7C347.7,134.3,336.5,106.4,303.2,128.6z"/>
		<path class="st12" d="M322.5,129.5c-5,5-8.2,10.5-9.9,16.4c7.4-2.6,12.7-5.8,16.2-9.1L322.5,129.5z"/>
		<path class="st10" d="M278.3,130.2l-2.7-7.6l-6.4,6c0,0,1.2,3.3,4.9,4.5L278.3,130.2z"/>
		<polygon class="st10" points="271.3,120.6 266.3,126.1 269.3,128.6 275.6,122.6 		"/>
		<g>
			<polygon class="st12" points="275.1,330.8 273.5,339.7 280.8,341.8 282.3,332.9 			"/>
			<polygon class="st12" points="340.1,343.5 332.6,343.5 333.6,352.5 341.1,352.5 			"/>
		</g>
		<path class="st11" d="M359.3,126.7c2.3,0.8,3.5,3.4,2.6,5.7c-2.6,6.7-4.6,13.4-6.2,19.9c-1.4,5.7-2.6,11.2-3.5,16.2
			c-2.1,11.7-3,20.7-3.7,23.7c-5.8-1.1-27.6-5.4-39.6-7.8c7.4-58.8,13-63.8,13-63.8s4.5-0.3,9.7,0c0.7,0,1.4,0.1,2.1,0.2
			c4.5,0.5,11.8,2.1,16.8,3.3c1.1,0.3,2.1,0.6,3.1,0.9C355.8,125.5,357.7,126.1,359.3,126.7z"/>
		<path class="st12" d="M352.1,137.8c-0.9,6.7,0.3,12.6,2.8,17.9c0.3-1.1,0.5-2.3,0.8-3.4c1.1-4.3,2.3-8.7,3.8-13.1L352.1,137.8z"/>
		<path class="st10" d="M352.7,104.8l-12.1,6.8c0.2,4.4-0.5,8.9-6.8,9.2c-1.4,1.6-2.8,5.4,1.8,8.7l-1,3.1c9-0.7,14.1-5.6,16-8.5
			C347.5,119.7,350.6,110,352.7,104.8z"/>
		<path class="st5" d="M323,187.4C323,187.4,323,187.4,323,187.4c-0.2,0-0.3-0.1-0.2-0.3c4.3-33.5,12.5-57.5,12.6-57.7
			c0-0.1,0.2-0.2,0.3-0.2c0.1,0,0.2,0.2,0.2,0.3c-0.1,0.2-8.2,24.2-12.6,57.6C323.2,187.3,323.1,187.4,323,187.4z"/>
		<path class="st5" d="M329.7,132.4c0,0,2.6-1.7,5.9-2.9c-1.1-1.2-1.7-6.6-0.9-9c-1,0-2,0-2,0S328.1,122,329.7,132.4z"/>
		<path class="st5" d="M342.6,135.6c0,0-0.6-2-3.3-4.2c3.3-1,8.8-3.8,10.7-8.7c0.8,0.6,2,1.5,2,1.5S354,131.6,342.6,135.6z"/>
		<path class="st5" d="M336.7,135c-0.1,0.6-0.5,1.1-0.9,1.1c-0.4,0-0.6-0.5-0.5-1.1c0.1-0.6,0.5-1.1,0.9-1.1
			C336.6,133.8,336.9,134.3,336.7,135z"/>
		<path class="st12" d="M347.8,107.6l-7.1,4c0.1,1,0.1,2.1-0.1,3.1c2.4,0.1,6-1.8,6.8-4.1C347.7,109.3,347.9,108.2,347.8,107.6z"/>
		<path class="st11" d="M340.6,82.2c-5.2,1.3-7.6,11.8-1.2,15.4C352,94.8,355.1,78.7,340.6,82.2z"/>
		<path class="st10" d="M356.7,96.3c-2.1,7.2-3,11.5-7.5,14.4c-6.8,4.3-15-1.1-15.1-8.7c-0.1-6.9,3.4-17.5,11.2-18.7
			C353,82,358.8,89.1,356.7,96.3z"/>
		<path class="st11" d="M358.1,86.3c-7.3-1.8-9.5,13.6-3.1,17.2C369.9,100.2,365.9,88.2,358.1,86.3z"/>
		<path class="st11" d="M356.4,82c-8-1.5-13-8-13-8s-6.7,5.2-4.8,9.2c1.9,4,10.9,8.6,15.3,8.8c0,0-2,9.5,6.6,4.2
			C371.9,89,364,83.4,356.4,82z"/>
		<path class="st11" d="M363.2,91.9c0,0,3.1,1.5,4.4,5.1C368.2,91.4,364.3,91.8,363.2,91.9z"/>
		<path class="st11" d="M344.4,87.3c0,0-5.5-1.4-8.8-6.7C336.4,89.9,342.5,88,344.4,87.3z"/>
		<path class="st11" d="M340.8,103.2C340.8,103.2,340.8,103.2,340.8,103.2c3,0.7,4.8-1.1,4.9-1.2c0.1-0.1,0.1-0.2,0-0.3
			c-0.1-0.1-0.2-0.1-0.3,0c0,0-1.8,1.7-4.6,1.1c-0.1,0-0.2,0-0.2,0.1C340.6,103,340.7,103.1,340.8,103.2z"/>
		<path class="st10" d="M357.4,103.7c-1.2,1.3-2.9,2-4.2,2.1c-2.1,0.1-2.4-2-1.2-3.8c1-1.6,3.4-3.7,5.1-2.9
			C358.8,99.8,358.8,102.2,357.4,103.7z"/>
		<path class="st13" d="M271.3,337.2l12.2,3.6c0,0,12.3-41.7,19.9-67.5c2-6.9,5.1-16.5,8.8-26.7c4.6-12.9,10.1-26.7,14.6-37.6
			c4.7-11.4,8.2-19.5,8.2-19.5l-26-5.1c0,0-21.8,59.7-26.7,82.2C277.3,290,271.3,337.2,271.3,337.2z"/>
		<path class="st12" d="M312.2,246.6c4.6-12.9,10.1-26.7,14.6-37.6l-2-6.2C317.3,209.7,312.6,233.4,312.2,246.6z"/>
		<path class="st13" d="M323,187.1c0,0-5.2,64.6-5.3,86.7c0,24.2,12.3,76.9,12.3,76.9h13.8c0,0-5.4-46.6-5.5-70.4
			c-0.1-26.9,10.1-88.2,10.1-88.2L323,187.1z"/>
		<polygon class="st11" points="328.4,351 344.7,351 344.7,346.2 326.5,345.8 		"/>
		<polygon class="st11" points="270.5,337.3 284.3,341.3 286.4,336.6 270.6,331.9 		"/>
		<path class="st11" d="M345.2,95.8c-0.1,0.6-0.6,1-0.9,0.9c-0.4-0.1-0.6-0.6-0.5-1.2c0.1-0.6,0.6-1,0.9-0.9S345.4,95.2,345.2,95.8z
			"/>
		<path class="st11" d="M338.5,94.2c-0.1,0.6-0.6,1-0.9,0.9s-0.6-0.6-0.5-1.2c0.1-0.6,0.6-1,0.9-0.9
			C338.5,93.1,338.7,93.6,338.5,94.2z"/>
		<path class="st14" d="M340.6,95c0,0-2.1,3.1-4,4.4c0.8,1.2,2.8,1.1,2.8,1.1L340.6,95z"/>
		<path class="st11" d="M347.8,94.1c-0.1,0-0.3-0.1-0.3-0.2c-0.6-1.5-1.9-1.7-2-1.7c-0.2,0-0.3-0.2-0.3-0.4c0-0.2,0.2-0.3,0.4-0.3
			c0.1,0,1.7,0.3,2.5,2.1c0.1,0.2,0,0.4-0.2,0.5C347.9,94.1,347.8,94.1,347.8,94.1z"/>
		<path class="st11" d="M336.2,91.3c-0.1,0-0.1,0-0.2-0.1c-0.2-0.1-0.2-0.3-0.1-0.5c1.2-1.5,2.9-1.4,3-1.4c0.2,0,0.3,0.2,0.3,0.4
			c0,0.2-0.2,0.3-0.4,0.3l0,0c-0.1,0-1.3-0.1-2.3,1.1C336.4,91.2,336.3,91.3,336.2,91.3z"/>
		<path class="st13" d="M331.4,361.3c-0.6,0-1.1-0.1-1.5-0.4c-0.3-0.2-0.4-0.5-0.4-0.9c0-0.3,0.2-0.4,0.3-0.5
			c0.8-0.4,3.3,1.1,3.5,1.2c0.1,0,0.1,0.1,0.1,0.2c0,0.1-0.1,0.1-0.1,0.1C332.8,361.2,332.1,361.3,331.4,361.3z M330.2,359.8
			c-0.1,0-0.2,0-0.2,0c0,0-0.1,0.1-0.1,0.2c0,0.3,0.1,0.5,0.2,0.6c0.4,0.3,1.4,0.4,2.7,0.1C332,360.3,330.8,359.8,330.2,359.8z"/>
		<path class="st13" d="M333.3,361.1C333.3,361.1,333.2,361.1,333.3,361.1c-0.9-0.4-2.4-2.1-2.2-2.9c0-0.2,0.1-0.4,0.6-0.5
			c0.3,0,0.5,0,0.8,0.2c0.9,0.7,1.1,2.9,1.1,3C333.5,361,333.5,361,333.3,361.1C333.4,361.1,333.3,361.1,333.3,361.1z M331.8,358
			C331.8,358,331.7,358,331.8,358c-0.3,0-0.3,0.1-0.3,0.2c-0.1,0.5,0.9,1.7,1.6,2.3c-0.1-0.6-0.3-1.9-0.9-2.4
			C332.1,358.1,331.9,358,331.8,358z"/>
		<path class="st13" d="M271.4,348C271.3,348,271.3,348,271.4,348c-1.3-0.1-3.4-0.4-4-1.4c-0.2-0.3-0.2-0.6-0.1-0.9
			c0.1-0.2,0.2-0.3,0.4-0.4c1-0.2,3.5,2.1,3.8,2.4c0.1,0.1,0.1,0.1,0,0.2C271.5,348,271.4,348,271.4,348z M267.8,345.7
			C267.8,345.7,267.8,345.7,267.8,345.7c-0.1,0-0.2,0.1-0.2,0.2c-0.1,0.2-0.1,0.4,0,0.6c0.3,0.5,1.5,0.9,3.2,1.2
			C269.8,346.7,268.4,345.6,267.8,345.7z"/>
		<path class="st13" d="M271.4,348c0,0-0.1,0-0.1,0c-0.8-0.6-2-2.7-1.6-3.5c0.1-0.2,0.3-0.4,0.8-0.3c0.4,0.1,0.7,0.3,0.9,0.6
			c0.7,1,0.3,3,0.3,3.1C271.5,347.9,271.5,348,271.4,348C271.4,348,271.4,348,271.4,348z M270.1,344.5c-0.1,0-0.2,0.1-0.2,0.1
			c-0.2,0.5,0.6,2,1.3,2.8c0.1-0.6,0.2-1.8-0.3-2.5c-0.2-0.2-0.4-0.4-0.6-0.4C270.2,344.5,270.1,344.5,270.1,344.5z"/>
		<g>
			<path class="st10" d="M361,128.8c0.6,0.6,1,1,1.4,1.5c0.4,0.5,0.9,1,1.3,1.5c0.8,1,1.7,2,2.4,3c1.6,2,3,4.1,4.4,6.4
				c1.3,2.2,2.6,4.5,3.6,6.9c1.1,2.4,2,5,2.6,7.6l0.2,1l0.2,1.2c0.1,0.8,0.2,1.5,0.2,2.3c0.1,1.5,0,3-0.2,4.3
				c-0.3,2.8-1,5.4-1.8,7.9c-1.7,5-4,9.4-7,13.6l-5-2.7l1.1-3.2c0.4-1.1,0.7-2.2,1-3.3c0.6-2.2,1.1-4.4,1.5-6.5
				c0.4-2.2,0.6-4.3,0.6-6.3c0-1-0.1-1.9-0.2-2.8c-0.1-0.4-0.2-0.9-0.3-1.3l-0.2-0.6l-0.2-0.7c-1.3-3.9-3.4-7.7-5.9-11.3
				c-1.2-1.8-2.5-3.6-3.9-5.4c-0.7-0.9-1.4-1.7-2.1-2.6l-1.1-1.2l-1-1.1L361,128.8z"/>
			<path class="st11" d="M349.8,139.7c2.4,6.6,5.1,11.7,9,15.4l14.5-13.8C359.9,115.4,346.2,129.6,349.8,139.7z"/>
			<path class="st10" d="M364.5,182l-5.7,5.2l8.9,3.8c0,0,3.8-5.5,1.2-7.8L364.5,182z"/>
			<polygon class="st10" points="357.8,193.4 365.2,196.1 367.7,190.9 358.9,187.2 			"/>
		</g>
	</g>
</g>
<g>
	<g>
		<g>
			<path class="st13" d="M225.9,47.2l-58.6,14.4l-3.8-8.2c-0.3-0.7-1.1-1.1-1.9-0.9l-36.3,8.9c-0.8,0.2-1.3,0.9-1.3,1.7l0.4,9
				L101,77.9c-1.4,0.3-2.2,1.7-1.9,3.1l19.3,78.6c0.3,1.4,1.7,2.2,3.1,1.9l124.9-30.7c1.4-0.3,2.2-1.7,1.9-3.1L229,49.1
				C228.6,47.7,227.2,46.9,225.9,47.2z"/>
			<path class="st15" d="M225.9,47.2l-58.6,14.4l-3.8-8.2c-0.3-0.7-1.1-1.1-1.9-0.9l-36.3,8.9c-0.8,0.2-1.3,0.9-1.3,1.7l0.4,9
				L101,77.9c-1.4,0.3-2.2,1.7-1.9,3.1l19.3,78.6c0.3,1.4,1.7,2.2,3.1,1.9l124.9-30.7c1.4-0.3,2.2-1.7,1.9-3.1L229,49.1
				C228.6,47.7,227.2,46.9,225.9,47.2z"/>
		</g>
		
			<rect x="129.1" y="59.9" transform="matrix(0.9711 -0.2387 0.2387 0.9711 -10.6031 36.3024)" class="st9" width="31.1" height="4.1"/>
	</g>
	<g>
		<g>
			<path class="st13" d="M227.6,73.3l-63,15.5l-3.8-8.2c-0.3-0.7-1.1-1.1-1.9-0.9l-36.3,8.9c-0.8,0.2-1.3,0.9-1.3,1.7l0.4,9l-19,4.7
				c-1.4,0.3-2.2,1.7-1.9,3.1l19.3,78.6c0.3,1.4,1.7,2.2,3.1,1.9l124.9-30.7c1.4-0.3,2.2-1.7,1.9-3.1l-19.3-78.6
				C230.4,73.8,229,73,227.6,73.3z"/>
			<path class="st16" d="M227.6,73.3l-63,15.5l-3.8-8.2c-0.3-0.7-1.1-1.1-1.9-0.9l-36.3,8.9c-0.8,0.2-1.3,0.9-1.3,1.7l0.4,9l-19,4.7
				c-1.4,0.3-2.2,1.7-1.9,3.1l19.3,78.6c0.3,1.4,1.7,2.2,3.1,1.9l124.9-30.7c1.4-0.3,2.2-1.7,1.9-3.1l-19.3-78.6
				C230.4,73.8,229,73,227.6,73.3z"/>
		</g>
		
			<rect x="126.4" y="87.1" transform="matrix(0.9711 -0.2387 0.2387 0.9711 -17.1706 36.4581)" class="st9" width="31.1" height="4.1"/>
	</g>
	<g>
		<g>
			<path class="st13" d="M229.4,99.4L162,116l-3.8-8.2c-0.3-0.7-1.1-1.1-1.9-0.9l-36.3,8.9c-0.8,0.2-1.3,0.9-1.3,1.7l0.4,9
				l-14.6,3.6c-1.4,0.3-2.2,1.7-1.9,3.1l19.3,78.6c0.3,1.4,1.7,2.2,3.1,1.9L249.9,183c1.4-0.3,2.2-1.7,1.9-3.1l-19.3-78.6
				C232.1,99.9,230.8,99.1,229.4,99.4z"/>
			<path class="st17" d="M229.4,99.4L162,116l-3.8-8.2c-0.3-0.7-1.1-1.1-1.9-0.9l-36.3,8.9c-0.8,0.2-1.3,0.9-1.3,1.7l0.4,9
				l-14.6,3.6c-1.4,0.3-2.2,1.7-1.9,3.1l19.3,78.6c0.3,1.4,1.7,2.2,3.1,1.9L249.9,183c1.4-0.3,2.2-1.7,1.9-3.1l-19.3-78.6
				C232.1,99.9,230.8,99.1,229.4,99.4z"/>
		</g>
		
			<rect x="123.8" y="114.3" transform="matrix(0.9711 -0.2387 0.2387 0.9711 -23.7384 36.6146)" class="st9" width="31.1" height="4.1"/>
	</g>
	<g>
		<g>
			<path class="st13" d="M279.6,127.6l-73.8,3.8l-2.2-8.7c-0.2-0.8-0.9-1.3-1.7-1.2l-37.3,1.9c-0.8,0-1.4,0.6-1.5,1.4l-1.3,8.9
				l-10.5,0.5c-1.4,0.1-2.5,1.3-2.4,2.7l4.1,80.8c0.1,1.4,1.3,2.5,2.7,2.4l128.5-6.5c1.4-0.1,2.5-1.3,2.4-2.7l-4.1-80.8
				C282.2,128.6,281,127.5,279.6,127.6z"/>
			<path class="st18" d="M279.6,127.6l-73.8,3.8l-2.2-8.7c-0.2-0.8-0.9-1.3-1.7-1.2l-37.3,1.9c-0.8,0-1.4,0.6-1.5,1.4l-1.3,8.9
				l-10.5,0.5c-1.4,0.1-2.5,1.3-2.4,2.7l4.1,80.8c0.1,1.4,1.3,2.5,2.7,2.4l128.5-6.5c1.4-0.1,2.5-1.3,2.4-2.7l-4.1-80.8
				C282.2,128.6,281,127.5,279.6,127.6z"/>
		</g>
		
			<rect x="167.9" y="125.3" transform="matrix(0.9987 -5.082253e-02 5.082253e-02 0.9987 -6.2386 9.4856)" class="st9" width="31.1" height="4.1"/>
	</g>
	<g>
		<g>
			<path class="st13" d="M232.9,151.7l-76.2,18.7l-3.8-8.2c-0.3-0.7-1.1-1.1-1.9-0.9l-36.3,8.9c-0.8,0.2-1.3,0.9-1.3,1.7l0.4,9
				l-5.8,1.4c-1.4,0.3-2.2,1.7-1.9,3.1l19.3,78.6c0.3,1.4,1.7,2.2,3.1,1.9l124.9-30.7c1.4-0.3,2.2-1.7,1.9-3.1L236,153.5
				C235.6,152.2,234.3,151.3,232.9,151.7z"/>
			<path class="st19" d="M232.9,151.7l-76.2,18.7l-3.8-8.2c-0.3-0.7-1.1-1.1-1.9-0.9l-36.3,8.9c-0.8,0.2-1.3,0.9-1.3,1.7l0.4,9
				l-5.8,1.4c-1.4,0.3-2.2,1.7-1.9,3.1l19.3,78.6c0.3,1.4,1.7,2.2,3.1,1.9l124.9-30.7c1.4-0.3,2.2-1.7,1.9-3.1L236,153.5
				C235.6,152.2,234.3,151.3,232.9,151.7z"/>
		</g>
		
			<rect x="118.5" y="168.7" transform="matrix(0.9711 -0.2387 0.2387 0.9711 -36.8735 36.9264)" class="st9" width="31.1" height="4.1"/>
	</g>
	<g>
		<path class="st13" d="M234.7,177.8l-124.9,30.7c-1.4,0.3-2.2,1.7-1.9,3.1l19.3,78.6c0.3,1.4,1.7,2.2,3.1,1.9l124.9-30.7
			c1.4-0.3,2.2-1.7,1.9-3.1l-19.3-78.6C237.4,178.3,236,177.5,234.7,177.8z"/>
		<path class="st13" d="M153.1,200.1l-39.8,9.8c-1,0.2-2-0.5-2-1.5l-0.4-9.3c0-0.8,0.5-1.5,1.3-1.7l36.3-8.9
			c0.8-0.2,1.6,0.2,1.9,0.9l3.9,8.4C154.6,198.8,154.1,199.9,153.1,200.1z"/>
		
			<rect x="115.9" y="195.9" transform="matrix(0.9711 -0.2387 0.2387 0.9711 -43.4407 37.082)" class="st9" width="31.1" height="4.1"/>
	</g>
</g>
</svg>
