<?xml version="1.0" encoding="utf-8"?>
<!-- Generator: Adobe Illustrator 24.2.1, SVG Export Plug-In . SVG Version: 6.00 Build 0)  -->
<svg version="1.1" xmlns="http://www.w3.org/2000/svg" xmlns:xlink="http://www.w3.org/1999/xlink" x="0px" y="0px"
	 viewBox="0 0 500 342.8" style="enable-background:new 0 0 500 342.8;" xml:space="preserve">
<style type="text/css">
	.st0{fill:#EBEBEB;}
	.st1{fill:#E6E6E6;}
	.st2{fill:#F0F0F0;}
	.st3{fill:#FAFAFA;}
	.st4{fill:#FFFFFF;}
	.st5{fill:#F5F5F5;}
	.st6{opacity:0.7;fill:#E6E6E6;}
	.st7{display:none;}
	.st8{display:inline;}
	.st9{fill:#407BFF;}
	.st10{opacity:0.9;fill:#FFFFFF;}
	.st11{fill:#FFC3BD;}
	.st12{fill:#263238;}
	.st13{opacity:0.5;fill:#407BFF;}
	.st14{opacity:0.2;}
	.st15{opacity:0.3;fill:#FAFAFA;}
	.st16{fill:#ED847E;}
	.st17{opacity:0.7;fill:#FAFAFA;}
</style>
<g id="Background_Complete">
	<g>
		<rect x="0.8" y="298.1" class="st0" width="498.2" height="0.2"/>
		<rect x="50.7" y="312.6" class="st0" width="33" height="0.2"/>
		<rect x="168.9" y="315.1" class="st0" width="8.7" height="0.2"/>
		<rect x="84.7" y="304.2" class="st0" width="19.1" height="0.2"/>
		<rect x="403.7" y="305.8" class="st0" width="43" height="0.2"/>
		<rect x="388.5" y="305.8" class="st0" width="6.3" height="0.2"/>
		<rect x="274.6" y="309.6" class="st0" width="93.3" height="0.2"/>
		<path class="st0" d="M257.1,252.5V6.4c0-2.9,2.6-5.2,5.7-5.2h192.4c3.1,0,5.7,2.3,5.7,5.2v246c0,2.9-2.6,5.2-5.7,5.2H262.8
			C259.7,257.6,257.1,255.3,257.1,252.5z M262.8,1.5c-3,0-5.4,2.2-5.4,4.9v246c0,2.7,2.4,4.9,5.4,4.9h192.4c3,0,5.4-2.2,5.4-4.9V6.4
			c0-2.7-2.4-4.9-5.4-4.9H262.8z"/>
		<path class="st0" d="M41.6,252.5V6.4c0-2.9,2.6-5.2,5.7-5.2h192.4c3.1,0,5.7,2.3,5.7,5.2v246c0,2.9-2.6,5.2-5.7,5.2H47.3
			C44.1,257.6,41.6,255.3,41.6,252.5z M47.3,1.5c-3,0-5.4,2.2-5.4,4.9v246c0,2.7,2.4,4.9,5.4,4.9h192.4c3,0,5.4-2.2,5.4-4.9V6.4
			c0-2.7-2.4-4.9-5.4-4.9H47.3z"/>
	</g>
	<g>
		<g>
			<g>
				
					<rect x="179.5" y="3.6" transform="matrix(-1 -4.489532e-11 4.489532e-11 -1 609.7516 150.7883)" class="st1" width="250.7" height="143.6"/>
				
					<rect x="175.8" y="3.6" transform="matrix(-1 -4.489887e-11 4.489887e-11 -1 604.2809 150.7883)" class="st2" width="252.7" height="143.6"/>
				
					<rect x="236.2" y="-45.7" transform="matrix(-4.489050e-11 1 -1 -4.489050e-11 377.5346 -226.7463)" class="st3" width="131.9" height="242.2"/>
				<polygon class="st4" points="393.5,141.3 362.9,9.4 322.7,9.4 353.4,141.3 				"/>
				<polygon class="st4" points="346.9,141.3 316.2,9.4 298.1,9.4 328.7,141.3 				"/>
				<polygon class="st4" points="274.9,141.3 244.3,9.4 213.3,9.4 243.9,141.3 				"/>
				
					<rect x="115.4" y="75.1" transform="matrix(-4.489671e-11 1 -1 -4.489671e-11 256.7455 -105.9572)" class="st1" width="131.9" height="0.7"/>
				
					<rect x="294.6" y="3.6" transform="matrix(-1 -4.493262e-11 4.493262e-11 -1 604.2809 150.7883)" class="st2" width="15.1" height="143.6"/>
				
					<rect x="244.1" y="75.1" transform="matrix(-4.489050e-11 1 -1 -4.489050e-11 385.3957 -234.6074)" class="st1" width="131.9" height="0.7"/>
				
					<rect x="301.9" y="3.6" transform="matrix(-1 -4.510626e-11 4.510626e-11 -1 604.2809 150.7883)" class="st1" width="0.5" height="143.6"/>
			</g>
		</g>
		<g>
			
				<rect x="270" y="203.4" transform="matrix(-1 -4.488644e-11 4.488644e-11 -1 561.2064 499.7257)" class="st1" width="21.3" height="93"/>
			<polygon class="st5" points="279.2,296.3 270,296.3 270,280.9 288.8,280.9 			"/>
			
				<rect x="434.9" y="203.4" transform="matrix(-1 -4.492907e-11 4.492907e-11 -1 890.9999 499.7257)" class="st1" width="21.3" height="93"/>
			
				<rect x="270" y="203.4" transform="matrix(-1 -4.489399e-11 4.489399e-11 -1 712.8812 494.4163)" class="st5" width="172.9" height="87.6"/>
			<polygon class="st5" points="433.7,296.3 442.9,296.3 442.9,280.9 424.1,280.9 			"/>
			
				<rect x="277.1" y="210.8" transform="matrix(-1 -4.489354e-11 4.489354e-11 -1 712.8812 453.8448)" class="st2" width="158.6" height="32.3"/>
			<path class="st4" d="M347,226.9c0-5.2,4.2-9.4,9.4-9.4s9.4,4.2,9.4,9.4c0,5.2-4.2,9.4-9.4,9.4S347,232.1,347,226.9z M348,226.9
				c0,4.7,3.8,8.4,8.4,8.4c4.7,0,8.4-3.8,8.4-8.4c0-4.7-3.8-8.4-8.4-8.4C351.8,218.5,348,222.3,348,226.9z"/>
			
				<rect x="277.1" y="250.9" transform="matrix(-1 -4.489354e-11 4.489354e-11 -1 712.8812 534.1174)" class="st2" width="158.6" height="32.3"/>
			<path class="st4" d="M347,267.1c0-5.2,4.2-9.4,9.4-9.4s9.4,4.2,9.4,9.4c0,5.2-4.2,9.4-9.4,9.4S347,272.3,347,267.1z M348,267.1
				c0,4.7,3.8,8.4,8.4,8.4c4.7,0,8.4-3.8,8.4-8.4c0-4.7-3.8-8.4-8.4-8.4C351.8,258.6,348,262.4,348,267.1z"/>
		</g>
		<g>
			<g>
				<g>
					<rect x="177.8" y="227.5" class="st1" width="70.6" height="68.9"/>
					
						<rect x="85" y="227.5" transform="matrix(-1 -4.489354e-11 4.489354e-11 -1 262.8073 523.8074)" class="st2" width="92.8" height="68.9"/>
					<rect x="85" y="221.6" class="st6" width="163.5" height="11.4"/>
				</g>
				<g>
					<rect x="177.8" y="220.9" class="st1" width="74.2" height="6.6"/>
					
						<rect x="81.4" y="220.9" transform="matrix(-1 -4.489532e-11 4.489532e-11 -1 259.2452 448.3451)" class="st2" width="96.4" height="6.6"/>
				</g>
			</g>
			<g>
				
					<ellipse transform="matrix(0.9074 -0.4203 0.4203 0.9074 -107.0442 57.2991)" class="st1" cx="76.5" cy="271.5" rx="24.8" ry="24.8"/>
				<path class="st6" d="M82.1,253.3c2.1,0.4,3.9-0.1,4.1-1.2c0.2-1-1.4-2.2-3.4-2.6c-2.1-0.4-3.9,0.1-4.1,1.2
					C78.5,251.7,80,252.9,82.1,253.3z"/>
				<ellipse transform="matrix(0.7151 -0.699 0.699 0.7151 -153.8264 138.5182)" class="st6" cx="93" cy="258" rx="1.9" ry="3.8"/>
				<path class="st6" d="M83.3,262.3c1.7,1.3,3.7,1.5,4.5,0.4c0.8-1,0.1-2.9-1.6-4.2c-1.7-1.3-3.7-1.5-4.5-0.4
					C80.9,259.1,81.6,261,83.3,262.3z"/>
			</g>
		</g>
		<g>
			
				<rect x="70" y="20.6" transform="matrix(-1 -4.490509e-11 4.490509e-11 -1 211.5129 150.7883)" class="st1" width="71.4" height="109.5"/>
			
				<rect x="64" y="20.6" transform="matrix(-1 -4.488466e-11 4.488466e-11 -1 203.8026 150.7883)" class="st5" width="75.8" height="109.5"/>
			
				<rect x="52" y="42.3" transform="matrix(-4.488872e-11 1 -1 -4.488872e-11 177.2955 -26.5071)" class="st4" width="99.8" height="66.1"/>
			
				<rect x="99.1" y="54" transform="matrix(-4.464891e-11 1 -1 -4.464891e-11 177.2955 -26.5072)" class="st5" width="5.6" height="42.9"/>
			
				<rect x="99.1" y="39.8" transform="matrix(-4.513563e-11 1 -1 -4.513563e-11 163.1722 -40.6305)" class="st5" width="5.6" height="42.9"/>
			
				<rect x="99.1" y="25.7" transform="matrix(-4.497310e-11 1 -1 -4.497310e-11 149.0489 -54.7538)" class="st5" width="5.6" height="42.9"/>
			
				<rect x="99.1" y="68.1" transform="matrix(-4.480967e-11 1 -1 -4.480967e-11 191.4189 -12.3838)" class="st5" width="5.6" height="42.9"/>
			
				<rect x="99.1" y="82.2" transform="matrix(-4.497310e-11 1 -1 -4.497310e-11 205.5422 1.7396)" class="st5" width="5.6" height="42.9"/>
		</g>
	</g>
</g>
<g id="Background_Simple" class="st7">
	<g class="st8">
		<path class="st9" d="M237.8,11.5C187,26.7,65.3,23.1,102.5,115c24.4,60.3,149.5,86.2,205.6,69.9c63.1-18.4,106.9-84,91.9-147.9
			c-8-34.1-37.4-66.5-76.5-66.1C289.3-28.8,268.5,2.3,237.8,11.5z"/>
		<path class="st10" d="M237.8,11.5C187,26.7,65.3,23.1,102.5,115c24.4,60.3,149.5,86.2,205.6,69.9c63.1-18.4,106.9-84,91.9-147.9
			c-8-34.1-37.4-66.5-76.5-66.1C289.3-28.8,268.5,2.3,237.8,11.5z"/>
	</g>
</g>
<g id="Shadow_1_">
	<ellipse id="_x3C_Path_x3E__1_" class="st5" cx="249.9" cy="330.1" rx="193.2" ry="11.3"/>
</g>
<g id="Character_1_">
	<g>
		<polygon class="st11" points="288,321.4 280.4,319.3 283.3,301.3 290.8,303.3 		"/>
		<polygon class="st11" points="352.3,321.6 344.4,321.6 342.5,303.4 350.3,303.4 		"/>
		<path class="st12" d="M343.8,320.7h9.6c0.3,0,0.6,0.2,0.7,0.5l1.5,7c0.2,0.7-0.4,1.4-1.1,1.4c-3.1-0.1-5.3-0.2-9.2-0.2
			c-2.4,0-9.6,0.2-12.9,0.2c-3.2,0-3.7-3.3-2.4-3.5c6-1.3,10.6-3.1,12.5-4.9C342.9,320.8,343.3,320.7,343.8,320.7z"/>
		<path class="st12" d="M280.7,318.5l8.2,2.3c0.3,0.1,0.5,0.4,0.5,0.7l-0.4,7.1c0,0.7-0.7,1.3-1.5,1c-3-0.9-7.2-2.2-11-3.3
			c-4.4-1.2-8.2-2-13.3-3.4c-3.1-0.9-3.1-4.2-1.7-4.2c6.3,0.3,11.1,1.5,17.1-0.2C279.4,318.3,280.1,318.3,280.7,318.5z"/>
		<path class="st11" d="M309.4,76.3c-0.3,0.4-0.7,0.9-1.1,1.3L307,79c-0.8,0.9-1.7,1.9-2.6,2.8c-1.8,1.8-3.6,3.6-5.5,5.1
			c-3.7,3.2-7.8,5.9-11.8,7.2c-0.5,0.2-1,0.3-1.5,0.4l-0.7,0.1c-0.4,0.1,0,0,0,0.1c0.1,0-0.1,0.1-0.4-0.1c-0.3-0.1-0.7-0.3-1.2-0.5
			c-0.9-0.5-1.9-1.1-2.8-1.8c-1-0.7-2-1.5-2.9-2.3c-3.9-3.3-7.8-7.1-11.5-10.9l-4.7,3.5c2.8,4.9,6,9.5,9.8,13.9
			c1.9,2.2,4,4.3,6.8,6.3c0.7,0.5,1.5,1,2.4,1.4c0.9,0.4,2,0.9,3.5,1.1c0.7,0.1,1.8,0.1,2.1,0l1.3-0.1c0.9-0.1,1.7-0.3,2.5-0.5
			c1.7-0.4,3.2-0.9,4.7-1.5c1.5-0.6,2.9-1.3,4.3-2.1c2.7-1.5,5.2-3.3,7.5-5.1c2.3-1.9,4.5-3.8,6.5-5.9c1-1,2-2.1,3-3.2
			c0.5-0.5,1-1.1,1.4-1.7c0.5-0.6,0.9-1.1,1.4-1.8L309.4,76.3z"/>
		<polygon class="st12" points="306.7,100.2 303.6,103.3 289.6,92 294.6,88.1 		"/>
		<g>
			<path class="st12" d="M323.1,79.6c0.6,7.5-16.2,22.7-16.2,22.7L292,89.5c0,0,6.3-6.6,13.3-13.3C310.1,71.6,322.5,71.6,323.1,79.6
				z"/>
			<path class="st13" d="M323.1,79.6c0.6,7.5-16.2,22.7-16.2,22.7L292,89.5c0,0,6.3-6.6,13.3-13.3C310.1,71.6,322.5,71.6,323.1,79.6
				z"/>
			<path class="st14" d="M301.7,97.9c0.1-0.7,0.3-1.4,0.5-2.1c1.9-6.1,6.3-11.7,13.3-12.3c3.1-0.3,4,1.9,3.8,5.1
				c-4.8,6.8-12.5,13.7-12.5,13.7l-1.3-1.1l-2,2l-2.4-1.9C301.3,100.2,301.4,99,301.7,97.9z"/>
		</g>
		<path class="st11" d="M266.8,81.8l-2.2-6.6l-8.8,2.3c0,0,2.8,3.3,6,5.7L266.8,81.8z"/>
		<polygon class="st11" points="261,72.4 253.7,74.9 255.7,77.5 264.5,75.2 		"/>
		<g>
			<polygon class="st14" points="283.3,301.3 281.8,310.6 289.4,312.7 290.8,303.4 			"/>
			<polygon class="st14" points="350.3,303.4 342.5,303.4 343.5,312.8 351.3,312.8 			"/>
		</g>
		<g>
			<path class="st12" d="M354.9,76c-2.4,8.7-4,17.5-5,25.8c-0.7,6.1-1.2,11.9-1.5,17.1c-0.7,12.3-0.4,21.7-0.7,24.9
				c-6.1-0.4-29.2-2-41.8-2.9c-5.7-44.6,5.2-67.5,5.2-67.5s4.6-0.9,10-1.2c0.7,0,1.4-0.1,2.2-0.1c4.7-0.1,12.5,0.6,17.8,1.2
				c1.1,0.1,2.3,0.3,3.3,0.5C350,74.7,354.9,76,354.9,76z"/>
			<path class="st13" d="M354.9,76c-2.4,8.7-4,17.5-5,25.8c-0.7,6.1-1.2,11.9-1.5,17.1c-0.7,12.3-0.4,21.7-0.7,24.9
				c-6.1-0.4-29.2-2-41.8-2.9c-5.7-44.6,5.2-67.5,5.2-67.5s4.6-0.9,10-1.2c0.7,0,1.4-0.1,2.2-0.1c4.7-0.1,12.5,0.6,17.8,1.2
				c1.1,0.1,2.3,0.3,3.3,0.5C350,74.7,354.9,76,354.9,76z"/>
			<g>
				<path class="st4" d="M315.3,99.1l9.1,0.6c0.3,0,0.5-0.2,0.6-0.5l0.1-0.4c0.1-0.4,0.6-0.6,0.9-0.4l4.9,4c0.3,0.2,0.2,0.7-0.1,0.8
					l-6.2,3.3c-0.4,0.2-0.8-0.1-0.7-0.5l0.1-0.4c0-0.3-0.1-0.5-0.4-0.5l-9.1-0.6c-0.3,0-0.5-0.3-0.4-0.5l0.8-4.5
					C314.8,99.3,315,99,315.3,99.1z"/>
				<path class="st4" d="M331.6,96.8l-9.1-0.6c-0.3,0-0.5,0.2-0.6,0.5l-0.1,0.4c-0.1,0.4-0.6,0.6-0.9,0.4l-4.9-4
					c-0.3-0.2-0.2-0.7,0.1-0.8l6.2-3.3c0.4-0.2,0.8,0.1,0.7,0.5l-0.1,0.4c0,0.3,0.1,0.5,0.4,0.5l9.1,0.6c0.3,0,0.5,0.3,0.4,0.5
					l-0.8,4.5C332.1,96.6,331.9,96.8,331.6,96.8z"/>
			</g>
		</g>
		<path class="st12" d="M341.1,73.3c-5.3-0.6-13-1.3-17.8-1.2c-0.7,0-1.5,0-2.2,0.1c-0.1,0-0.2,0-0.2,0c-1.3,2.6-2.9,10.4,2.9,11.2
			c7.9,1.1,16.9-5.7,20.6-9.6C343.3,73.6,342.2,73.4,341.1,73.3z"/>
		<path class="st14" d="M344.4,87.3c0,7,1.9,12.9,5.2,18.1c0.1-1.2,0.3-2.4,0.4-3.6c0.6-4.6,1.3-9.3,2.2-14.1L344.4,87.3z"/>
		<path class="st11" d="M340.7,53.1c-1.5,5.6-3.4,16,0.4,20.1c-3.1,2.8-7.7,5.1-14.1,4.5c-4.9-0.4-4.9-3.9-3.7-5.7
			c6.5-1.1,6.6-5.8,5.8-10.3L340.7,53.1z"/>
		<path class="st14" d="M336,56.6l-6.8,5.1c0.2,1.1,0.3,2.2,0.3,3.2c2.5-0.2,6-2.6,6.4-5.2C336.1,58.5,336.1,57.2,336,56.6z"/>
		<path class="st12" d="M311.9,23.3c-2.9,6.1,8.5,20.9,17.8,19.3c4.5-0.8,10.6-2.4,15.6-3.8c4.5-1.3,6.2-7.3,1.9-8
			C332.6,28.2,316.7,13.2,311.9,23.3z"/>
		<path class="st11" d="M342,44.6c-1,7.7-1.2,12.3-5.4,16c-6.3,5.6-15.6,1.4-16.9-6.5c-1.2-7.1,0.7-18.5,8.5-21
			C335.8,30.5,343,36.9,342,44.6z"/>
		<path class="st12" d="M327,54.4C327,54.4,327,54.4,327,54.4c3.2,0.2,4.8-1.9,4.9-2c0.1-0.1,0-0.2,0-0.3c-0.1-0.1-0.2,0-0.3,0
			c0,0-1.5,2-4.5,1.8c-0.1,0-0.2,0.1-0.2,0.2C326.8,54.3,326.9,54.4,327,54.4z"/>
		<path class="st12" d="M336.6,48.1c-2.9-6.4-3.5-12.9,1.8-14.9c5.3-2,9.8,0.7,11.3,4.7C351.1,41.9,340.8,57.3,336.6,48.1z"/>
		<path class="st12" d="M342.6,35.9c-5.4,3.8-23.7,4.1-21.1-2.8C323.4,27.9,336.2,28.1,342.6,35.9z"/>
		<path class="st11" d="M344.9,53.4c-1.2,1.7-3.1,2.7-4.8,2.9c-2.6,0.4-3.5-2-2.5-4.2c0.9-2,3.3-4.7,5.7-4
			C345.7,48.7,346.3,51.4,344.9,53.4z"/>
		<g>
			<path class="st9" d="M279.5,308l12.8,3.5c0,0,16-50.5,20-78.2c1-7.4,2.7-17.7,5.1-28.7c3.1-13.9,7-28.9,10.2-40.7
				c3.4-12.4,5.9-21.1,5.9-21.1l-27.5-1.9c0,0-14.9,64.9-16.4,88.7C287.8,254.4,279.5,308,279.5,308z"/>
			<path class="st15" d="M279.5,308l12.8,3.5c0,0,16-50.5,20-78.2c1-7.4,2.7-17.7,5.1-28.7c3.1-13.9,7-28.9,10.2-40.7
				c3.4-12.4,5.9-21.1,5.9-21.1l-27.5-1.9c0,0-14.9,64.9-16.4,88.7C287.8,254.4,279.5,308,279.5,308z"/>
		</g>
		<path class="st14" d="M317.3,204.6c3.1-13.9,7-28.9,10.2-40.7l-2.9-6.1C317.8,165.9,316,191,317.3,204.6z"/>
		<g>
			<path class="st9" d="M320.8,141.9c0,0,3,67.1,6.3,89.8c3.6,24.9,12.8,79.3,12.8,79.3h14.4c0,0,0.2-51.6-4.3-75.7
				c-5.1-27.5-2.2-91.5-2.2-91.5L320.8,141.9z"/>
			<path class="st15" d="M320.8,141.9c0,0,3,67.1,6.3,89.8c3.6,24.9,12.8,79.3,12.8,79.3h14.4c0,0,0.2-51.6-4.3-75.7
				c-5.1-27.5-2.2-91.5-2.2-91.5L320.8,141.9z"/>
		</g>
		<polygon class="st9" points="338.1,311.3 355,311.3 355,306.3 336.2,305.9 		"/>
		<polygon class="st9" points="278.6,308.1 293,312.1 295.1,307.1 278.6,302.6 		"/>
		<path class="st12" d="M330.1,45.9c0,0.6-0.4,1.1-0.8,1.1c-0.4,0-0.7-0.6-0.7-1.2c0-0.6,0.4-1.1,0.8-1.1
			C329.8,44.8,330.1,45.3,330.1,45.9z"/>
		<path class="st12" d="M323,45.4c0,0.6-0.4,1.1-0.8,1.1s-0.7-0.6-0.7-1.2c0-0.6,0.4-1.1,0.8-1.1C322.7,44.3,323,44.8,323,45.4z"/>
		<path class="st16" d="M325.2,45.9c0,0-1.7,3.5-3.4,5.2c1,1.1,3.1,0.6,3.1,0.6L325.2,45.9z"/>
		<path class="st12" d="M332.5,43.8c-0.1,0-0.3,0-0.4-0.2c-0.9-1.4-2.3-1.4-2.3-1.4c-0.2,0-0.4-0.2-0.4-0.4c0-0.2,0.2-0.4,0.4-0.4
			c0.1,0,1.8,0,2.9,1.7c0.1,0.2,0.1,0.4-0.1,0.5C332.6,43.7,332.5,43.8,332.5,43.8z"/>
		<path class="st12" d="M320.1,42.8c-0.1,0-0.2,0-0.2,0c-0.2-0.1-0.2-0.3-0.1-0.5c1-1.8,2.7-1.9,2.8-1.9c0.2,0,0.4,0.1,0.4,0.4
			c0,0.2-0.2,0.4-0.3,0.4l0,0c-0.1,0-1.4,0.1-2.2,1.5C320.3,42.7,320.2,42.7,320.1,42.8z"/>
		<path class="st9" d="M343.2,321.8c0.1,0,0.1-0.1,0.1-0.2c0-0.1,0-0.1-0.1-0.2c-0.3-0.2-2.8-1.7-3.7-1.3c-0.1,0.1-0.3,0.2-0.3,0.5
			c0,0.4,0.1,0.7,0.4,1c0.4,0.3,0.9,0.4,1.5,0.4C341.9,322,342.7,321.9,343.2,321.8z M342.7,321.5c-1.3,0.3-2.4,0.2-2.8-0.1
			c-0.2-0.2-0.3-0.4-0.3-0.7c0-0.1,0.1-0.2,0.1-0.2c0.1,0,0.1,0,0.2,0C340.6,320.4,341.8,321,342.7,321.5z"/>
		<path class="st9" d="M343.3,321.7c0.1,0,0.1-0.1,0.1-0.2c0-0.1-0.2-2.4-1.1-3.1c-0.2-0.2-0.5-0.3-0.8-0.2
			c-0.4,0.1-0.6,0.3-0.6,0.5c-0.2,0.9,1.4,2.6,2.2,3c0,0,0.1,0,0.1,0C343.2,321.8,343.3,321.8,343.3,321.7z M342,318.8
			c0.6,0.5,0.8,1.8,0.9,2.5c-0.8-0.6-1.8-1.9-1.7-2.4c0,0,0-0.2,0.3-0.2c0,0,0.1,0,0.1,0C341.8,318.6,341.9,318.7,342,318.8z"/>
		<path class="st9" d="M279.9,319.2c0-0.1,0-0.2,0-0.2c-0.3-0.3-2.9-2.6-4-2.4c-0.2,0.1-0.4,0.2-0.4,0.4c-0.1,0.3-0.1,0.7,0.1,1
			c0.6,1,2.9,1.3,4.2,1.4c0,0,0,0,0,0C279.8,319.3,279.8,319.2,279.9,319.2z M279.1,318.9c-1.7-0.2-3-0.6-3.3-1.1
			c-0.1-0.2-0.1-0.4-0.1-0.6c0-0.1,0.1-0.1,0.2-0.2c0,0,0,0,0.1,0C276.6,316.9,278.1,318,279.1,318.9z"/>
		<path class="st9" d="M279.8,319.3c0.1,0,0.1-0.1,0.1-0.1c0-0.1,0.4-2.2-0.4-3.2c-0.2-0.3-0.5-0.5-0.9-0.6
			c-0.5-0.1-0.7,0.1-0.8,0.3c-0.4,0.8,1,2.9,1.8,3.6C279.6,319.3,279.7,319.3,279.8,319.3C279.7,319.3,279.7,319.3,279.8,319.3z
			 M278.5,315.7c0.3,0,0.5,0.2,0.7,0.4c0.5,0.7,0.4,2,0.4,2.6c-0.8-0.8-1.7-2.4-1.4-2.9c0,0,0-0.1,0.2-0.1
			C278.4,315.7,278.4,315.7,278.5,315.7z"/>
		<g>
			<g>
				<path class="st12" d="M355.1,141.3L355.1,141.3c0.1-1.7,1.3-3.1,2.8-3.3l23.3-2.6c1.8-0.2,3.4,1.3,3.6,3.4l6.8,60.6
					c0.2,2.1-1,3.9-2.8,4.1l-74,8.4c-1.8,0.2-3.4-1.3-3.6-3.4l-5.7-50.9c-0.2-2.1,1-3.9,2.8-4.1l40.3-4.5
					C352,148.5,354.7,145.3,355.1,141.3z"/>
				<path class="st9" d="M345.2,154.6L345.2,154.6c-0.1-1.5,0.9-2.7,2.3-2.9l23.3-2.6c1.8-0.2,3.7,1.1,4.2,2.9l14.7,48
					c0.6,1.8-0.4,3.4-2.2,3.6l-74,8.4c-1.8,0.2-3.7-1.1-4.2-2.9l-12.2-39.6c-0.6-1.8,0.4-3.4,2.2-3.6l40.3-4.5
					C343.2,160.9,345.5,158.1,345.2,154.6z"/>
			</g>
			<path class="st11" d="M346.5,87.5l2.2,3.1c0.7,1.1,1.5,2.2,2.2,3.3c1.4,2.2,2.8,4.4,4.2,6.6c1.3,2.2,2.6,4.5,3.8,6.8
				c1.1,2.3,2.2,4.6,3,6.9l0.1,0.2l0,0.1c0,0.1,0,0.1,0.1,0.2c0,0.2,0.1,0.3,0.1,0.5c0.1,0.4,0.1,0.9,0.2,1.5c0.1,1.1,0.1,2.3,0,3.5
				c-0.1,2.5-0.4,5.1-0.8,7.7c-0.8,5.2-1.7,10.6-2.7,15.8l5.6,1.9c2.3-5.1,4.3-10.3,5.9-15.8c0.8-2.7,1.5-5.5,2-8.5
				c0.2-1.5,0.4-3,0.5-4.7c0-0.8,0-1.7-0.1-2.6c0-0.5-0.1-1-0.2-1.5l-0.2-0.8l-0.1-0.4l-0.1-0.3c-1.7-5.8-4.1-11.1-6.8-16.2
				c-1.4-2.5-2.8-5-4.4-7.4c-0.8-1.2-1.6-2.4-2.4-3.5c-0.8-1.2-1.6-2.3-2.6-3.5L346.5,87.5z"/>
			<polygon class="st12" points="367.2,94.5 369.7,98.1 356.3,110 353.3,104.5 			"/>
			<g>
				<path class="st12" d="M354.9,76c7.3,1.5,13.8,19.4,13.8,19.4L353.4,108c0,0-5-9.1-9-17.9C340,80.4,346,74.2,354.9,76z"/>
				<path class="st13" d="M354.9,76c7.3,1.5,13.8,19.4,13.8,19.4L353.4,108c0,0-5-9.1-9-17.9C340,80.4,346,74.2,354.9,76z"/>
			</g>
			<path class="st11" d="M359.6,142.1l-5.3,5.9l9.6,2.9c0,0,3.4-6.1,0.4-8.2L359.6,142.1z"/>
			<polygon class="st11" points="353.9,154.6 361.9,156.7 363.9,151 354.3,148.1 			"/>
		</g>
	</g>
</g>
<g id="Folder">
	<g>
		<g>
			<path class="st12" d="M174.4,48L174.4,48c0.5-1.7,2-2.7,3.5-2.5l23.3,2.7c1.8,0.2,3,2,2.8,4.1l-7,60.6c-0.2,2.1-1.9,3.6-3.6,3.4
				l-74-8.5c-1.8-0.2-3-2-2.8-4.1l5.8-50.9c0.2-2.1,1.9-3.6,3.6-3.4l40.3,4.6C169.8,54.4,173.1,51.9,174.4,48z"/>
			<g>
				<g>
					<path class="st9" d="M165.2,29.6c-1.8,20.3-5.3,40.1-10.3,59.4c17.8,4.7,35.5,9.8,53.2,15.4c7.3-27.5,11.8-56.1,13.4-85.3
						c-13.4-1.5-26.9-2.8-40.3-3.8C175.9,20.2,170.6,25,165.2,29.6z"/>
					<path class="st17" d="M165.2,29.6c-1.8,20.3-5.3,40.1-10.3,59.4c17.8,4.7,35.5,9.8,53.2,15.4c7.3-27.5,11.8-56.1,13.4-85.3
						c-13.4-1.5-26.9-2.8-40.3-3.8C175.9,20.2,170.6,25,165.2,29.6z"/>
					<g>
						<path class="st9" d="M169.7,39.5c14.6,1.9,29.3,4.1,43.9,6.6c0.6,0.1,1.2-0.4,1.3-1.1c0,0,0,0,0,0c0.1-0.7-0.4-1.4-1-1.5
							c-14.6-2.4-29.3-4.5-43.9-6.3c-0.6-0.1-1.2,0.4-1.3,1c0,0,0,0,0,0C168.6,38.8,169.1,39.4,169.7,39.5z"/>
						<path class="st9" d="M168.8,46.9c14.6,2.2,29.2,4.6,43.7,7.4c0.6,0.1,1.2-0.4,1.3-1.1c0,0,0,0,0,0c0.1-0.7-0.3-1.4-1-1.5
							c-14.6-2.7-29.2-5.1-43.8-7.1c-0.6-0.1-1.2,0.4-1.3,1l0,0C167.7,46.2,168.1,46.8,168.8,46.9z"/>
						<path class="st9" d="M167.7,54.2c14.6,2.4,29.1,5.2,43.6,8.2c0.6,0.1,1.2-0.4,1.3-1.1l0,0c0.1-0.7-0.3-1.4-0.9-1.5
							c-14.5-3-29.1-5.6-43.6-8c-0.6-0.1-1.2,0.3-1.3,1c0,0,0,0,0,0C166.6,53.5,167.1,54.1,167.7,54.2z"/>
						<path class="st9" d="M166.5,61.6c14.5,2.7,29,5.7,43.4,9.1c0.6,0.1,1.2-0.3,1.4-1c0,0,0,0,0,0c0.1-0.7-0.3-1.4-0.9-1.6
							c-14.5-3.2-29-6.2-43.5-8.8c-0.6-0.1-1.2,0.3-1.3,1l0,0C165.4,60.8,165.9,61.4,166.5,61.6z"/>
						<path class="st9" d="M182.3,72.5c8.7,1.9,17.4,4,26,6.2c0.6,0.2,1.2-0.3,1.4-1c0,0,0,0,0,0c0.1-0.7-0.3-1.4-0.9-1.6
							c-8.7-2.1-17.4-4.1-26.1-6c-0.6-0.1-1.2,0.3-1.4,1l0,0C181.3,71.7,181.7,72.4,182.3,72.5z"/>
					</g>
					<path class="st9" d="M165.2,29.6c4.9,0.5,9.9,1,14.8,1.6c0.5-5.3,0.9-10.6,1.1-15.9C175.9,20.2,170.6,25,165.2,29.6z"/>
				</g>
			</g>
			<path class="st9" d="M161.8,58.8L161.8,58.8c0.2-1.5,1.4-2.5,2.9-2.3l23.3,2.7c1.8,0.2,3.3,1.9,3.4,3.8l3.6,50.1
				c0.1,1.9-1.2,3.2-3,3l-74-8.5c-1.8-0.2-3.3-1.9-3.4-3.8l-3-41.3c-0.1-1.9,1.2-3.2,3-3l40.3,4.6C158.4,64.5,161.3,62.3,161.8,58.8
				z"/>
		</g>
		<g>
			<g>
				<path class="st9" d="M219.4,98.6c2.7,19.6,4.9,39.4,6.6,59.2c18.3-1.7,36.7-3.4,55-5.2c-2.3-25.8-5.3-51.5-9.1-77
					c-13.3,2.1-26.6,4.2-39.9,6.2C227.9,87.3,223.6,93,219.4,98.6z"/>
				<path class="st17" d="M219.4,98.6c2.7,19.6,4.9,39.4,6.6,59.2c18.3-1.7,36.7-3.4,55-5.2c-2.3-25.8-5.3-51.5-9.1-77
					c-13.3,2.1-26.6,4.2-39.9,6.2C227.9,87.3,223.6,93,219.4,98.6z"/>
				<g>
					<path class="st9" d="M226,106.8c14.6-1.9,29.2-3.9,43.9-5.9c0.6-0.1,1.1-0.7,1-1.3l0,0c-0.1-0.7-0.7-1.1-1.3-1
						c-14.6,2-29.2,4-43.9,6c-0.6,0.1-1.1,0.7-1,1.3c0,0,0,0,0,0C224.8,106.4,225.4,106.9,226,106.8z"/>
					<path class="st9" d="M226.9,114c14.6-1.8,29.3-3.7,43.9-5.6c0.6-0.1,1.1-0.7,1-1.3l0,0c-0.1-0.7-0.7-1.1-1.3-1
						c-14.6,2-29.3,3.9-43.9,5.7c-0.6,0.1-1.1,0.7-1,1.3l0,0C225.7,113.6,226.3,114.1,226.9,114z"/>
					<path class="st9" d="M227.8,121.2c14.6-1.7,29.3-3.5,43.9-5.4c0.6-0.1,1.1-0.7,1-1.3c0,0,0,0,0,0c-0.1-0.7-0.7-1.1-1.3-1
						c-14.6,1.9-29.3,3.7-43.9,5.5c-0.6,0.1-1.1,0.7-1,1.3c0,0,0,0,0,0C226.6,120.8,227.2,121.3,227.8,121.2z"/>
					<path class="st9" d="M228.6,128.4c14.7-1.7,29.3-3.4,44-5.2c0.6-0.1,1.1-0.7,1-1.3l0,0c-0.1-0.7-0.7-1.1-1.3-1.1
						c-14.6,1.8-29.3,3.6-43.9,5.2c-0.6,0.1-1.1,0.7-1,1.3c0,0,0,0,0,0C227.4,128,228,128.4,228.6,128.4z"/>
					<path class="st9" d="M246.9,133.7c8.8-1,17.7-2,26.5-3c0.6-0.1,1.1-0.7,1-1.3c0,0,0,0,0,0c-0.1-0.7-0.6-1.1-1.3-1.1
						c-8.8,1-17.7,2.1-26.5,3.1c-0.6,0.1-1.1,0.7-1,1.3l0,0C245.7,133.3,246.3,133.7,246.9,133.7z"/>
				</g>
				<path class="st9" d="M219.4,98.6c4.9-0.7,9.8-1.3,14.7-2c-0.7-5-1.4-9.9-2.1-14.9C227.9,87.3,223.6,93,219.4,98.6z"/>
			</g>
		</g>
	</g>
</g>
</svg>
