<?xml version="1.0" encoding="utf-8"?>
<!-- Generator: Adobe Illustrator 24.2.1, SVG Export Plug-In . SVG Version: 6.00 Build 0)  -->
<svg version="1.1" xmlns="http://www.w3.org/2000/svg" xmlns:xlink="http://www.w3.org/1999/xlink" x="0px" y="0px"
	 viewBox="0 0 500 380.12" style="enable-background:new 0 0 500 380.12;" xml:space="preserve">
<g id="Background_Complete">
	<path style="fill:#EBEBEB;" d="M237.01,287.04H43.92c-3.15,0-5.71-2.56-5.71-5.71V9.9c0-3.15,2.56-5.71,5.71-5.71h193.1
		c3.15,0,5.71,2.56,5.71,5.71v271.43C242.72,284.48,240.16,287.04,237.01,287.04z M43.92,4.44c-3.01,0-5.46,2.45-5.46,5.46v271.43
		c0,3.01,2.45,5.46,5.46,5.46h193.1c3.01,0,5.46-2.45,5.46-5.46V9.9c0-3.01-2.45-5.46-5.46-5.46H43.92z"/>
	<path style="fill:#EBEBEB;" d="M453.31,287.04h-193.1c-3.15,0-5.71-2.56-5.71-5.71V9.9c0-3.15,2.56-5.71,5.71-5.71h193.1
		c3.15,0,5.71,2.56,5.71,5.71v271.43C459.02,284.48,456.46,287.04,453.31,287.04z M260.21,4.44c-3.01,0-5.46,2.45-5.46,5.46v271.43
		c0,3.01,2.45,5.46,5.46,5.46h193.1c3.01,0,5.46-2.45,5.46-5.46V9.9c0-3.01-2.45-5.46-5.46-5.46H260.21z"/>
	<rect x="416.78" y="347.73" style="fill:#EBEBEB;" width="33.12" height="0.25"/>
	<rect x="322.53" y="350.45" style="fill:#EBEBEB;" width="8.69" height="0.25"/>
	<rect x="396.59" y="338.45" style="fill:#EBEBEB;" width="19.19" height="0.25"/>
	<rect x="52.46" y="340.13" style="fill:#EBEBEB;" width="43.19" height="0.25"/>
	<rect x="104.56" y="340.13" style="fill:#EBEBEB;" width="6.33" height="0.25"/>
	<rect x="131.47" y="344.35" style="fill:#EBEBEB;" width="93.68" height="0.25"/>
	<rect x="0" y="331.64" style="fill:#EBEBEB;" width="500" height="0.25"/>
	<g>
		<rect x="37.32" y="44.4" style="fill:#E0E0E0;" width="117.62" height="173.8"/>
		<rect x="41.65" y="44.4" style="fill:#F0F0F0;" width="117.62" height="173.8"/>
		<rect x="47.37" y="136.28" style="fill:#EBEBEB;" width="105.95" height="71.74"/>
		<rect x="47.37" y="51.46" style="fill:#FFFFFF;" width="105.95" height="84.82"/>
		<rect x="149.59" y="51.46" style="fill:#E0E0E0;" width="3.73" height="156.56"/>
		
			<rect x="96.62" y="86.7" transform="matrix(6.123234e-17 -1 1 6.123234e-17 -39.6565 236.6895)" style="fill:#E0E0E0;" width="3.78" height="102.95"/>
		<rect x="45.37" y="129.93" style="fill:#F0F0F0;" width="107.95" height="6.35"/>
		<g>
			<g>
				<path style="fill:#E0E0E0;" d="M438.17,332.77H294.81c-10.86,0-19.67-8.81-19.67-19.67v-42.67c0-10.86,8.81-19.67,19.67-19.67
					h143.36c10.86,0,19.67,8.81,19.67,19.67v42.67C457.84,323.97,449.03,332.77,438.17,332.77z"/>
				<path style="fill:#F5F5F5;" d="M428.54,333.38H285.18c-10.86,0-19.67-8.81-19.67-19.67v-42.67c0-10.86,8.81-19.67,19.67-19.67
					h143.36c10.86,0,19.67,8.81,19.67,19.67v42.67C448.21,324.57,439.41,333.38,428.54,333.38z"/>
				<path style="fill:#E0E0E0;" d="M439.84,289.7H274.96v-16.86c0-7.59,6.15-13.74,13.74-13.74h137.4c7.59,0,13.74,6.15,13.74,13.74
					V289.7z"/>
				<path style="fill:#E0E0E0;" d="M426.1,324.44H288.7c-7.59,0-13.74-6.15-13.74-13.74v-16.86h164.88v16.86
					C439.84,318.29,433.69,324.44,426.1,324.44z"/>
				<g>
					<rect x="365.3" y="265.03" style="fill:#E6E6E6;" width="30.19" height="24.87"/>
					<rect x="357.57" y="265.03" style="fill:#F5F5F5;" width="7.73" height="24.87"/>
					<path style="fill:#E0E0E0;" d="M363.98,283.21c0,1.4-1.14,2.54-2.54,2.54c-1.4,0-2.54-1.14-2.54-2.54
						c0-1.4,1.14-2.54,2.54-2.54C362.84,280.67,363.98,281.8,363.98,283.21z"/>
					<rect x="380.73" y="261.19" style="fill:#E6E6E6;" width="22.68" height="28.71"/>
					<g>
						<rect x="374.18" y="261.19" style="fill:#F5F5F5;" width="6.56" height="28.71"/>
						<circle style="fill:#E0E0E0;" cx="377.46" cy="265.36" r="2.25"/>
					</g>
					<circle style="fill:#E0E0E0;" cx="377.46" cy="265.36" r="2.25"/>
					<rect x="387.41" y="265.03" style="fill:#EBEBEB;" width="19.12" height="24.87"/>
					<rect x="383.04" y="265.03" style="fill:#F5F5F5;" width="4.37" height="24.87"/>
					<rect x="403.06" y="269.24" style="fill:#E6E6E6;" width="25.08" height="20.67"/>
					<rect x="396.64" y="269.24" style="fill:#F5F5F5;" width="6.42" height="20.67"/>
					<rect x="415.87" y="266.05" style="fill:#E6E6E6;" width="18.84" height="23.85"/>
					<rect x="410.44" y="266.05" style="fill:#F5F5F5;" width="5.45" height="23.85"/>
					<rect x="421.43" y="269.24" style="fill:#E6E6E6;" width="18.3" height="20.67"/>
					<rect x="417.79" y="269.24" style="fill:#F0F0F0;" width="3.63" height="20.67"/>
				</g>
				<g>
					<rect x="299.96" y="298.62" style="fill:#E6E6E6;" width="23.37" height="24.87"/>
					<rect x="293.98" y="298.62" style="fill:#F5F5F5;" width="5.99" height="24.87"/>
					<rect x="311.9" y="294.78" style="fill:#E6E6E6;" width="17.55" height="28.71"/>
					<rect x="306.84" y="294.78" style="fill:#F5F5F5;" width="5.07" height="28.71"/>
					<rect x="379.68" y="298.62" style="fill:#E6E6E6;" width="23.37" height="24.87"/>
					<rect x="373.7" y="298.62" style="fill:#F5F5F5;" width="5.99" height="24.87"/>
					<rect x="391.62" y="294.78" style="fill:#E6E6E6;" width="17.55" height="28.71"/>
					<rect x="386.56" y="294.78" style="fill:#F5F5F5;" width="5.07" height="28.71"/>
					<rect x="317.08" y="298.62" style="fill:#EBEBEB;" width="14.8" height="24.87"/>
					<rect x="313.7" y="298.62" style="fill:#F5F5F5;" width="3.38" height="24.87"/>
					<rect x="329.19" y="302.83" style="fill:#E6E6E6;" width="19.41" height="20.67"/>
					<rect x="324.22" y="302.83" style="fill:#F5F5F5;" width="4.97" height="20.67"/>
					<rect x="339.11" y="299.64" style="fill:#E6E6E6;" width="14.58" height="23.85"/>
					<rect x="334.9" y="299.64" style="fill:#F5F5F5;" width="4.22" height="23.85"/>
					<rect x="343.41" y="302.83" style="fill:#E6E6E6;" width="14.17" height="20.67"/>
					<rect x="340.59" y="302.83" style="fill:#F0F0F0;" width="2.81" height="20.67"/>
				</g>
				<g>
					<g>
						<g>
							<g>
								<path style="fill:#EBEBEB;" d="M340.45,226.92c-0.5-0.98-1.63-1.55-2.67-1.33c-1.03,0.22-1.88,1.2-1.99,2.3
									c-0.73-0.55-1.77-0.57-2.53-0.07c-0.76,0.51-1.18,1.52-1.02,2.45c-0.82-0.66-2.17-0.39-2.7,0.55
									c-0.53,0.94-0.12,2.33,0.83,2.78c-0.64,0.05-1.19,0.69-1.18,1.37c0.02,0.68,0.6,1.29,1.24,1.3
									c-0.65,0.01-1.25,0.59-1.33,1.27c-0.08,0.68,0.37,1.39,1,1.57c-0.66,0.29-0.83,1.38-0.29,1.88c0.54,0.5,1.54,0.18,1.73-0.55
									c0.1,0.21,0.41,0.26,0.57,0.09c0.15-0.17,0.1-0.5-0.11-0.6c0.3,0.42,1.06,0.23,1.14-0.29c-0.22,1.2,1.21,2.33,2.23,1.76
									c-0.3,0.5,0.12,1.2,0.66,1.36c0.54,0.16,1.11-0.06,1.61-0.31c0.51-0.25,1.02-0.54,1.58-0.53c0.49,0.01,0.95,0.24,1.41,0.39
									c1.49,0.48,3.21,0.02,4.31-1.14c0.77,1.04,2.61,0.76,3.07-0.47c0.12,0.59,0.64,1.06,1.21,1.09
									c0.57,0.03,1.14-0.37,1.32-0.94c0.01,0.26,0.02,0.52,0.04,0.79c1.07,0.25,2.13-1.13,1.67-2.19
									c0.77,0.01,1.49-0.65,1.59-1.45c0.1-0.8-0.44-1.64-1.18-1.83c1.26-0.35,2.22-1.66,2.24-3.04c0.01-1.38-0.92-2.71-2.18-3.09
									c-0.49-0.15-1.07-0.15-1.47,0.2c-0.39,0.35-0.45,1.11-0.01,1.39c0.38-1.24-0.18-2.72-1.27-3.34
									c-1.08-0.62-2.56-0.3-3.33,0.71c0.37-0.53,0.38-1.31,0.02-1.84c-0.37-0.53-1.07-0.77-1.66-0.56
									c-0.15-0.85-0.99-1.49-1.8-1.37s-1.44,1-1.35,1.85c-0.09-0.72-1.21-0.93-1.53-0.29
									C339.86,226.69,340.45,226.92,340.45,226.92z"/>
							</g>
						</g>
						<g>
							<g>
								<path style="fill:#FAFAFA;" d="M340.75,234.91c-0.33-0.23-0.75-0.35-1.14-0.27c-0.39,0.08-0.75,0.38-0.83,0.78
									c-0.08,0.39,0.16,0.85,0.56,0.94c0.48,0.12,0.95-0.28,1.44-0.21c0.17,0.02,0.33,0.11,0.5,0.15c0.7,0.19,1.39-0.27,1.97-0.7
									c0.2-0.15,0.41-0.31,0.55-0.52c0.14-0.21,0.19-0.5,0.06-0.72c-0.18-0.31-0.6-0.35-0.95-0.31c-0.7,0.08-1.39,0.36-1.94,0.81
									c0.02-0.11,0.04-0.22,0.05-0.33L340.75,234.91z"/>
							</g>
							<g>
								<path style="fill:#FAFAFA;" d="M350.88,234.31c-0.19-0.13-0.38-0.27-0.61-0.32c-0.22-0.05-0.49,0-0.63,0.18
									c-0.19,0.25-0.07,0.64,0.18,0.84c0.25,0.2,0.58,0.25,0.89,0.3c0.32,0.05,0.73,0.06,0.89-0.22c0.12-0.21,0.02-0.48-0.15-0.64
									c-0.17-0.16-0.41-0.24-0.63-0.31L350.88,234.31z"/>
							</g>
							<g>
								<path style="fill:#FAFAFA;" d="M334.87,229.04c-0.65,0.27-1.14,0.87-1.29,1.55c-0.05,0.21-0.04,0.47,0.14,0.57
									c0.13,0.08,0.29,0.05,0.44,0.01c0.62-0.15,1.24-0.29,1.86-0.44c-0.3,0.11-0.6,0.23-0.84,0.44c-0.24,0.21-0.4,0.54-0.32,0.85
									c0.09,0.36,0.49,0.58,0.86,0.58c0.37-0.01,0.72-0.19,1.02-0.41c0.32-0.23,0.64-0.55,0.64-0.95c0.01-0.4-0.49-0.77-0.8-0.51
									c0.71-0.19,1.38-0.5,1.99-0.91c0.22-0.15,0.44-0.31,0.58-0.54c0.14-0.23,0.19-0.52,0.06-0.76
									c-0.63-1.15-1.44,0.54-1.83,0.69C336.65,229.5,335.81,228.64,334.87,229.04z"/>
								<path style="fill:#FAFAFA;" d="M331.99,233.95c-0.07,0.23-0.02,0.5,0.16,0.64c0.18,0.15,0.51,0.1,0.59-0.12
									c-0.41,0.13-0.86,0.28-1.11,0.63c-0.26,0.35-0.19,0.96,0.22,1.09c0.26,0.08,0.53-0.04,0.77-0.17
									c0.67-0.37,1.31-0.79,1.92-1.26c-0.18,0.43,0.26,0.91,0.72,0.95c0.46,0.04,0.89-0.21,1.29-0.45
									c0.49-0.29,1.04-0.75,0.91-1.3c-0.11-0.48-0.73-0.69-1.2-0.55c-0.47,0.14-0.83,0.52-1.16,0.89c0.26-0.38-0.11-0.94-0.56-1
									c-0.44-0.06-0.88,0.21-1.16,0.54c0.52-0.28,0.63-1.02-0.06-1.11C332.86,232.66,332.1,233.58,331.99,233.95z"/>
								<path style="fill:#FAFAFA;" d="M346.15,232.3c-0.39-0.15-0.88,0.11-0.98,0.51c-0.1,0.4,0.2,0.86,0.61,0.93
									c-0.3,0.03-0.59,0.18-0.79,0.41c-0.11,0.13-0.19,0.3-0.17,0.46c0.04,0.25,0.3,0.41,0.55,0.42c0.25,0.01,0.49-0.1,0.72-0.2
									c-0.25,0.02-0.51,0.05-0.71,0.21c-0.2,0.15-0.28,0.48-0.11,0.65c0.15,0.15,0.39,0.12,0.59,0.07
									c0.45-0.13,0.87-0.36,1.22-0.68c0.26,0.29,0.64,0.49,1.02,0.43c0.38-0.06,0.7-0.47,0.58-0.83
									c-0.08-0.26-0.36-0.42-0.63-0.46c-0.27-0.03-0.54,0.04-0.81,0.13c0.27-0.19,0.55-0.4,0.65-0.71
									c0.1-0.31-0.11-0.73-0.44-0.71c-0.37,0.03-0.55,0.53-0.84,0.71C346.26,233.29,346.93,232.59,346.15,232.3z"/>
								<g>
									<path style="fill:#FAFAFA;" d="M339.54,230.77c-0.42,0.28-0.56,0.84-0.53,1.34c0.03,0.56,0.28,1.15,0.79,1.37
										c0.67,0.29,1.51-0.26,1.63-0.99c0.12-0.72-0.35-1.46-1-1.79C340.43,230.71,339.95,230.49,339.54,230.77z"/>
								</g>
								<g>
									<path style="fill:#FAFAFA;" d="M344.22,230.17c0.06,0.05,0.12,0.1,0.17,0.15c-0.28-0.36-0.88-0.41-1.22-0.1
										c-0.34,0.31-0.34,0.91,0,1.23c0.34,0.31,0.94,0.27,1.22-0.09c0.48,0.22,1.12,0.14,1.46-0.27c0.34-0.41,0.26-1.13-0.2-1.39
										c-0.46-0.26-1.17,0.13-1.12,0.66c-0.07-0.07-0.13-0.15-0.2-0.22L344.22,230.17z"/>
								</g>
								<g>
									<path style="fill:#FAFAFA;" d="M349.39,231.01c-0.33,0.33-0.68,0.67-0.8,1.12c-0.12,0.45,0.08,1.02,0.53,1.13
										c0.45,0.11,0.87-0.26,1.13-0.64c0.23-0.35,0.41-0.78,0.27-1.18c-0.13-0.4-0.7-0.63-0.99-0.33L349.39,231.01z"/>
								</g>
								<path style="fill:#FAFAFA;" d="M341.94,228.29c-0.17-0.38-0.7-0.51-1.05-0.29c-0.35,0.22-0.48,0.71-0.33,1.09
									c0.15,0.38,0.55,0.64,0.96,0.69c0.51,0.06,1.11-0.35,0.99-0.85c0.22,0.29,0.61,0.4,0.97,0.37c0.36-0.04,0.7-0.2,1.01-0.38
									c0.43-0.25,0.88-0.63,0.84-1.11c-0.04-0.39-0.41-0.69-0.8-0.73c-0.39-0.04-0.77,0.15-1.07,0.4
									c-0.23,0.2-0.43,0.45-0.68,0.62c-0.25,0.18-0.6,0.27-0.87,0.12L341.94,228.29z"/>
							</g>
						</g>
					</g>
					<g>
						<polygon style="fill:#F0F0F0;" points="348.3,251.04 335.49,251.04 334.24,238.13 349.55,238.13 						"/>
						<polygon style="fill:#FAFAFA;" points="350.54,238.79 333.12,238.79 332.81,237.08 350.86,237.08 						"/>
					</g>
				</g>
				<g>
					<g>
						<polygon style="fill:#EBEBEB;" points="335,289.87 320.3,289.87 324.91,275.03 325.58,272.86 328.91,272.86 						"/>
						<polygon style="fill:#E0E0E0;" points="325.58,272.86 324.91,275.03 320.3,289.87 306.71,289.67 302.34,275.03 301.67,272.86 
													"/>
						<polygon style="fill:#FAFAFA;" points="325.58,272.86 324.91,275.03 320.3,289.87 292.39,289.46 298.34,272.86 						"/>
						<polygon style="fill:#EBEBEB;" points="325.58,272.86 324.91,275.03 297.57,275.03 298.34,272.86 						"/>
					</g>
					<g>
						<g>
							<path style="fill:#EBEBEB;" d="M301.77,282.08h-6.13l2.14-6.04l5.86,0.07L301.77,282.08z M296.35,281.58h5.05l1.56-4.98
								l-4.83-0.05L296.35,281.58z"/>
						</g>
						<g>
							<path style="fill:#EBEBEB;" d="M308.63,282.08h-6.13l2.14-6.04l5.86,0.07L308.63,282.08z M303.2,281.58h5.05l1.56-4.98
								l-4.83-0.05L303.2,281.58z"/>
						</g>
						<g>
							<path style="fill:#EBEBEB;" d="M315.48,282.08h-6.13l2.14-6.04l5.86,0.07L315.48,282.08z M310.06,281.58h5.05l1.56-4.98
								l-4.83-0.05L310.06,281.58z"/>
						</g>
						<g>
							<path style="fill:#EBEBEB;" d="M322.34,282.08h-6.13l2.14-6.04l5.86,0.07L322.34,282.08z M316.92,281.58h5.05l1.56-4.98
								l-4.83-0.05L316.92,281.58z"/>
						</g>
					</g>
					<g>
						<g>
							<path style="fill:#EBEBEB;" d="M299.63,288.49h-6.13l2.14-6.04l5.86,0.07L299.63,288.49z M294.21,287.99h5.05l1.56-4.98
								l-4.83-0.05L294.21,287.99z"/>
						</g>
						<g>
							<path style="fill:#EBEBEB;" d="M306.49,288.49h-6.13l2.14-6.04l5.86,0.07L306.49,288.49z M301.07,287.99h5.05l1.56-4.98
								l-4.83-0.05L301.07,287.99z"/>
						</g>
						<g>
							<path style="fill:#EBEBEB;" d="M313.34,288.49h-6.13l2.14-6.04l5.86,0.07L313.34,288.49z M307.92,287.99h5.05l1.56-4.98
								l-4.83-0.05L307.92,287.99z"/>
						</g>
						<g>
							<path style="fill:#EBEBEB;" d="M320.2,288.49h-6.13l2.14-6.04l5.86,0.07L320.2,288.49z M314.78,287.99h5.05l1.56-4.98
								l-4.83-0.05L314.78,287.99z"/>
						</g>
					</g>
				</g>
			</g>
			<g>
				<g>
					<path style="fill:#F0F0F0;" d="M413.21,243.03c0,3.15,0.49,5.19,1.33,6.5c0.63,0.98,1.75,1.54,2.92,1.54h4.56
						c1.17,0,2.29-0.55,2.92-1.54c0.83-1.31,1.33-3.35,1.33-6.5c0-4.57-1.99-8.23-2.64-11.15c-0.23-1.05,0.55-4.28,0.55-4.28h-8.86
						c0,0,0.78,3.22,0.55,4.28C415.2,234.8,413.21,238.46,413.21,243.03z"/>
				</g>
				<g>
					<g>
						<g>
							<g>
								<path style="fill:#EBEBEB;" d="M422.69,205.54c0,0-1.49,0.37-2.36,1.53c-0.87,1.16,0.63,3.89,0.63,3.89s1.42,1.45,3.18,1.02
									c1.76-0.43,1.76-0.43,1.76-0.43s-1.87-5.35-3.21-5.65L422.69,205.54z"/>
							</g>
						</g>
						<g>
							<g>
								<path style="fill:#EBEBEB;" d="M429.65,206.81c-0.23,2.32-2.2,4.94-4.27,4.73c-2.07-0.21-3.48-3.16-3.24-5.49
									c0.23-2.32,1.92-2.23,4-2.03C428.21,204.24,429.89,204.49,429.65,206.81z"/>
							</g>
							<g>
								<path style="fill:#EBEBEB;" d="M423.8,205.01c0,0,1.33,1.54,4.68,1.42C428.48,206.43,422.77,208.85,423.8,205.01z"/>
							</g>
							<g>
								<path style="fill:#EBEBEB;" d="M425.26,204.82c0,0,1.86,0.03,1.74,0.78c0,0,1.54,0.2,1.45-0.47
									C428.37,204.45,425.26,204.82,425.26,204.82z"/>
							</g>
							<g>
								<path style="fill:#E0E0E0;" d="M423.8,205.01c0,0,1.33,1.54,4.68,1.42C428.48,206.43,422.77,208.85,423.8,205.01z"/>
							</g>
							<g>
								<path style="fill:#E0E0E0;" d="M425.26,204.82c0,0,1.86,0.03,1.74,0.78c0,0,1.54,0.2,1.45-0.47
									C428.37,204.45,425.26,204.82,425.26,204.82z"/>
							</g>
						</g>
						<g>
							<path style="fill:#EBEBEB;" d="M421.82,211.62c0.45,1.18,1.67,1.97,2.93,2.05c1.26,0.09,2.51-0.47,3.41-1.35
								c0.9-0.88,1.47-2.06,1.78-3.28c0.08-0.32,0.26-1.11-0.14-1.31c-0.37-0.19-0.71,0.31-0.93,0.53c-0.65,0.63-1.33,1.2-2.1,1.68
								c-0.75,0.47-1.55,0.85-2.38,1.13C424.16,211.15,421.9,211.83,421.82,211.62z"/>
						</g>
						<g>
							<path style="fill:#EBEBEB;" d="M431.44,208.71c0.21,1-0.14,2.1-0.9,2.79c-0.5,0.45-1.13,0.72-1.76,0.96
								c-0.44,0.16-0.99,0.29-1.32-0.03c-0.36-0.35-0.21-0.95-0.02-1.42c0.29-0.72,0.6-1.43,0.92-2.14
								c0.27-0.58,0.55-1.57,1.01-2.02c0.43-0.42,0.85-0.04,1.28,0.4C431.04,207.65,431.33,208.16,431.44,208.71z"/>
						</g>
						<g>
							<path style="fill:#E0E0E0;" d="M422.58,210.45c-0.78-0.18-1.43-0.86-1.57-1.65c-0.11-0.58,0.16-1.96,0.89-2
								C421.98,208.09,422.04,209.25,422.58,210.45z"/>
						</g>
						<g>
							<path style="fill:#E0E0E0;" d="M428.21,210.86c0.79-0.07,1.52-0.56,1.89-1.26c0.2-0.39,0.44-2.51-0.35-1.74
								c-0.26,0.25-0.39,1.17-0.57,1.52C428.92,209.91,428.59,210.41,428.21,210.86z"/>
						</g>
						<g>
							<path style="fill:#E0E0E0;" d="M425.12,211.61c0.48,0.6,1.4,0.8,2.09,0.45c-0.15,0.39-1.49,0.49-1.91,0.53
								c-1.09,0.11-1.54-0.45-2.46-1.05C422.84,211.54,424.37,212.08,425.12,211.61z"/>
						</g>
					</g>
					<g>
						<g>
							<polygon style="fill:#E6E6E6;" points="418.51,248.55 421.07,222.73 424.46,213.57 425.04,213.78 421.67,222.9 419,249.26 
															"/>
						</g>
					</g>
					<g>
						<g>
							<path style="fill:#E6E6E6;" d="M421.65,222.68l-0.56,0.28c-0.37-0.73-0.65-1.64-0.98-2.7c-0.51-1.64-1.08-3.49-2.15-5.24
								l0.53-0.33c1.12,1.82,1.7,3.71,2.22,5.38C421.03,221.1,421.3,221.99,421.65,222.68z"/>
						</g>
						<g>
							<path style="fill:#F0F0F0;" d="M423.03,219.29c0.87-0.06,1.71-0.45,2.32-1.07c0.7-0.7,1.07-1.66,1.43-2.58
								c-1.14,0.12-2.19-0.62-3.33-0.7c-0.91-0.07-1.84,0.32-2.43,1.01c-0.77,0.89-1.22,1.98-0.8,2.54
								C420.57,218.94,421.86,219.37,423.03,219.29z"/>
						</g>
						<g>
							<g>
								<path style="fill:#F0F0F0;" d="M413.88,216.49c0.84-0.7,2.64-0.98,3.65-0.59c1.02,0.39,1.78,1.29,1.99,2.22
									c-0.41,0.62-1.22,0.85-1.96,0.77c-0.73-0.08-1.4-0.43-2.06-0.78c-0.65-0.34-1.33-0.69-2.06-0.78L413.88,216.49z"/>
							</g>
						</g>
						<g>
							<g>
								<path style="fill:#F0F0F0;" d="M419.52,216.98c-1.48,0.17-2.81,0.46-4.16-1.23c-0.9-1.13-0.61-2.84-0.55-4.19
									c1.29,0.28,4.2,1.7,4.85,2.05s1.2,0.91,1.3,1.58c0.11,0.67-0.35,1.41-1.08,1.54C419.87,216.7,419.52,216.98,419.52,216.98z"
									/>
							</g>
						</g>
					</g>
				</g>
				<path style="fill:#FAFAFA;" d="M415.28,237.08c-0.59,1.68-1.16,3.51-0.97,5.3c0.04,0.34,0.14,0.73,0.39,0.79
					c0.23,0.06,0.45-0.22,0.54-0.53c0.08-0.31,0.06-0.64,0.06-0.96c-0.01-2.77,1.5-5.1,1.79-7.81c0.08-0.77-0.12-3.19-0.57-1.41
					C416.11,234.04,415.83,235.52,415.28,237.08z"/>
			</g>
		</g>
	</g>
	<g>
		<path style="fill:#EBEBEB;" d="M205.77,292.1c0,0,2.91-32.21-9.89-47.92c-12.8-15.71,9.99-1.41,14.03,14.26
			c0,0,0.76-28.97-12.02-47.75s9-4.72,12.79,15.75c0,0,0.72-25.85-5.66-39.56c-6.38-13.71,3.14-5.55,7.34,3.02
			c4.21,8.57,2.12,31.3,2.12,31.3s4.47-42.1,12.96-39.82c8.49,2.28-9.15,31.64-10.56,45.98c0,0,7.72-20,15.41-16.96
			c7.69,3.04-10.71,7.24-16.39,36.35l-1.66,13.53c0,0,6.98-19.66,13.36-14.49c6.38,5.16-15.55,18.06-18.04,46.87L205.77,292.1z"/>
		<path style="fill:#F0F0F0;" d="M207.15,293.77c0,0-2.73-39.83,13.49-58.81c16.21-18.97-12.29-2.06-17.69,17.14
			c0,0-0.16-35.77,16.11-58.53c16.26-22.76-10.98-6.12-16.21,19.03c0,0-0.2-31.92,8.04-48.63c8.24-16.71-3.72-6.95-9.14,3.49
			c-5.42,10.44-3.45,38.55-3.45,38.55s-4.39-52.09-14.93-49.55c-10.53,2.54,10.44,39.34,11.8,57.07c0,0-8.99-24.92-18.56-21.42
			c-9.57,3.5,13.02,9.27,19.25,45.38l1.69,16.75c0,0-8.08-24.48-16.09-18.31c-8.01,6.17,18.7,22.78,21,58.41L207.15,293.77z"/>
		<path style="fill:#EBEBEB;" d="M232.34,313.63c0,10.93-11.85,19.8-26.47,19.8c-14.63,0-26.48-8.87-26.48-19.8
			c0-4.93,2.4-9.42,6.38-12.88l-3.13-13.25h46.45l-3.13,13.25C229.94,304.21,232.34,308.7,232.34,313.63z"/>
	</g>
</g>
<g id="Background_Simple">
	<g>
		<g>
			<path style="fill:#407BFF;" d="M246.39,35.52c-14.54,16.15-21.74,38.15-20.51,59.85c1.23,21.7,9.23,42.48,18.97,61.91
				c8.53,17.02,18.72,36.32,11.74,54.03c-3.9,9.9-12.79,17.23-22.62,21.31c-9.83,4.08-20.61,5.26-31.24,5.79
				c-18.12,0.91-36.51,0.08-54.14,4.33c-17.63,4.25-34.99,14.75-41.81,31.56c-8.03,19.81,1.09,43.51,17.17,57.58
				c16.09,14.07,37.67,20.11,58.84,23.1c29.66,4.18,60.05,3.13,89.35-3.08c23.53-4.99,46.68-13.48,65.88-27.97
				c19.19-14.49,34.17-35.45,38.28-59.15c4.1-23.7-3.86-49.91-22.64-64.93c-7.81-6.25-17.23-10.52-24.08-17.81
				c-6.85-7.29-10.33-19.43-3.97-27.15c4.2-5.1,11.28-6.66,17.84-7.45c32.27-3.85,68.02,2.8,95.01-15.31
				c15.45-10.37,25.45-28.05,27.65-46.53c2.2-18.48-1.79-38.48-13.43-53C420.95-6.93,285.25-7.64,246.39,35.52z"/>
		</g>
		<g style="opacity:0.9;">
			<path style="fill:#FFFFFF;" d="M246.39,35.52c-14.54,16.15-21.74,38.15-20.51,59.85c1.23,21.7,9.23,42.48,18.97,61.91
				c8.53,17.02,18.72,36.32,11.74,54.03c-3.9,9.9-12.79,17.23-22.62,21.31c-9.83,4.08-20.61,5.26-31.24,5.79
				c-18.12,0.91-36.51,0.08-54.14,4.33c-17.63,4.25-34.99,14.75-41.81,31.56c-8.03,19.81,1.09,43.51,17.17,57.58
				c16.09,14.07,37.67,20.11,58.84,23.1c29.66,4.18,60.05,3.13,89.35-3.08c23.53-4.99,46.68-13.48,65.88-27.97
				c19.19-14.49,34.17-35.45,38.28-59.15c4.1-23.7-3.86-49.91-22.64-64.93c-7.81-6.25-17.23-10.52-24.08-17.81
				c-6.85-7.29-10.33-19.43-3.97-27.15c4.2-5.1,11.28-6.66,17.84-7.45c32.27-3.85,68.02,2.8,95.01-15.31
				c15.45-10.37,25.45-28.05,27.65-46.53c2.2-18.48-1.79-38.48-13.43-53C420.95-6.93,285.25-7.64,246.39,35.52z"/>
		</g>
	</g>
</g>
<g id="Shadow">
	<ellipse id="_x3C_Path_x3E__359_" style="fill:#F5F5F5;" cx="250" cy="364.93" rx="193.89" ry="11.32"/>
</g>
<g id="Graphics">
	<g>
		<g>
			<g>
				<polygon style="fill:#407BFF;" points="234.07,206.24 236.57,191.82 241.48,193.24 				"/>
			</g>
			<g>
				<polygon style="fill:#407BFF;" points="235.72,210.86 249.78,206.79 247.83,202.06 				"/>
			</g>
			<g>
				<polygon style="fill:#407BFF;" points="238.22,205.43 246.23,190.29 251.62,194.04 				"/>
			</g>
		</g>
		<g>
			<g>
				<path style="fill:#407BFF;" d="M105.89,228.15h-6.33c-0.28,0-0.5-0.22-0.5-0.5s0.22-0.5,0.5-0.5h6.33c0.28,0,0.5,0.22,0.5,0.5
					S106.17,228.15,105.89,228.15z"/>
			</g>
			<g>
				<path style="fill:#407BFF;" d="M95.35,228.15H63.62c-0.28,0-0.5-0.22-0.5-0.5s0.22-0.5,0.5-0.5h31.72c0.28,0,0.5,0.22,0.5,0.5
					S95.62,228.15,95.35,228.15z"/>
			</g>
		</g>
		<g>
			<g>
				<path style="fill:#407BFF;" d="M207.85,286.02c-0.12,0-0.24-0.04-0.34-0.13c-0.2-0.19-0.22-0.5-0.03-0.71l2.96-3.22
					c0.19-0.2,0.5-0.21,0.71-0.03c0.2,0.19,0.22,0.5,0.03,0.71l-2.96,3.22C208.12,285.96,207.99,286.02,207.85,286.02z"/>
			</g>
			<g>
				<path style="fill:#407BFF;" d="M180.74,311.65c-0.18,0-0.36-0.1-0.45-0.27c-0.13-0.25-0.03-0.55,0.22-0.67
					c9.27-4.69,23.95-22.23,24.1-22.41c0.18-0.21,0.49-0.24,0.7-0.06c0.21,0.18,0.24,0.49,0.06,0.7
					c-0.61,0.73-14.97,17.87-24.42,22.66C180.9,311.63,180.82,311.65,180.74,311.65z"/>
			</g>
		</g>
	</g>
</g>
<g id="Character">
	<g>
		<g>
			<g id="_x3C_Group_x3E__1_">
				<g>
					<g>
						<polygon style="fill:#CB7A63;" points="252.7,306.17 259.84,300.26 241.86,283.2 234.19,289.75 						"/>
						<path style="fill:#407BFF;" d="M265.62,297.98c-0.48-0.3-1.46-0.16-2.47,0.12c-0.48,0.14-0.98,0.3-1.42,0.46
							c-0.35,0.13-0.67,0.26-0.94,0.37c-0.4,0.17-0.69,0.3-0.79,0.35c-0.09,0.02-0.15,0.11-0.16,0.21c-0.01,0.03,0.01,0.07,0.03,0.1
							c0.03,0.05,0.08,0.09,0.14,0.1c1.01,0.27,2.05,0.44,3.1,0.52c0.51,0.07,1.04,0.03,1.53-0.11c0.03-0.01,0.05-0.01,0.07-0.02
							c0.28-0.09,0.56-0.21,0.81-0.36c0.33-0.27,0.51-0.68,0.47-1.11C265.98,298.36,265.85,298.12,265.62,297.98z M265.52,298.64
							c0.05,0.29-0.08,0.58-0.32,0.75c-0.19,0.16-0.46,0.26-0.81,0.33c-0.34,0.07-0.75,0.09-1.22,0.06
							c-0.55-0.02-1.19-0.11-1.9-0.24c-0.15-0.03-0.31-0.06-0.47-0.09c0.85-0.41,1.74-0.72,2.66-0.93c0.49-0.11,0.98-0.19,1.48-0.24
							c0.15,0,0.29,0.03,0.42,0.1C265.47,298.44,265.53,298.53,265.52,298.64z"/>
						<path style="fill:#407BFF;" d="M262.35,294.22c-0.46,0.07-0.88,0.35-1.14,0.73c-0.08,0.12-0.15,0.24-0.2,0.38
							c-0.6,1.29-0.29,3.24-0.22,3.6c0.01,0.03,0.01,0.04,0.01,0.05c0.01,0.08,0.07,0.15,0.15,0.17c0.04,0.02,0.09,0.03,0.14,0.01
							c0.03,0,0.06-0.02,0.09-0.05c0.17-0.14,0.35-0.33,0.55-0.56c0.29-0.34,0.59-0.75,0.85-1.2c0.62-1.01,1.06-2.15,0.79-2.74
							C263.26,294.38,263,294.12,262.35,294.22z M262.95,294.82c0.17,0.39-0.16,1.28-0.67,2.16c-0.33,0.56-0.71,1.1-1.09,1.5
							c-0.08-0.63-0.16-1.83,0.15-2.72c0.06-0.2,0.15-0.39,0.26-0.54c0.17-0.24,0.41-0.43,0.69-0.51l0.14-0.02
							C262.85,294.61,262.93,294.77,262.95,294.82z"/>
						<path style="fill:#263238;" d="M258.91,299.84l-8.96,4.52c-0.36,0.17-0.53,0.57-0.42,0.94l2.64,8.38
							c0.29,0.82,1.19,1.25,2.02,0.96c0.05-0.02,0.11-0.04,0.16-0.07c15.35-5.39,20.05-9.21,21.66-10.08c4.57-2.49,2-5.73,0.3-5.33
							c-7.65,1.83-10.22,1.36-13.53,0.5C261.01,299.4,259.45,299.57,258.91,299.84z"/>
						<polygon style="opacity:0.2;enable-background:new    ;" points="241.86,283.21 250.97,291.28 243.29,297.82 234.19,289.76 
													"/>
						<g>
							<polygon style="fill:#407BFF;" points="239.03,297.76 250.48,287.21 247.96,282.78 234.72,294.15 							"/>
							<polygon style="opacity:0.5;fill:#FFFFFF;" points="239.03,297.76 250.48,287.21 247.96,282.78 234.72,294.15 							"/>
						</g>
					</g>
					<g>
						<g>
							<g>
								<g>
									<g>
										<path style="fill:#407BFF;" d="M246.16,284.33l-1.53,1.32l-2.29,1.97l-1.37,1.16l-3.99,3.43l-0.77,0.65
											c0,0-16.31-9.19-25.39-17.04c-6.22-5.38-6.78-7.38-7.43-6.88c-8.77,6.67-34.73,29.73-49.44,41.73
											c-0.48,0.05-0.95,0.1-1.44,0.13c-7.86,0.58-14.04-0.29-18.84-2.12c-0.05-6.38,5.41-21.28,5.86-22.72
											c0,0,21.71-21.58,56.88-39.82c0.35-0.18,0.71-0.32,1.06-0.47c0.46-0.2,0.91-0.39,1.38-0.56c1.84-0.7,3.64-1.13,5.39-1.22
											c1.57-0.08,3.1,0.2,4.57,0.72c0.83,0.29,1.65,0.65,2.44,1.07c0.7,0.35,1.38,0.76,2.04,1.18c1.09,0.69,2.14,1.46,3.13,2.22
											c2.24,1.73,19.23,23.62,28.37,33.72c0,0.01,0,0.01,0,0.01C245.27,283.38,245.73,283.88,246.16,284.33z"/>
									</g>
								</g>
							</g>
						</g>
						<g style="opacity:0.1;">
							<g>
								<g>
									<g>
										<path d="M246.16,284.33l-1.53,1.32l-2.29,1.97l-1.37,1.16l-3.99,3.43l-0.77,0.65c0,0-16.31-9.19-25.39-17.04
											c-6.22-5.38-6.78-7.38-7.43-6.88c-8.77,6.67-34.73,29.73-49.44,41.73c-0.48,0.05-0.95,0.1-1.44,0.13
											c-7.86,0.58-14.04-0.29-18.84-2.12c-0.05-6.38,5.41-21.28,5.86-22.72c0,0,21.71-21.58,56.88-39.82
											c0.35-0.18,0.71-0.32,1.06-0.47c0.46-0.2,0.91-0.39,1.38-0.56c1.84-0.7,3.64-1.13,5.39-1.22c1.57-0.08,3.1,0.2,4.57,0.72
											c0.83,0.29,1.65,0.65,2.44,1.07c0.7,0.35,1.38,0.76,2.04,1.18c1.09,0.69,2.14,1.46,3.13,2.22
											c2.24,1.73,19.23,23.62,28.37,33.72c0,0.01,0,0.01,0,0.01C245.27,283.38,245.73,283.88,246.16,284.33z"/>
									</g>
								</g>
							</g>
						</g>
					</g>
				</g>
				<path style="fill:#CB7A63;" d="M130.31,192.21c1.37,6.23,2.81,15.32-1.46,19.59c5.3,9.34,11.67,18.03,18.98,25.9
					c9.37-16.29,0.49-26.36,0.49-26.36c-7.02-1.5-6.91-4.33-5.81-9.21L130.31,192.21z"/>
				<path style="fill:#407BFF;" d="M124.51,212.59c0.52-1.69,1.59-3.15,3.04-4.16c1.4-1.08,15.96-1.24,19.75,0
					c2.21,0.7,4.09,2.18,5.29,4.17L124.51,212.59z"/>
				<g>
					<g>
						<path style="fill:#CB7A63;" d="M191.68,237.39l3.77-1.72l0.19,6.14c0,0-1.76,1.57-3.69,2.17c-1.85,0.57-3.61-1.13-3.15-3.01
							l0,0C189.17,239.4,190.23,238.09,191.68,237.39z"/>
						<path style="fill:#CB7A63;" d="M200.26,237.4l-0.2,2.25c-0.05,0.7-0.56,1.28-1.24,1.43l-3.22,0.72l-0.19-6.14l3.27,0.05
							c0.87-0.01,1.57,0.68,1.58,1.55C200.26,237.31,200.26,237.36,200.26,237.4z"/>
						<path style="fill:#CB7A63;" d="M143.87,254.85c5.66,2.79,12.6,4.39,19.41,3.24c8.02-1.35,21.99-9.4,28.07-14.02l-2.05-3.05
							c-3.03,0.65-27.79,13.23-43.79,1.85c-2.98-2.12-14.68-10.85-18.82-10.67c-6.71,0.3-6.13,7.33-3.25,10.26
							C126.83,245.89,139.24,252.57,143.87,254.85z"/>
					</g>
					<g style="opacity:0.2;enable-background:new    ;">
						<path d="M200.06,239.66c-0.06,0.69-0.56,1.28-1.24,1.43l-3.2,0.72l0,0.01c0,0-1.76,1.57-3.68,2.17c-0.2,0.06-0.4,0.1-0.59,0.1
							l-0.01,0.01c-6.08,4.62-20.04,12.66-28.06,14.01c-6.81,1.14-13.75-0.45-19.41-3.25c-4.63-2.28-17.06-8.97-20.43-12.39
							c-2.88-2.93-3.46-9.95,3.25-10.26c4.13-0.18,15.84,8.55,18.82,10.67c15.26,10.85,38.48-0.09,43.23-1.69
							c0.01-0.07,0.02-0.15,0.04-0.22c0.19-0.78,0.54-1.5,1.04-2.12c0.48-0.61,1.12-1.12,1.84-1.47l3.73-1.7l0.04-0.01l3.24,0.04
							c0.86-0.01,1.57,0.69,1.57,1.56c0,0.04,0,0.09,0,0.13L200.06,239.66z"/>
						<polygon points="195.44,235.67 195.41,235.68 195.41,235.67 						"/>
					</g>
				</g>
				<g>
					<path style="fill:#407BFF;" d="M164.84,222.64c8.49,18.71-11.2,24.05-2.18,54.73l-42.8,1.03c0.29-16.44,6.13-12.91-1.57-43.82
						c-0.65-2.62-1.74-10.13,1.05-16.97c1.09-2.66,3.02-4.92,5.55-6.29c3.16-1.71,17.08-0.37,23.43,0.05
						C155.2,210.4,163.58,220.3,164.84,222.64z"/>
					<path style="opacity:0.5;fill:#FFFFFF;" d="M164.84,222.64c8.49,18.71-11.2,24.05-2.18,54.73l-42.8,1.03
						c0.29-16.44,6.13-12.91-1.57-43.82c-0.65-2.62-1.74-10.13,1.05-16.97c1.09-2.66,3.02-4.92,5.55-6.29
						c3.16-1.71,17.08-0.37,23.43,0.05C155.2,210.4,163.58,220.3,164.84,222.64z"/>
				</g>
				<path style="fill:#263238;" d="M156.66,185.52c-0.12,0.82,0.21,1.49,0.72,1.56c0.51,0.07,1.03-0.5,1.14-1.29
					c0.12-0.79-0.21-1.49-0.72-1.56C157.29,184.16,156.77,184.74,156.66,185.52z"/>
				<path style="fill:#263238;" d="M157.57,184.24l1.96-0.27C159.53,183.97,158.35,185.31,157.57,184.24z"/>
				<path style="fill:#A02724;" d="M156.79,186.6c0,0,0.84,3.58,2.08,5.41c-1.18,0.82-2.88,0.12-2.88,0.12L156.79,186.6z"/>
				<path style="fill:#263238;" d="M159.49,180.02c0.15-0.06,0.26-0.2,0.29-0.36c0.04-0.26-0.14-0.49-0.39-0.53
					c-1.48-0.26-3,0.22-4.06,1.28c-0.19,0.18-0.2,0.47-0.03,0.66c0.18,0.19,0.47,0.2,0.66,0.03c0.02-0.02,0.04-0.04,0.06-0.07
					c0.86-0.82,2.06-1.18,3.23-0.97C159.33,180.06,159.42,180.05,159.49,180.02z"/>
				<path style="fill:#CB7A63;" d="M130.76,179.04c-0.81,9.75-1.36,13.85,2.8,19.52c6.26,8.53,18.42,7.41,22.11-1.91
					c3.34-8.38,4.11-22.91-4.79-28.13c-6.34-3.76-14.52-1.67-18.29,4.66C131.53,174.97,130.9,176.98,130.76,179.04z"/>
				<path style="fill:#263238;" d="M155.89,196.07c-0.74-0.62-1.3-1.44-1.62-2.38c-0.03-0.1,0.03-0.21,0.14-0.25
					c0.1-0.03,0.21,0.03,0.24,0.14c0.29,0.81,0.77,1.52,1.39,2.09L155.89,196.07z"/>
				<g>
					<path style="fill:#263238;" d="M123.81,166.37c-3.72,5.04-5.41,6.35-0.81,19.76c1.85,5.39,7.22,12.53,9.83,13.18
						c4.68,1.18,9.23-2.11,12.75-5.42c3.08-2.9,6.03-6.03,7.9-9.82c1.87-3.79,2.56-8.33,1.02-12.26c-1.68-4.27-7.61-8.08-12.05-9.02
						C137.23,161.68,126.9,162.18,123.81,166.37z"/>
					<g>
						<g>
							<path style="fill:#263238;" d="M152.97,184.9c0,0,1.17,2.01-0.31,3.51l0.03-2.68L152.97,184.9z"/>
						</g>
						<g>
							<path style="fill:#263238;" d="M152.95,184.9c0,0,0.43,3.08-2.15,4.23l1.39-3.33L152.95,184.9z"/>
						</g>
					</g>
					<g>
						<path style="fill:#263238;" d="M135.78,198.17c0,0-2.84,1.29-2.43,4.08l2.07-2.95L135.78,198.17z"/>
					</g>
					<g>
						<path style="fill:#263238;" d="M135.89,198.23c0,0-2.16,2.24-0.74,4.69l0.83-3.51L135.89,198.23z"/>
					</g>
				</g>
				<path style="fill:#263238;" d="M156.86,180.87c1.01-1.04,2.04-2.1,2.78-3.35c0.75-1.25,1.2-2.73,0.98-4.16
					c-0.29-1.86-1.69-3.39-3.32-4.33c-1.63-0.93-3.5-1.35-5.34-1.76c-0.9-0.2-1.91-0.39-2.7,0.09c-0.77,0.46-1.1,1.43-1.05,2.32
					c0.04,0.89,0.4,1.73,0.72,2.56c1.27,3.25,2.07,6.59,2.68,10.01c0.31,1.73,0.07,2.87,1.78,2.21
					C154.53,184.01,155.99,181.78,156.86,180.87z"/>
				<path style="fill:#CB7A63;" d="M143.4,185.69c-0.1,2.26,0.69,4.46,2.21,6.13c2.03,2.21,4.61,0.76,5.35-1.98
					c0.68-2.46,0.42-6.57-2.24-7.75S143.54,182.94,143.4,185.69z"/>
				<polygon style="fill:#CB7A63;" points="256.82,310.66 264.54,303.14 249.6,284.35 240.26,289.86 				"/>
				<g>
					<path style="fill:#407BFF;" d="M272.42,300.82c-0.86-0.3-2.62,0.66-3.95,1.51c-0.34,0.21-0.64,0.42-0.9,0.6l-0.02,0.01
						c-0.05,0.04-0.09,0.07-0.13,0.1c-0.3,0.21-0.52,0.37-0.6,0.43c-0.1,0.05-0.14,0.16-0.12,0.25s0.12,0.17,0.22,0.18
						c0.92,0.04,1.84,0.01,2.76-0.09c0.21-0.02,0.41-0.04,0.61-0.07c0.67-0.05,1.31-0.27,1.86-0.64c0.2-0.13,0.39-0.27,0.55-0.43
						c0.29-0.35,0.39-0.83,0.25-1.27C272.89,301.15,272.69,300.92,272.42,300.82z M272.48,301.54c0.1,0.29,0.05,0.62-0.16,0.86
						c-0.26,0.32-0.78,0.58-1.52,0.76c-0.57,0.14-1.26,0.24-2.07,0.28c-0.32,0.01-0.66,0.03-1.01,0.02
						c0.11-0.09,0.22-0.17,0.34-0.25c0.08-0.06,0.16-0.11,0.24-0.17c1.07-0.75,2.25-1.34,3.5-1.75c0.15-0.04,0.31-0.04,0.47,0.01
						C272.37,301.33,272.45,301.42,272.48,301.54z"/>
					<path style="fill:#407BFF;" d="M268.14,297.63c-0.47,0.18-0.84,0.56-1.02,1.02c-0.63,1.54,0.3,3.91,0.46,4.28
						c0,0.01,0,0.01,0.01,0.01c0,0.02,0,0.03,0.01,0.03c0.04,0.08,0.11,0.14,0.2,0.15c0.05,0.01,0.1,0,0.15-0.02
						c0.03-0.01,0.07-0.04,0.08-0.06c0.01-0.02,0.02-0.02,0.03-0.03c0.14-0.18,0.29-0.41,0.42-0.68c0.74-1.39,1.43-3.71,0.82-4.51
						C269.12,297.58,268.79,297.36,268.14,297.63z M267.89,302.35c-0.27-0.79-0.75-2.47-0.31-3.51c0.12-0.29,0.33-0.54,0.61-0.69
						l0.14-0.07c0.43-0.17,0.54-0.02,0.58,0.03C269.34,298.7,268.67,301.07,267.89,302.35z"/>
				</g>
				<polygon style="opacity:0.2;enable-background:new    ;" points="248.81,283.2 255.85,292.2 246.33,297.51 239.18,288.74 				
					"/>
				<path style="fill:#263238;" d="M119.47,275.13l-0.99,3.88c-0.15,0.31,0.22,0.6,0.71,0.59l44.08-1.04
					c0.39-0.02,0.7-0.21,0.72-0.45l-1.1-4.07c0.03-0.26-0.32-0.48-0.74-0.47l-41.97,1.23C119.9,274.78,119.63,274.91,119.47,275.13z
					"/>
				<path style="fill:#407BFF;" d="M158.69,279.02l-1.16,0.12c-0.23-0.01-0.42-0.07-0.42-0.21l-0.02-5.01
					c0-0.14,0.19-0.28,0.42-0.31l1.16-0.13c0.23,0.01,0.42,0.07,0.42,0.22l0.02,5.01C159.1,278.86,158.92,279,158.69,279.02z"/>
				<g>
					<path style="fill:#407BFF;" d="M142.91,279.23l-1.16,0.12c-0.23-0.01-0.41-0.07-0.42-0.21l-0.01-5.01
						c0-0.14,0.19-0.28,0.42-0.31l1.15-0.13c0.23,0.01,0.42,0.07,0.42,0.22l0.02,5.01C143.33,279.08,143.14,279.2,142.91,279.23z"/>
					<path style="fill:#407BFF;" d="M142.91,279.23l-1.16,0.12c-0.23-0.01-0.41-0.07-0.42-0.21l-0.01-5.01
						c0-0.14,0.19-0.28,0.42-0.31l1.15-0.13c0.23,0.01,0.42,0.07,0.42,0.22l0.02,5.01C143.33,279.08,143.14,279.2,142.91,279.23z"/>
				</g>
				<path style="fill:#407BFF;" d="M254.72,287.23l-1.95,1.1l-0.01,0.01l-3.35,1.89l-3.01,1.69l-0.01,0.01l-3.09,1.74v0.01
					l-1.18,0.67c0,0-0.27-0.19-0.74-0.54c-0.18-0.13-0.39-0.28-0.63-0.46c-0.73-0.55-1.76-1.32-2.95-2.27c0,0,0,0,0-0.01
					c-6.22-4.91-17.29-14.58-20.58-23.36c-2.13,2.54-4.68,5.72-7.6,9.24c-12.57,15.17-32.12,36.58-55.61,39.37
					c-0.48,0.07-0.95,0.11-1.44,0.15c-7.85,0.68-14.04-0.11-18.86-1.88c-12.19-4.46-15.59-15.18-14.75-24.29v-0.03
					c0.07-4.26,0.91-11.86,0.91-11.86l44.47,0.05c6.27-7.61,18.84-19.53,31.7-27.05c0.3-0.19,0.61-0.37,0.92-0.53
					c0.38-0.23,0.77-0.43,1.15-0.64c4.18-2.29,8.36-4.06,12.32-5.02c0.88-0.21,1.75-0.39,2.61-0.52c0.9-0.14,1.79-0.22,2.66-0.26
					v0.01c6.09-0.28,11.38,1.99,14.97,8.07l23.4,33.76L254.72,287.23z"/>
				<g>
					<g>
						<g id="Monitor_Screen_1_">
							<g id="PC_1_">
								<g>
									<polygon style="fill:#407BFF;" points="230.72,241.02 181.58,243.05 183.02,211.78 232.16,209.75 									"/>
									<path style="fill:#263238;" d="M230.15,243.48l-48.43,2c-1.37,0.06-2.44-1.02-2.37-2.39l1.43-31.07
										c0.06-1.38,1.23-2.54,2.6-2.6l48.43-2c1.37-0.06,2.44,1.01,2.37,2.39l-1.43,31.07
										C232.69,242.26,231.52,243.43,230.15,243.48z"/>
									<g>
										<polygon style="fill:#407BFF;" points="230.72,241.02 181.58,243.05 183.02,211.78 232.16,209.75 										"/>
										<polygon style="opacity:0.9;fill:#FFFFFF;" points="230.72,241.02 181.58,243.05 183.02,211.78 232.16,209.75 										
											"/>
									</g>
									<g>
										<polygon style="opacity:0.1;fill:#FFFFFF;enable-background:new    ;" points="200.46,208.73 192.34,245.03 195.57,244.9 
											203.58,208.6 										"/>
										<polygon style="opacity:0.1;fill:#FFFFFF;enable-background:new    ;" points="205.44,208.52 197.32,244.82 
											203.73,244.56 211.74,208.26 										"/>
									</g>
								</g>
							</g>
						</g>
						<path style="fill:#407BFF;" d="M214.77,243.87l16.36-0.46c0.28,1.9-0.53,2.61-1.57,2.64l-5.23,0.13l-3.49,0.08l-5.43,0.15
							l-33.69,0.98l-0.27-2.37L214.77,243.87z"/>
						<g>
							<path style="fill:#407BFF;" d="M214.77,243.87l16.36-0.46c0.28,1.9-0.53,2.61-1.57,2.64l-5.23,0.13l-3.49,0.08l-5.43,0.15
								l-41.7,1.28c-0.48,0.01-0.92-0.25-1.13-0.69l0,0c-0.37-0.78,0.18-1.7,1.05-1.73L214.77,243.87z"/>
							<path style="opacity:0.2;" d="M214.77,243.87l16.36-0.46c0.28,1.9-0.53,2.61-1.57,2.64l-5.23,0.13l-3.49,0.08l-5.43,0.15
								l-41.7,1.28c-0.48,0.01-0.92-0.25-1.13-0.69l0,0c-0.37-0.78,0.18-1.7,1.05-1.73L214.77,243.87z"/>
						</g>
					</g>
					<path style="opacity:0.2;" d="M231.13,243.41l0.1,0.66c0.15,1.02-0.63,1.95-1.67,1.98l-5.23,0.13l-9.71,0.35l0.16-2.66
						L231.13,243.41z"/>
				</g>
				<path style="opacity:0.2;" d="M146.39,223.56c0,0-2.31,4.71,4.36,17.15l2.79,5.07l0,0c0.92,1.67,7.04-1.74,8.86-4.87l0,0
					C162.4,240.91,150.71,233.89,146.39,223.56z"/>
				<g>
					<path style="fill:#CB7A63;" d="M202.96,238.06l4.65-1.37l-0.75,7.19c0,0-6.49,4.34-8.74,0.19l0.9-2.32
						C199.72,239.99,201.16,238.63,202.96,238.06z"/>
					<path style="fill:#CB7A63;" d="M212.95,239.51l-0.58,2.59c-0.17,0.8-0.85,1.39-1.67,1.46l-3.87,0.3l0.75-7.19l3.8,0.6
						c1.01,0.13,1.73,1.06,1.59,2.07C212.97,239.41,212.96,239.46,212.95,239.51z"/>
					<path style="fill:#CB7A63;" d="M164.24,250.21c3.24,4.4,7.8,8.07,13.17,9.12c6.32,1.24,18.48-7.7,24.18-13.49
						c-0.29-2.44-0.12-3.76-2.56-4.1c0,0-6.27,4.6-18.11,7.36c-3.82,0.89-6.37-3.02-9.71-8.71c-1.66-2.84-7.04-14.47-9.07-17.06
						c-3.25-4.16-12.52-1.18-8.84,8.83C154.85,236.38,161.59,246.62,164.24,250.21z"/>
				</g>
				<g>
					<path style="fill:#407BFF;" d="M160.78,216.53c6.58,6.04,9.78,16.72,9.78,16.72l-15.36,9.36c0,0-11.23-15.76-9.23-21.25
						c1.58-4.26,4.51-7.06,8.36-7.3C156.72,213.91,159.02,214.91,160.78,216.53z"/>
				</g>
				<path style="fill:#407BFF;" d="M125.56,279.83l-1.16,0.03c-0.23-0.03-0.41-0.11-0.4-0.26l0.42-4.99
					c0.02-0.15,0.21-0.27,0.44-0.28l1.16-0.03c0.23,0.03,0.41,0.12,0.4,0.26l-0.42,5C125.99,279.71,125.79,279.86,125.56,279.83z"/>
				<g>
					<polygon style="fill:#407BFF;" points="240.23,296.47 255.19,288.99 253.91,283.67 236.85,291.46 					"/>
					<polygon style="opacity:0.5;fill:#FFFFFF;" points="240.23,296.47 255.19,288.99 253.91,283.67 236.85,291.46 					"/>
				</g>
				<path style="fill:#263238;" d="M263.94,302.32l-10.32,3.13c-0.41,0.11-0.67,0.5-0.62,0.92l1.24,9.36
					c0.16,0.92,1.03,1.55,1.95,1.39c0.06-0.01,0.12-0.02,0.18-0.04c17.24-2.87,22.93-6.03,24.78-6.66c5.29-1.79,3.18-5.7,1.3-5.58
					c-8.44,0.52-11.07-0.45-14.42-1.97C266.24,302.24,264.56,302.13,263.94,302.32z"/>
			</g>
			<g>
				<path style="fill:#263238;" d="M125.17,178.93c-3.1,0.49-6.17-1.89-7.14-4.87c-0.97-2.98-0.17-6.31,1.42-9.02
					c1.17-2,8.84-6.74,11.69-1.4C136.8,174.26,125.17,178.93,125.17,178.93z"/>
			</g>
		</g>
		<g>
			<g>
				<g>
					<polygon style="fill:#407BFF;" points="230.28,220.47 200.03,221.75 200.17,218.75 230.42,217.47 					"/>
				</g>
				<g style="opacity:0.7;">
					<polygon style="fill:#FFFFFF;" points="230.28,220.47 200.03,221.75 200.17,218.75 230.42,217.47 					"/>
				</g>
			</g>
			<g>
				<g>
					<polygon style="fill:#407BFF;" points="230.1,224.63 199.85,225.92 199.98,222.92 230.23,221.63 					"/>
				</g>
				<g style="opacity:0.7;">
					<polygon style="fill:#FFFFFF;" points="230.1,224.63 199.85,225.92 199.98,222.92 230.23,221.63 					"/>
				</g>
			</g>
			<g>
				<g>
					<polygon style="fill:#407BFF;" points="229.91,228.8 199.66,230.09 199.8,227.08 230.05,225.8 					"/>
				</g>
				<g style="opacity:0.7;">
					<polygon style="fill:#FFFFFF;" points="229.91,228.8 199.66,230.09 199.8,227.08 230.05,225.8 					"/>
				</g>
			</g>
			<g>
				<g>
					<polygon style="fill:#407BFF;" points="229.72,232.96 199.47,234.25 199.61,231.25 229.86,229.96 					"/>
				</g>
				<g style="opacity:0.7;">
					<polygon style="fill:#FFFFFF;" points="229.72,232.96 199.47,234.25 199.61,231.25 229.86,229.96 					"/>
				</g>
			</g>
			<g>
				<g>
					<polygon style="fill:#407BFF;" points="229.54,237.13 199.29,238.42 199.42,235.42 229.67,234.13 					"/>
				</g>
				<g style="opacity:0.7;">
					<polygon style="fill:#FFFFFF;" points="229.54,237.13 199.29,238.42 199.42,235.42 229.67,234.13 					"/>
				</g>
			</g>
			<g>
				<g>
					<g>
						
							<rect x="185.4" y="223.49" transform="matrix(0.9991 -0.043 0.043 0.9991 -9.4505 8.2238)" style="fill:#407BFF;" width="2.43" height="1"/>
					</g>
				</g>
				<g style="opacity:0.5;">
					
						<rect x="185.4" y="223.49" transform="matrix(0.9991 -0.043 0.043 0.9991 -9.4505 8.2238)" style="fill:#FFFFFF;" width="2.43" height="1"/>
				</g>
			</g>
			<g>
				<g>
					<g>
						
							<rect x="185.29" y="226.38" transform="matrix(0.9991 -0.043 0.043 0.9991 -9.5745 8.2216)" style="fill:#407BFF;" width="2.43" height="1"/>
					</g>
				</g>
				<g style="opacity:0.5;">
					
						<rect x="185.29" y="226.38" transform="matrix(0.9991 -0.043 0.043 0.9991 -9.5745 8.2216)" style="fill:#FFFFFF;" width="2.43" height="1"/>
				</g>
			</g>
			<g>
				<g>
					<g>
						
							<rect x="185.17" y="229.26" transform="matrix(0.9991 -0.0429 0.0429 0.9991 -9.6764 8.1998)" style="fill:#407BFF;" width="2.43" height="1"/>
					</g>
				</g>
				<g style="opacity:0.5;">
					
						<rect x="185.17" y="229.26" transform="matrix(0.9991 -0.0429 0.0429 0.9991 -9.6764 8.1998)" style="fill:#FFFFFF;" width="2.43" height="1"/>
				</g>
			</g>
			<g>
				<g>
					<g>
						
							<rect x="185.06" y="232.15" transform="matrix(0.9991 -0.043 0.043 0.9991 -9.8226 8.2171)" style="fill:#407BFF;" width="2.43" height="1"/>
					</g>
				</g>
				<g style="opacity:0.5;">
					
						<rect x="185.06" y="232.15" transform="matrix(0.9991 -0.043 0.043 0.9991 -9.8226 8.2171)" style="fill:#FFFFFF;" width="2.43" height="1"/>
				</g>
			</g>
			<g>
				<g>
					<g>
						
							<rect x="184.94" y="235.03" transform="matrix(0.9991 -0.0429 0.0429 0.9991 -9.9239 8.1953)" style="fill:#407BFF;" width="2.43" height="1"/>
					</g>
				</g>
				<g style="opacity:0.5;">
					<polygon style="fill:#FFFFFF;" points="184.97,236.08 185.06,235.08 187.48,234.97 187.39,235.98 					"/>
				</g>
			</g>
			<g>
				<g>
					<g>
						
							<rect x="184.83" y="237.92" transform="matrix(0.9991 -0.0421 0.0421 0.9991 -9.8638 8.0365)" style="fill:#407BFF;" width="2.43" height="1"/>
					</g>
				</g>
				<g style="opacity:0.5;">
					
						<rect x="184.83" y="237.92" transform="matrix(0.9991 -0.0421 0.0421 0.9991 -9.8638 8.0365)" style="fill:#FFFFFF;" width="2.43" height="1"/>
				</g>
			</g>
			<g>
				<polygon style="fill:#407BFF;" points="190.34,220.68 185.32,222.54 185.37,221.23 188.15,220.78 185.4,220.59 185.45,219.27 
									"/>
			</g>
			<g>
				<g>
					<polygon style="fill:#407BFF;" points="220.99,215.91 200.03,216.8 200.13,214.72 221.09,213.83 					"/>
				</g>
				<g style="opacity:0.7;">
					<polygon style="fill:#FFFFFF;" points="220.99,215.91 200.03,216.8 200.13,214.72 221.09,213.83 					"/>
				</g>
			</g>
			<g>
				<g>
					<polygon style="fill:#407BFF;" points="192.71,216.98 189.64,217.12 190.88,216.33 191.22,216.64 191.59,216.32 					"/>
				</g>
				<g>
					<polygon style="fill:#407BFF;" points="190.76,216.23 189.52,217.03 189.61,215.19 					"/>
				</g>
				<g>
					<polygon style="fill:#407BFF;" points="192.91,215.14 192.81,216.88 191.68,216.21 					"/>
				</g>
				<g>
					
						<rect x="191.18" y="215.94" transform="matrix(0.6871 -0.7266 0.7266 0.6871 -97.0644 206.5141)" style="fill:#FFFFFF;" width="0.1" height="0.01"/>
				</g>
				<g>
					
						<rect x="191.23" y="215.9" transform="matrix(0.726 -0.6877 0.6877 0.726 -96.1088 190.7021)" style="fill:#FFFFFF;" width="0.01" height="0.1"/>
				</g>
				<g>
					<polygon style="fill:#407BFF;" points="192.91,214.96 191.59,216.16 191.22,216.49 190.88,216.17 189.73,215.13 189.64,215.05 
											"/>
				</g>
			</g>
			<g>
				<g>
					<g>
						
							<rect x="185.4" y="215.35" transform="matrix(0.9991 -0.0425 0.0425 0.9991 -8.9827 8.119)" style="fill:#407BFF;" width="2.43" height="0.3"/>
					</g>
				</g>
				<g>
					<g>
						
							<rect x="185.4" y="216.11" transform="matrix(0.9991 -0.0425 0.0425 0.9991 -9.0123 8.1169)" style="fill:#407BFF;" width="2.43" height="0.3"/>
					</g>
				</g>
				<g>
					<g>
						
							<rect x="185.4" y="216.88" transform="matrix(0.9991 -0.0425 0.0425 0.9991 -9.0477 8.1204)" style="fill:#407BFF;" width="2.43" height="0.3"/>
					</g>
				</g>
			</g>
		</g>
	</g>
</g>
<g id="Files">
	<g>
		<g>
			<g>
				<g>
					<path style="fill:#407BFF;" d="M328.71,64.92h-14.57c-1.32,0-2.39-1.07-2.39-2.39c0-1.32,1.07-2.39,2.39-2.39h14.57
						c1.32,0,2.39,1.07,2.39,2.39C331.1,63.85,330.03,64.92,328.71,64.92z"/>
				</g>
				<g style="opacity:0.7;">
					<path style="fill:#FFFFFF;" d="M328.71,64.92h-14.57c-1.32,0-2.39-1.07-2.39-2.39c0-1.32,1.07-2.39,2.39-2.39h14.57
						c1.32,0,2.39,1.07,2.39,2.39C331.1,63.85,330.03,64.92,328.71,64.92z"/>
				</g>
			</g>
			<g>
				<g>
					<g>
						<g>
							<path style="fill:#407BFF;" d="M382.16,114.03l-55.86,102.8c-0.72,1.32-2.38,1.81-3.7,1.09l-95.05-51.65
								c-1.32-0.72-1.81-2.38-1.09-3.7l72.65-133.71c0.72-1.32,2.38-1.81,3.7-1.09l64.05,34.8L382.16,114.03z"/>
						</g>
						<g style="opacity:0.2;">
							<path style="fill:#FFFFFF;" d="M382.16,114.03l-55.86,102.8c-0.72,1.32-2.38,1.81-3.7,1.09l-95.05-51.65
								c-1.32-0.72-1.81-2.38-1.09-3.7l72.65-133.71c0.72-1.32,2.38-1.81,3.7-1.09l64.05,34.8L382.16,114.03z"/>
						</g>
						
							<rect x="273.81" y="117.65" transform="matrix(0.8801 0.4748 -0.4748 0.8801 94.7107 -134.7437)" style="fill:#407BFF;" width="80.66" height="5"/>
						
							<rect x="264.11" y="135.63" transform="matrix(0.8801 0.4748 -0.4748 0.8801 102.085 -127.9817)" style="fill:#407BFF;" width="80.66" height="5"/>
						
							<rect x="254.41" y="153.61" transform="matrix(0.8801 0.4748 -0.4748 0.8801 109.4602 -121.2203)" style="fill:#407BFF;" width="80.66" height="5"/>
						<path style="fill:#407BFF;" d="M366.94,62.52L350.1,93.53c-0.72,1.32-0.23,2.98,1.09,3.7l30.91,16.8L366.94,62.52z"/>
						<path style="opacity:0.7;fill:#FFFFFF;" d="M366.94,62.52L350.1,93.53c-0.72,1.32-0.23,2.98,1.09,3.7l30.91,16.8L366.94,62.52
							z"/>
					</g>
					<g>
						<g>
							<path style="fill:#407BFF;" d="M396.72,110.57l-55.86,102.8c-0.72,1.32-2.38,1.81-3.7,1.09l-95.05-51.65
								c-1.32-0.72-1.81-2.38-1.09-3.7l72.65-133.71c0.72-1.32,2.38-1.81,3.7-1.09l64.05,34.8L396.72,110.57z"/>
						</g>
						<g style="opacity:0.5;">
							<path style="fill:#FFFFFF;" d="M396.72,110.57l-55.86,102.8c-0.72,1.32-2.38,1.81-3.7,1.09l-95.05-51.65
								c-1.32-0.72-1.81-2.38-1.09-3.7l72.65-133.71c0.72-1.32,2.38-1.81,3.7-1.09l64.05,34.8L396.72,110.57z"/>
						</g>
						<path style="fill:#407BFF;" d="M363.49,132.62l-67.2-36.25c-1.05-0.56-2.35-0.17-2.92,0.87l-0.33,0.61
							c-0.56,1.05-0.17,2.35,0.87,2.92l67.2,36.25c1.05,0.56,2.35,0.17,2.92-0.87l0.33-0.61
							C364.93,134.49,364.54,133.18,363.49,132.62z"/>
						<path style="fill:#407BFF;" d="M353.79,150.6l-67.2-36.25c-1.05-0.56-2.35-0.17-2.92,0.87l-0.33,0.61
							c-0.56,1.05-0.17,2.35,0.87,2.92l67.2,36.25c1.05,0.56,2.35,0.17,2.92-0.87l0.33-0.61
							C355.23,152.47,354.84,151.16,353.79,150.6z"/>
						<path style="fill:#407BFF;" d="M344.09,168.58l-67.2-36.25c-1.05-0.56-2.35-0.17-2.92,0.87l-0.33,0.61
							c-0.56,1.05-0.17,2.35,0.87,2.92l67.2,36.25c1.05,0.56,2.35,0.17,2.92-0.87l0.33-0.61
							C345.53,170.45,345.14,169.15,344.09,168.58z"/>
						<path style="fill:#407BFF;" d="M381.51,59.07l-16.85,31.01c-0.72,1.32-0.23,2.98,1.09,3.7l30.91,16.8L381.51,59.07z"/>
						<path style="opacity:0.7;fill:#FFFFFF;" d="M381.51,59.07l-16.85,31.01c-0.72,1.32-0.23,2.98,1.09,3.7l30.91,16.8
							L381.51,59.07z"/>
					</g>
				</g>
			</g>
		</g>
		<path style="fill:#407BFF;" d="M377.65,11.94l4.7,20.87c-17.8,4.89-33.77,22.5-45.26,39.15c-4.53,6.57-8.37,14.2-11.24,22.27
			c0,0,35.89-32.47,55.68-34.37l-0.94,34.5c0,0,20.52-39.97,60.38-54.6C440.96,39.75,407.58,15.71,377.65,11.94z"/>
	</g>
</g>
<g id="Couch">
	<g>
		<g>
			<g>
				<g>
					<path style="fill:#407BFF;" d="M135.51,239.94l9.07,103.67h-14.62l-9.76-111.56h6.7C131.39,232.05,135.12,235.48,135.51,239.94
						z"/>
					<path style="opacity:0.2;" d="M135.6,240.88l8.99,102.74h-14.62l-9.76-111.56h5.76C130.98,232.05,135.16,235.89,135.6,240.88z"
						/>
				</g>
				<g>
					<path style="fill:#407BFF;" d="M126.01,238.81l9.17,104.81H48.14L39.09,240.1c-0.38-4.32,3.03-8.04,7.37-8.04h72.18
						C122.48,232.05,125.68,234.99,126.01,238.81z"/>
					<path style="opacity:0.2;fill:#FFFFFF;" d="M126.11,239.95l9.07,103.67H48.14l-8.94-102.16c-0.44-5.05,3.54-9.4,8.61-9.4h69.68
						C121.98,232.05,125.72,235.48,126.11,239.95z"/>
				</g>
			</g>
			<g>
				<g>
					<path style="fill:#407BFF;" d="M279.19,343.62H48.54l-2.51-28.75h221.41c5.11,0,9.61,4.14,10.05,9.25L279.19,343.62z"/>
					<path style="opacity:0.2;fill:#FFFFFF;" d="M279.19,343.62H48.54l-2.51-28.75h221.41c5.11,0,9.61,4.14,10.05,9.25
						L279.19,343.62z"/>
				</g>
			</g>
			<path style="fill:#407BFF;" d="M289.77,354.63H45.83c-3.16,0-5.73-2.56-5.73-5.73l0,0c0-3.16,2.56-5.73,5.73-5.73h243.94
				c3.16,0,5.73,2.56,5.73,5.73l0,0C295.5,352.06,292.93,354.63,289.77,354.63z"/>
			<path style="opacity:0.2;" d="M289.77,354.63H148.16c-3.16,0-5.73-2.56-5.73-5.73l0,0c0-3.16,2.56-5.73,5.73-5.73h141.61
				c3.16,0,5.73,2.56,5.73,5.73l0,0C295.5,352.06,292.93,354.63,289.77,354.63z"/>
		</g>
		<g>
			<g>
				<polygon style="fill:#263238;" points="49.03,354.63 51.92,364.46 57.7,364.46 60.88,354.63 				"/>
				<polygon style="opacity:0.5;fill:#FFFFFF;" points="49.03,354.63 51.92,364.46 57.7,364.46 60.88,354.63 				"/>
			</g>
			<g>
				<polygon style="fill:#263238;" points="131.86,354.63 134.75,364.46 140.53,364.46 143.71,354.63 				"/>
				<polygon style="opacity:0.5;fill:#FFFFFF;" points="131.86,354.63 134.75,364.46 140.53,364.46 143.71,354.63 				"/>
			</g>
			<g>
				<polygon style="fill:#263238;" points="195.26,354.63 198.15,364.46 203.93,364.46 207.11,354.63 				"/>
				<polygon style="opacity:0.5;fill:#FFFFFF;" points="195.26,354.63 198.15,364.46 203.93,364.46 207.11,354.63 				"/>
			</g>
			<g>
				<polygon style="fill:#263238;" points="278.09,354.63 280.98,364.46 286.76,364.46 289.94,354.63 				"/>
				<polygon style="opacity:0.5;fill:#FFFFFF;" points="278.09,354.63 280.98,364.46 286.76,364.46 289.94,354.63 				"/>
			</g>
		</g>
	</g>
</g>
</svg>
