<?xml version="1.0" encoding="utf-8"?>
<!-- Generator: Adobe Illustrator 24.2.1, SVG Export Plug-In . SVG Version: 6.00 Build 0)  -->
<svg version="1.1" xmlns="http://www.w3.org/2000/svg" xmlns:xlink="http://www.w3.org/1999/xlink" x="0px" y="0px"
	 viewBox="0 0 5849.8 3208.9" style="enable-background:new 0 0 5849.8 3208.9;" xml:space="preserve">
<style type="text/css">
	.st0{fill:#ECE1EF;}
	.st1{fill:#D6D6ED;}
	.st2{fill:#FF7685;}
	.st3{fill:#FFFFFF;}
	.st4{fill:#FBF3FF;}
	.st5{fill:#F4F7FA;}
	.st6{fill:url(#SVGID_1_);}
	.st7{opacity:0.28;fill:#FFFFFF;}
	.st8{opacity:0.7;clip-path:url(#SVGID_4_);fill:#FFFFFF;}
	.st9{opacity:0.5;clip-path:url(#SVGID_7_);fill:#FFFFFF;}
	.st10{fill:url(#SVGID_8_);}
	.st11{clip-path:url(#SVGID_10_);fill:#D8DEE8;}
	.st12{fill:url(#SVGID_11_);}
	.st13{clip-path:url(#SVGID_13_);fill:#D8DEE8;}
	.st14{fill:url(#SVGID_14_);}
	.st15{clip-path:url(#SVGID_16_);fill:#A2A7AE;}
	.st16{fill:url(#SVGID_17_);}
	.st17{fill:url(#SVGID_18_);}
	.st18{opacity:0.3;fill:url(#SVGID_19_);}
	.st19{opacity:0.1;fill:#FFFFFF;}
	.st20{fill:url(#SVGID_20_);}
	.st21{fill:url(#SVGID_21_);}
	.st22{fill:url(#SVGID_22_);}
	.st23{fill:url(#SVGID_23_);}
	.st24{clip-path:url(#SVGID_25_);}
	.st25{fill:url(#SVGID_26_);}
	.st26{fill:url(#SVGID_27_);}
	.st27{opacity:0.3;}
	.st28{fill:url(#SVGID_28_);}
	.st29{fill:url(#SVGID_29_);}
	.st30{fill:url(#SVGID_30_);}
	.st31{fill:#D8DEE8;}
	.st32{fill:url(#SVGID_31_);}
	.st33{fill:url(#SVGID_32_);}
	.st34{fill:url(#SVGID_33_);}
	.st35{fill:url(#SVGID_34_);}
	.st36{fill:url(#SVGID_35_);}
	.st37{fill:url(#SVGID_36_);}
	.st38{fill:url(#SVGID_37_);}
	.st39{fill:url(#SVGID_38_);}
	.st40{fill:url(#SVGID_39_);}
	.st41{fill:url(#SVGID_40_);}
	.st42{opacity:0.3;fill:url(#SVGID_41_);}
	.st43{fill:url(#SVGID_42_);}
	.st44{fill:url(#SVGID_43_);}
</style>
<g id="Background">
</g>
<g id="Illustration">
	<g>
		<path class="st0" d="M3114.9,660.6L3114.9,660.6c-144,0-260.8-120.5-260.8-269.1l0,0c0-148.6,116.8-269.1,260.8-269.1h1830.6
			c129.4,0,234.3,108.2,234.3,241.8l0,0c0,160,125.7,289.7,280.8,289.7h47.1c159,0,287.8,133,287.8,297l0,0
			c0,164-128.9,297-287.8,297l0,0c-155.1,0-280.8,129.7-280.8,289.7v55.2c0,133.5-104.9,241.8-234.3,241.8H3077.9
			c-159,0-287.8-133-287.8-297v-0.3c0-163.9,128.7-296.7,287.5-296.7l0,0C3232.9,1240.7,3249.5,660.6,3114.9,660.6z"/>
		<path class="st0" d="M2821.5,2582.5L2821.5,2582.5c144-0.4,261.1,102,261.5,228.8v0c0.4,126.8-116,230-260.1,230.4l-1687-64
			c-129.4,0.4-353.9-125.3-354.2-239.3c0,0-150.7-143.4-305.8-143l-47.2,0.1c-159,0.5-288.2-112.6-288.6-252.5l0,0
			c-0.4-139.9,128.1-253.8,287-254.3l0,0c155.1-0.5,280.4-111.5,280-248.1l-0.2-47.1c-0.3-113.9,104.3-206.6,233.7-207l1914.8-5.9
			c159-0.5,288.2,112.6,288.6,252.5v0.2c0.4,139.8-128,253.6-286.8,254l0,0C2702.1,2087.9,2686.9,2582.9,2821.5,2582.5z"/>
		<path class="st0" d="M4155.4,1683.2v-47.4c0-171.1,105.3-309.7,235.2-309.7l0,0c139,0,251.6-148.4,251.6-331.4l0,0
			c0-183-112.6-331.4-251.6-331.4H2624.4c-124.8,0-226,133.3-226,297.7l0,0c0,197-121.3,356.8-270.9,356.8H2082
			c-153.4,0-277.7,163.7-277.7,365.7l0,0c0,202,124.3,365.7,277.7,365.7l0,0c149.6,0,270.9,159.7,270.9,356.8v68
			c0,164.4,101.2,297.7,226,297.7h1847.4c153.4,0,277.7-163.7,277.7-365.7v-0.4c0-201.8-124.2-365.4-277.4-365.4l0,0
			C4276.8,2040.3,4155.4,1880.4,4155.4,1683.2z"/>
		<path class="st1" d="M991.3,2200.2c368-204.3,971.6-287.4,917.2-353c-139.7-168.4-1133-200-1133-200s1197-128.4,1354.2,159.3
			c157.1,287.7-1010,350.5-1033.2,708.4c-23.3,357.9,2602.5,182.1,2602.5,182.1h1030.6c0,0,15.3,306.5-146.6,393
			c-256.9,137.1-1653.4,49.8-2750.1,49.8C437.2,3139.8,586.9,2424.7,991.3,2200.2z"/>
		<g>
			<path class="st2" d="M576.6,1243.1c0,134.8,198.9,404.1,198.9,404.1s225.4-269.3,225.4-404.1c0-134.8-95-244.1-212.2-244.1
				C671.6,999,576.6,1108.3,576.6,1243.1z"/>
			<path class="st3" d="M666.6,1181.8c0,60.7,51.5,109.9,115.1,109.9c63.6,0,115.1-49.2,115.1-109.9c0-60.7-51.5-109.9-115.1-109.9
				C718.1,1071.9,666.6,1121.1,666.6,1181.8z"/>
		</g>
		<g>
			<g>
				<path class="st4" d="M2287.5,3003.3l0.4-51.5c-8.5-0.1-853.6-7.5-1102-115.8c-240.1-104.7-263.4-252.4-263.6-253.9l-51,7.1
					c1,7.2,27.8,177.8,294,293.9C1423.3,2995.7,2252.3,3003.1,2287.5,3003.3z"/>
			</g>
			<path class="st4" d="M860.1,2441.4l244.4,264.3l-138,14l-69,62C897.5,2781.7,843.6,2641.4,860.1,2441.4z"/>
		</g>
	</g>
	<g>
		<path class="st5" d="M2737,2673.2c70.8,73,134.1,115.9,182.6,148.3c473,315.8,1013.7,224.8,1180.9,193.7
			c269.7-50.2,497.4-85.6,693-262.3c444.5-401.6,422.9-1239.3,83.2-1758.2c-40.3-61.5-379.4-564.2-921.3-635
			c-13.3-1.7-23.1-2.7-31.8-3.6c-83.8-8.9-603.3-55.7-1026.8,299.1c-60.6,50.8-158.2,142.4-248.7,282.2
			C2317.3,1448.2,2316.3,2239.5,2737,2673.2z"/>
		<g>
			<g>
				
					<linearGradient id="SVGID_1_" gradientUnits="userSpaceOnUse" x1="3866.2046" y1="1362.417" x2="3263.3792" y2="2045.0275" gradientTransform="matrix(-0.9895 -0.1447 -0.1447 0.9895 8255.7744 420.2363)">
					<stop  offset="3.597120e-03" style="stop-color:#E38DDD"/>
					<stop  offset="1" style="stop-color:#9571F6"/>
				</linearGradient>
				<path class="st6" d="M3685.1,2218.4c499.7,85.8,653.4,19.3,698.8-60.6c26.4-46.4,29.1-120.1,104.4-213.2
					c63.4-78.4,99.9-73.6,127.1-133.7c47.1-104.3-42.8-163-6.1-264c40.1-110.6,166.3-91.1,221-223.2c29.9-72.3-5.2-84.4,21.4-156.5
					c54.3-146.8,214.2-134,267.4-266.4c30.9-77.1,15-176.8-35.9-235.5c-102.1-117.8-346.5-72.6-484.7,36.6
					c-17.8,14.1-151.8,123.1-164.8,284.5c-7.8,97.4,34.1,142.8-0.4,202.1c-48.8,83.6-159.2,39.5-207.7,113.8
					c-65.7,100.7,90.2,253.6,15.1,366.9c-29.1,43.9-59.8,32.1-88.9,82.4c-47.8,82.8,7.9,162.2-3.1,231.2
					C4136.7,2056.8,4043.5,2147.2,3685.1,2218.4z"/>
				<path class="st7" d="M4609.5,932c-64.8,149.6,40.9,244.2-35.1,362.2c-61.7,95.9-158.9,76.3-185.5,165.5
					c-25.5,85.5,56.9,126.8,34.4,224.5c-18.6,80.5-81.1,80.9-143.6,185.1c-62.9,104.8-37.4,167.7-69.7,231.7
					c-34.7,68.7-133,133.2-397.7,137c-39.7-5.4-82-11.9-127.2-19.6c358.4-71.3,451.6-161.7,463.4-235.7
					c11-68.9-44.7-148.3,3.1-231.2c29.1-50.4,59.8-38.6,88.9-82.4c75.1-113.3-80.8-266.2-15.1-366.9
					c48.5-74.3,158.9-30.1,207.7-113.8c34.6-59.3-7.4-104.7,0.4-202.1c13-161.4,147-270.4,164.8-284.5
					c138.2-109.2,382.6-154.4,484.7-36.6c0.5,0.6,1,1.2,1.4,1.7c-68.3,2.4-152,16.3-238.6,57.7
					C4778.6,756.8,4661.2,812.8,4609.5,932z"/>
			</g>
			<g>
				<g>
					<defs>
						<path id="SVGID_2_" d="M3845.8,2270c169-43,217-95.1,224.4-138.8c12.1-71.6-85.3-115.7-72.2-197.3
							c15-94,156.8-113.5,152.4-175.3c-4.7-66.8-171.6-62-206-158.2c-31.2-87.2,89.2-137.9,88.2-264.5
							c-1.1-151.2-173.5-186.6-203.8-358.7c-20.7-117.5,39.2-217.4,86.2-295.8c105.7-176.4,322.9-347.8,568.7-330.5
							c33.5,2.4,229.2,16.2,277.7,130.9c49.1,116.3-68.2,300.5-188.2,398.1c-87,70.7-159.9,83.4-163.7,139.1
							c-5.2,75.1,123.8,102.5,136.1,212c6.5,57.8-23.2,107.3-52.4,155.9c-66.1,110.2-130.7,106.1-140.1,167.1
							c-13,83.5,103.7,117.7,129.6,242.7c18.5,89.1-21.1,166.7-43.4,210.4C4352.5,2177.7,4118.5,2275.3,3845.8,2270z"/>
					</defs>
					
						<linearGradient id="SVGID_3_" gradientUnits="userSpaceOnUse" x1="3308.5017" y1="356.1591" x2="3451.2383" y2="1541.3054" gradientTransform="matrix(-1 0 0 1 7652.7202 0)">
						<stop  offset="0" style="stop-color:#AA80F9"/>
						<stop  offset="0.9964" style="stop-color:#6165D7"/>
					</linearGradient>
					<use xlink:href="#SVGID_2_"  style="overflow:visible;fill:url(#SVGID_3_);"/>
					<clipPath id="SVGID_4_">
						<use xlink:href="#SVGID_2_"  style="overflow:visible;"/>
					</clipPath>
					<path class="st8" d="M4823.6,423.8c-106.4,48.7-212.6,97.9-318.6,147.5c-53.1,24.6-106,49.7-158.4,75.7
						c-26.2,13-52.4,26.1-78.4,39.6c-26,13.6-51.8,27.5-76.9,42.8c-12.6,7.7-24.9,15.7-36.8,24.6c-6,4.4-11.7,9.2-17.3,14.2
						c-5.5,5.1-10.8,10.5-15.7,16.4c-4.8,5.9-9,12.4-12.4,19.4c-3.4,6.9-5.9,14.3-7.5,21.8c-3,15-3.5,30.5-0.6,45.5
						c2.7,15,8.4,29.3,15.5,42.5c7.1,13.2,15.8,25.4,24.9,37c18.3,23.3,38.6,44.5,58.1,66.2c19.5,21.7,38.4,43.8,54,68.1
						c7.7,12.2,14.7,24.8,20.2,38c5.4,13.3,9.6,26.9,12,41c4.5,28.1,2.8,57.4-6,84.5c-4.4,13.5-10.7,26.4-18.1,38.7
						c-7.5,12.2-16.2,23.8-25.2,35.2c-9,11.4-18.4,22.8-27,34.8c-8.6,12-16.5,24.9-22.4,38.7c-6,13.8-10,28.5-11.7,43.4
						c-1.8,14.9-1.6,30,0.1,44.8c1.8,14.9,5.4,29.6,11,43.5c5.6,13.9,12.8,27.1,21.1,39.4c16.3,24.8,36.6,46.2,50.8,71.1
						c7.1,12.4,12.2,25.7,14.6,39.7c2.2,13.9,1.8,28.3-0.9,42.3c-2.7,13.9-7.8,27.4-14.8,39.8c-7.1,12.4-15.8,23.9-25.5,34.6
						c-19.2,21.7-41.6,40.9-59.8,64.4c-9.1,11.7-16.9,24.7-22.2,38.8c-5.2,14.1-7.8,29.1-7.8,44.1c0.1,15,2.6,30,8.1,44
						c5.4,14,13.5,26.6,21.5,38.9c7.8,12.2,15.6,24.6,17.8,38.5c2.6,13.8-0.6,28.2-7.1,40.7c-6.7,12.5-16.1,23.7-26.7,33.4
						c-10.6,9.8-22.3,18.5-34.4,26.5c-24.4,15.8-50.4,29.2-77.1,41.1c-26.6,12-53.9,22.6-81.4,32.5c-27.5,9.8-55.3,19-83.3,27.5
						c-55.9,17.1-112.5,32-169.3,45.9l0.1,0.4c57-13.4,113.7-27.8,169.8-44.4c28.1-8.2,56-17.1,83.6-26.7c27.6-9.6,55-20,81.9-31.8
						c26.9-11.7,53.2-24.9,78-40.7c12.4-8,24.3-16.7,35.3-26.7c11-9.9,20.9-21.3,28-34.6c6.9-13.3,10.6-28.9,7.8-44.1
						c-1-7.6-3.9-14.8-7.2-21.5c-3.3-6.8-7.3-13-11.2-19.2c-7.9-12.3-15.6-24.5-20.7-37.9c-5.1-13.3-7.4-27.6-7.4-41.9
						c0.1-14.3,2.6-28.5,7.6-41.8c5.1-13.3,12.6-25.6,21.4-37c17.7-22.7,40.1-41.8,59.9-63.8c9.9-10.9,19.1-22.8,26.6-35.7
						c7.4-13,12.9-27.2,15.9-42c3-14.7,3.5-30,1.2-45c-2.4-15-7.9-29.4-15.3-42.4c-14.8-26.2-35-47.8-50.8-71.9
						c-8-12-14.9-24.6-20.2-37.9c-5.3-13.3-8.7-27.2-10.3-41.4c-3.3-28.3-0.6-57.7,11.1-83.7c11.2-26.3,30.2-48.6,48.4-71.5
						c9.1-11.5,18.1-23.3,25.9-36c7.8-12.7,14.4-26.3,19.1-40.6c9.3-28.6,11.1-59.3,6.4-88.9c-2.5-14.8-7-29.2-12.5-43
						c-5.7-13.8-13-26.9-20.8-39.5c-16-25-35.2-47.6-54.8-69.4c-19.6-21.8-39.8-43-57.6-65.8c-8.8-11.4-17.2-23.2-23.9-35.7
						c-6.7-12.5-11.9-25.8-14.4-39.6c-2.6-13.8-2.1-27.9,0.6-41.6c2.8-13.7,9-26.2,17.8-37.1c4.4-5.4,9.4-10.5,14.6-15.4
						c5.3-4.7,10.8-9.4,16.6-13.7c11.5-8.7,23.6-16.6,36-24.3c24.8-15.2,50.4-29.2,76.2-42.8c25.8-13.6,51.9-26.8,78.1-39.9l78.6-39
						c26.2-13.1,52.6-25.5,78.9-38.3c105.4-50.7,210.7-101.7,315.8-153.3L4823.6,423.8z"/>
				</g>
			</g>
			<g>
				<g>
					<defs>
						<path id="SVGID_5_" d="M3942.5,2224.7c40.8,21.3,107.3,52.5,193.4,77.1c177.2,50.6,482.1,85.9,586.8-51
							c12.9-16.8,46.9-61.3,42.4-116.3c-4.7-57.1-46.9-74.8-40.6-110.5c8.6-48.8,92.6-45.1,176.1-101.2
							c70.9-47.6,156.3-148.2,148-266.6c-9-129.8-125.2-203.6-137.8-211.3c-85.9-52.7-218.2-71.7-300.9-5.2
							c-73.2,58.9-80,162.6-84.6,231c-10.2,154.9,54.6,224.6,7.9,278.8c-42.5,49.4-114.6,13-166.2,78.8
							c-22.1,28.2-15.8,43.6-50.3,98.7c-26.1,41.7-54.3,72.1-65.9,82.9C4161.1,2293.7,3960.3,2230.5,3942.5,2224.7z"/>
					</defs>
					
						<linearGradient id="SVGID_6_" gradientUnits="userSpaceOnUse" x1="3176.1204" y1="1766.0609" x2="3070.3027" y2="2735.354" gradientTransform="matrix(-1 0 0 1 7652.7202 0)">
						<stop  offset="3.597120e-03" style="stop-color:#E38DDD"/>
						<stop  offset="1" style="stop-color:#9571F6"/>
					</linearGradient>
					<use xlink:href="#SVGID_5_"  style="overflow:visible;fill:url(#SVGID_6_);"/>
					<clipPath id="SVGID_7_">
						<use xlink:href="#SVGID_5_"  style="overflow:visible;"/>
					</clipPath>
					<path class="st9" d="M4053.6,2276.3c84.3,0,168-5.5,250.1-16.5c248.3-33.2,276.4-88.9,285.6-107.1c14.3-28.4,11.7-52.3,9-77.6
						c-3.1-28.4-6.3-57.8,12.3-98.5c17-37.2,39.1-54.4,60.5-71.1c20.9-16.3,42.5-33.2,58.4-68.3c20.5-45.2,14.3-81.9,7.7-120.8
						c-3.6-21.3-7.3-43.3-6.9-68c1.6-97.4,68.7-197.1,199.7-296.4l-2-2.7c-131.8,100-199.4,200.6-201,299c-0.4,25,3.3,47.1,7,68.6
						c6.5,38.3,12.6,74.5-7.5,118.8c-15.6,34.4-35.9,50.2-57.4,67c-21.7,16.9-44.2,34.5-61.5,72.4c-19,41.6-15.6,72.8-12.6,100.3
						c2.7,24.8,5.3,48.2-8.6,75.8c-9,17.9-36.5,72.3-283.1,105.3c-122,16.3-247.6,20.5-373.4,12.5l-0.2,3.3
						C3971,2275,4012.4,2276.3,4053.6,2276.3z"/>
				</g>
			</g>
		</g>
		<g>
			<g>
				
					<linearGradient id="SVGID_8_" gradientUnits="userSpaceOnUse" x1="3034.8254" y1="1926.7297" x2="3762.6445" y2="1926.7297" gradientTransform="matrix(-1 0 0 1 7652.7202 0)">
					<stop  offset="0" style="stop-color:#FFC444"/>
					<stop  offset="0.9964" style="stop-color:#F36F56"/>
				</linearGradient>
				<polygon class="st10" points="3890.1,3005.4 4617.9,2950 4617.9,902 3890.1,848.1 				"/>
				<g>
					<defs>
						<polygon id="SVGID_9_" points="4561.6,2860.5 4561.6,991.6 3890.1,946.4 3890.1,2907 						"/>
					</defs>
					<use xlink:href="#SVGID_9_"  style="overflow:visible;fill:#FFFFFF;"/>
					<clipPath id="SVGID_10_">
						<use xlink:href="#SVGID_9_"  style="overflow:visible;"/>
					</clipPath>
					<path class="st11" d="M1897.6,1431.8l722.2,21.2c2.4-396.5,4.4-963.2,0.5-1015.7c0.2,2.7,1.5,16.8,8.5,32.8l95.7-82.8
						c10.3,23.8,10.6,43.8,11.4,97.1c0.5,30.2,0.8,73.6,1,129c0.3,92.6,0.2,220.5-0.3,380c-0.9,271.4-2.7,544.4-2.7,547.1l-0.5,82.5
						l-247.8-4.6v594l467.2-8.9l279.2-558.6l383.5,6.8l-515.1-932.3l81.5-99.5L3748,1654l243.7,4.3c-0.3-93.8-0.9-260.5-1.2-426.6
						c-0.3-146.7-0.4-264.1-0.2-349c0.3-169.3,1-171.2,4.4-182l45.5,40.2c1.8-5.7,2.2-10.5,2.3-11.4c-2.4,35.2-1.3,549.4,0.1,929.6
						l254.4,4.5c46.2-273.3,154.2-912,157.9-929.7l84.7,53.8l0.2-1c-4.6,24.7-100.1,592.6-163.9,972.5l-9.2,54.7l-533.2-3.8
						l331.2,605l650.1-23.2v144.2l-693,32.2l-419.4-759.1l-417.5-3l-195.4,394.4l516.2-9.8v1120.5l-54.1,5.2V2276l-505.5,12.5
						l-509.8,1029.3l-93.8-93.4l466-932.5l-485.7,12v-686.8l-525.2-9.8V1431.8z"/>
				</g>
			</g>
			<g>
				
					<linearGradient id="SVGID_11_" gradientUnits="userSpaceOnUse" x1="4490.5908" y1="1431.295" x2="5333.9531" y2="3603.5889" gradientTransform="matrix(-1 0 0 1 7652.7202 0)">
					<stop  offset="0" style="stop-color:#FFC444"/>
					<stop  offset="0.9964" style="stop-color:#F36F56"/>
				</linearGradient>
				<rect x="2544.8" y="968.6" class="st12" width="848.8" height="1919.1"/>
				<g>
					<defs>
						
							<rect id="SVGID_12_" x="2131.1" y="1537.5" transform="matrix(-4.489760e-11 1 -1 -4.489760e-11 4931.1289 -1076.1599)" width="1745.1" height="780"/>
					</defs>
					<use xlink:href="#SVGID_12_"  style="overflow:visible;fill:#FFFFFF;"/>
					<clipPath id="SVGID_13_">
						<use xlink:href="#SVGID_12_"  style="overflow:visible;"/>
					</clipPath>
					<path class="st13" d="M2305,1539h645.2c2.2-324.4,4.1-788,0.4-830.7c0.2,2.2,1.4,13.6,7.9,26.2l90.1-75.4
						c9.7,18.8,10,35.2,10.8,79c0.4,24.9,0.8,60.6,0.9,106.2c0.3,76.3,0.2,181.7-0.3,313.1c-0.8,223.6-2.5,448.6-2.5,450.8
						l-0.5,67.9h-231.3V2158h442.4l277.5-471H3944l-530.4-778.8l81.5-89.9l591.6,868.7h269c-0.4-84.1-1-233.5-1.4-382.3
						c-0.3-131.4-0.4-236.7-0.2-312.8c0.4-151.8,1.1-153.6,5-163.5l51.3,32.6c2.1-5.2,2.5-9.6,2.6-10.4
						c-2.7,31.9-1.5,494.4,0.1,836.4h293c54.4-252,182.9-847.3,187.3-864l102.3,43.4l0.3-1c-5.6,23.4-120.7,556-196.7,908.3
						l-10.9,50.4h-608.2l372.4,546.9h784.2v137.2h-833.5l-465.9-684.1h-437.9L3402.9,2158h530.9v978h-57.4v-905h-516.5l-487.2,827
						l-86.3-82.3l438.7-744.7h-456.8v-554.7H2305V1539z"/>
				</g>
			</g>
			<g>
				
					<linearGradient id="SVGID_14_" gradientUnits="userSpaceOnUse" x1="3559.2183" y1="1925.4968" x2="4480.793" y2="1931.0822" gradientTransform="matrix(-1 0 0 1 7652.7202 0)">
					<stop  offset="0" style="stop-color:#FFC444"/>
					<stop  offset="0.9964" style="stop-color:#F36F56"/>
				</linearGradient>
				<polygon class="st14" points="3393.7,2887.7 3890.1,3005.4 3890.1,848.1 3393.7,968.6 				"/>
				<g>
					<defs>
						<polygon id="SVGID_15_" points="3890.1,2907 3890.1,946.4 3393.7,1056.1 3393.7,2800.2 						"/>
					</defs>
					<use xlink:href="#SVGID_15_"  style="overflow:visible;fill:#D8DEE8;"/>
					<clipPath id="SVGID_16_">
						<use xlink:href="#SVGID_15_"  style="overflow:visible;"/>
					</clipPath>
					<path class="st15" d="M2897.5,1589.5l278-27.8c1-306.7,1.9-745.2,0.2-785c0.1,2,0.7,12.7,3.7,23.6l42.4-84.9
						c4.6,16.5,4.8,32.2,5.2,74.1c0.2,23.8,0.4,57.9,0.4,101.6c0.1,73.1,0.1,174-0.2,300c-0.4,214.3-1.2,429.8-1.2,431.9l-0.2,65.1
						l-107.3,7v448.3l210.9,11.5l144.9-472.2l227.7-14.3l-298-761.6l43.1-102.1l342.8,858.2l175.8-11.1c-0.3-96-0.7-266.7-0.9-436.6
						c-0.2-150.1-0.3-270.3-0.1-357.2c0.3-173.4,0.7-175.6,3.4-187.6l35.2,27.8c1.4-6.4,1.7-11.5,1.8-12.5
						c-1.9,37.2-1,569.7,0.1,963.6L4217,1636c41.5-308.9,142.5-1060.3,145.9-1081.9l83.5,31.5l0.2-1.3
						c-4.6,30.7-98.3,714.7-158.2,1153.4l-8.5,61.9l-430.6,12.3l254.1,636.3l642.9,69.4v183.5l-678.2-96.5l-309.1-790.1l-255.5,7.3
						l-105.2,337l297.4,16.3v1051.3l-34.2-10.2V2251l-285.5-20.8L3139.8,2987l-39-87.1l207-674.7l-215-15.7v-512.6l-195.3,12.8
						V1589.5z"/>
				</g>
			</g>
		</g>
		<g>
			
				<linearGradient id="SVGID_17_" gradientUnits="userSpaceOnUse" x1="3242.8191" y1="2541.4299" x2="4170.4927" y2="2541.4299" gradientTransform="matrix(-1 0 0 1 7652.7202 0)">
				<stop  offset="3.597000e-03" style="stop-color:#26264F"/>
				<stop  offset="1" style="stop-color:#444B8C"/>
			</linearGradient>
			<path class="st16" d="M4380.4,2991l13.4-12.6c21.4-20.1,21.6-53.5,0.5-74.5l-827.6-826.4l-84.4,86l821.6,825.6
				C4324.8,3010.1,4359.1,3011,4380.4,2991z"/>
			
				<linearGradient id="SVGID_18_" gradientUnits="userSpaceOnUse" x1="3853.0469" y1="1699.7632" x2="5106.4355" y2="1699.7632" gradientTransform="matrix(-1 0 0 1 7652.7202 0)">
				<stop  offset="3.597000e-03" style="stop-color:#26264F"/>
				<stop  offset="1" style="stop-color:#444B8C"/>
			</linearGradient>
			<path class="st17" d="M2722.8,2160.9c238,246.3,633,247.3,883.7-7.1c256.7-260.5,257.9-681,1.4-929.4
				c-251.9-244-650-221.2-888.1,41.2C2487,1522.1,2488.9,1918.9,2722.8,2160.9z M2791,2088.8c-197.9-203.7-199.3-538.5-2.3-754.1
				c200.8-219.9,534.9-237.3,745.5-32.3c213.8,208.2,213,559.7-0.8,778.2C3323.7,2294.8,2991.8,2295.5,2791,2088.8z"/>
			
				<linearGradient id="SVGID_19_" gradientUnits="userSpaceOnUse" x1="3242.8193" y1="2541.4292" x2="4170.4922" y2="2541.4292" gradientTransform="matrix(-1 0 0 1 7652.7202 0)">
				<stop  offset="3.597000e-03" style="stop-color:#26264F"/>
				<stop  offset="1" style="stop-color:#444B8C"/>
			</linearGradient>
			<path class="st18" d="M3566.6,2077.5l105.5,105.4c-12.7,44.8-8.2,76.7,1.3,99.7c35.6,86.6,151.1,74.3,236.7,199.1
				c43,62.7,21.2,76.4,65.4,127.7c73.1,84.8,141.7,57.7,205.9,133.7c65,76.8,35.2,152.4,83.3,174.7c20.6,9.6,54.1,8.7,112.2-31.2
				l17.3,17.3c21.1,21.1,20.9,54.5-0.5,74.5l-13.4,12.6c-21.3,20-55.5,19.1-76.5-2l-821.6-825.6L3566.6,2077.5z"/>
			<path class="st19" d="M2745.2,2117.7c207.6,213.9,551.1,213.5,768.2-8.1c221.7-226.2,222.5-590.2,0.9-805.8
				c-218.1-212.2-563.9-193.8-771.6,33.8C2539.2,1560.8,2540.7,1907,2745.2,2117.7z"/>
			
				<linearGradient id="SVGID_20_" gradientUnits="userSpaceOnUse" x1="5145.0244" y1="3162.5708" x2="4524.9165" y2="2468.2622" gradientTransform="matrix(-0.924 -0.3824 -0.3824 0.924 8491.6699 1055.4741)">
				<stop  offset="3.597000e-03" style="stop-color:#26264F"/>
				<stop  offset="1" style="stop-color:#444B8C"/>
			</linearGradient>
			<path class="st20" d="M2689.5,2176.6c238,246.3,633,247.3,883.7-7.1c256.7-260.5,257.9-681,1.4-929.4
				c-251.9-244-650-221.2-888.1,41.2C2453.7,1537.8,2455.6,1934.6,2689.5,2176.6z M2757.7,2104.5
				c-197.9-203.7-199.3-538.5-2.3-754.1c200.8-219.9,534.9-237.3,745.5-32.3c213.8,208.2,213,559.7-0.8,778.2
				C3290.4,2310.5,2958.5,2311.2,2757.7,2104.5z"/>
			
				<linearGradient id="SVGID_21_" gradientUnits="userSpaceOnUse" x1="3923.751" y1="1715.7369" x2="5106.0483" y2="1715.7369" gradientTransform="matrix(-1 0 0 1 7652.7202 0)">
				<stop  offset="3.597000e-03" style="stop-color:#26264F"/>
				<stop  offset="1" style="stop-color:#444B8C"/>
			</linearGradient>
			<path class="st21" d="M2713.6,2151.1c224.9,232.3,597.6,232.6,833.7-7.6c241.5-245.6,242.5-641.7,1.2-875.9
				c-237.3-230.2-612.7-209.4-837.7,37.9C2490.7,1547.7,2492.4,1922.7,2713.6,2151.1z M2757.7,2104.5
				c-197.9-203.7-199.3-538.5-2.3-754.1c200.8-219.9,534.9-237.3,745.5-32.3c213.8,208.2,213,559.7-0.8,778.2
				C3290.4,2310.5,2958.5,2311.2,2757.7,2104.5z"/>
		</g>
		<g>
			
				<linearGradient id="SVGID_22_" gradientUnits="userSpaceOnUse" x1="4701.1362" y1="2375.8474" x2="4276.4077" y2="3020.5254" gradientTransform="matrix(-1 0 0 1 7652.7202 0)">
				<stop  offset="0" style="stop-color:#311944"/>
				<stop  offset="1" style="stop-color:#893976"/>
			</linearGradient>
			<path class="st22" d="M2989.6,2630c0,71.7,58.9,131.8,131.7,134.3c73.1,2.5,132.6-53.9,132.6-126c0-72.1-59.5-132.3-132.6-134.3
				C3048.5,2502,2989.6,2558.4,2989.6,2630z"/>
			
				<linearGradient id="SVGID_23_" gradientUnits="userSpaceOnUse" x1="4724.0093" y1="2375.8474" x2="4299.2808" y2="3020.5254" gradientTransform="matrix(-1 0 0 1 7652.7202 0)">
				<stop  offset="0" style="stop-color:#FF9085"/>
				<stop  offset="1" style="stop-color:#FB6FBB"/>
			</linearGradient>
			<path class="st23" d="M2966.7,2630c0,71.7,58.9,131.8,131.7,134.3c73.1,2.5,132.6-53.9,132.6-126c0-72.1-59.5-132.3-132.6-134.3
				C3025.6,2502,2966.7,2558.4,2966.7,2630z"/>
		</g>
		<g>
			<defs>
				<path id="SVGID_24_" d="M2780,2090.4c-197.9-203.7-628.5-883.5-308.8-1285.1c261.1-328,1000.1-425.5,1350.8,51
					c220,298.9-85.7,1007.4-299.6,1225.9C3312.8,2296.4,2980.9,2297.2,2780,2090.4z"/>
			</defs>
			<clipPath id="SVGID_25_">
				<use xlink:href="#SVGID_24_"  style="overflow:visible;"/>
			</clipPath>
			<g class="st24">
				
					<linearGradient id="SVGID_26_" gradientUnits="userSpaceOnUse" x1="4409.1069" y1="996.9365" x2="5104.834" y2="2788.958" gradientTransform="matrix(-1 0 0 1 7652.7202 0)">
					<stop  offset="0" style="stop-color:#311944"/>
					<stop  offset="1" style="stop-color:#893976"/>
				</linearGradient>
				<path class="st25" d="M2454.8,1246.8c0,290,410,826.9,598,1058.1c47,57.8,135.2,60.1,182.5,4.4
					c191.1-224.9,619.1-762.4,619.1-1061.4c0-386.5-320.9-695.2-710.6-689.6C2760.7,563.8,2454.8,872,2454.8,1246.8z"/>
				
					<linearGradient id="SVGID_27_" gradientUnits="userSpaceOnUse" x1="4433.8564" y1="996.9365" x2="5129.5835" y2="2788.958" gradientTransform="matrix(-1 0 0 1 7652.7202 0)">
					<stop  offset="0" style="stop-color:#FF9085"/>
					<stop  offset="1" style="stop-color:#FB6FBB"/>
				</linearGradient>
				<path class="st26" d="M2430,1246.8c0,290,410,826.9,598,1058.1c47,57.8,135.2,60.1,182.5,4.4
					c191.1-224.9,619.1-762.4,619.1-1061.4c0-386.5-320.9-695.2-710.6-689.6C2735.9,563.8,2430,872,2430,1246.8z"/>
				<path class="st3" d="M2732.2,1247c0,210.4,172.4,382.6,386.9,384.6c216.5,2,393.6-169.9,393.6-384S3335.6,861.4,3119.1,863
					C2904.6,864.7,2732.2,1036.6,2732.2,1247z"/>
				<g class="st27">
					
						<linearGradient id="SVGID_28_" gradientUnits="userSpaceOnUse" x1="4186.5796" y1="1093.0945" x2="4882.4673" y2="2885.5293" gradientTransform="matrix(-1 0 0 1 7652.7202 0)">
						<stop  offset="0" style="stop-color:#FF9085"/>
						<stop  offset="1" style="stop-color:#FB6FBB"/>
					</linearGradient>
					<path class="st28" d="M3122.2,2024.3c-44.4-288.4-236.2-382.3-203.4-652.6c37.9-312.2,319.5-396.9,326.3-676.7
						c1.1-45.1-5.1-88.4-16.9-129.8c338.8,47.2,601.5,333.4,601.5,682.8c0,299-428,836.6-619.1,1061.4
						c-27.9,32.8-69.9,45.5-109.4,38.6C3135.1,2222.6,3136.1,2114.9,3122.2,2024.3z"/>
				</g>
			</g>
		</g>
		<g>
			
				<linearGradient id="SVGID_29_" gradientUnits="userSpaceOnUse" x1="3291.0989" y1="1168.8433" x2="2926.5505" y2="2916.6719" gradientTransform="matrix(-1 0 0 1 7652.7202 0)">
				<stop  offset="0" style="stop-color:#FFC444"/>
				<stop  offset="0.9964" style="stop-color:#F36F56"/>
			</linearGradient>
			<path class="st29" d="M4280.2,1669.9c-31.7-33.9,56.1-161.1,103.1-216.8c41.1-48.7,83.3-98.8,135.1-92.4
				c45.5,5.6,89.8,53.5,92.4,99.5C4617.9,1583.9,4325.3,1718.1,4280.2,1669.9z"/>
			
				<linearGradient id="SVGID_30_" gradientUnits="userSpaceOnUse" x1="3146.0579" y1="2998.0481" x2="3255.2339" y2="2998.0481" gradientTransform="matrix(0.9996 2.890000e-02 -2.890000e-02 0.9996 1501.9919 -88.2547)">
				<stop  offset="0" style="stop-color:#444B8C"/>
				<stop  offset="0.9964" style="stop-color:#26264F"/>
			</linearGradient>
			<path class="st30" d="M4661.1,2977.2c6,4.9,7.1,17,7.8,24.9c0.3,3.5,0.5,5.3,0.1,6.6c-2.9,9.1-20.6,10.1-48.3,12.9
				c-43.8,4.5-56.9,7.9-60.3,1.4c-3.2-6.1,4.6-16.1,5.4-17.2c4.7-5.9,10.5-8.1,21.7-11.8c20.7-6.8,34.6-10.5,38.9-11.7
				C4652.7,2975.3,4657.1,2974,4661.1,2977.2z"/>
			<path class="st31" d="M4635,2937.2l-4.4,49.9c1.2,2.4,16.1,9.6,27.9,3.4l11.3-49.1L4635,2937.2z"/>
			
				<linearGradient id="SVGID_31_" gradientUnits="userSpaceOnUse" x1="3560.7358" y1="2967.1265" x2="3676.7285" y2="2967.1265" gradientTransform="matrix(0.9642 0.2651 -0.2651 0.9642 1559.0936 -835.3928)">
				<stop  offset="0" style="stop-color:#444B8C"/>
				<stop  offset="0.9964" style="stop-color:#26264F"/>
			</linearGradient>
			<path class="st32" d="M4313.6,2970.8c7.2,7.9,8.8,22.5,2.6,29.6c-6.1,7-15.3,1.8-41.4,2.5c-27.9,0.8-35.2,7.4-54.2,2.2
				c-7.7-2.1-21.2-7.3-21-12.7c0.2-3.9,7.1-5.8,30.1-13.6c32.7-11,32.6-11.6,39.5-12.7C4286.6,2963.2,4304.1,2960.3,4313.6,2970.8z"
				/>
			<path class="st31" d="M4295.7,2925.2l-14,46.6c1.1,2.5,15.3,10.8,27.5,5.6l20.8-45.2L4295.7,2925.2z"/>
			
				<linearGradient id="SVGID_32_" gradientUnits="userSpaceOnUse" x1="3408.8511" y1="2780.6638" x2="3099.4775" y2="2083.2622" gradientTransform="matrix(-1 0 0 1 7652.7202 0)">
				<stop  offset="0" style="stop-color:#AA80F9"/>
				<stop  offset="0.9964" style="stop-color:#6165D7"/>
			</linearGradient>
			<path class="st33" d="M4420.2,1904.3c-2,156.7-12.7,332.8-38.3,524.2c-25.4,189.1-60.9,360-99.6,510.3
				c17.9,4.8,35.8,9.6,53.6,14.4c45.4-42.3,102.6-108.9,130.2-203c17.1-58.4,11.4-88.4,22.3-160.2c17.3-114.4,52.4-174.3,88.6-266.5
				c32.6-82.9,71-204.5,91.7-367.1C4585.8,1939.1,4503,1921.7,4420.2,1904.3z"/>
			
				<linearGradient id="SVGID_33_" gradientUnits="userSpaceOnUse" x1="2820.1736" y1="2831.6067" x2="2510.8054" y2="2134.2173" gradientTransform="matrix(-0.9925 -0.1225 -0.1225 0.9925 7541.6997 348.8057)">
				<stop  offset="0" style="stop-color:#AA80F9"/>
				<stop  offset="0.9964" style="stop-color:#6165D7"/>
			</linearGradient>
			<path class="st34" d="M4581.6,1889.4c10.9,199.2,19.9,402.2,26.8,608.7c5.1,155,8.9,308,11.4,459c18.3,2.3,36.5,4.5,54.8,6.8
				c17.6-32.9,41.1-83.1,57.1-147.5c19.5-78.2,15-124.6,23.5-205.7c9.6-90.9,23.5-110.7,48.2-225.4
				c50.1-232.7,75.2-349.1,19.3-421.4C4804.5,1940.4,4747.6,1881.5,4581.6,1889.4z"/>
			
				<linearGradient id="SVGID_34_" gradientUnits="userSpaceOnUse" x1="3164.873" y1="1142.5159" x2="2800.3254" y2="2890.3411" gradientTransform="matrix(-1 0 0 1 7652.7202 0)">
				<stop  offset="0" style="stop-color:#FFC444"/>
				<stop  offset="0.9964" style="stop-color:#F36F56"/>
			</linearGradient>
			<path class="st35" d="M4847.7,1388.6c-42.8-12-105.5-26.1-182.2-30.4c-109.5-6.2-164.2-9.3-203,16.8
				c-89.6,60.2-20.2,199.2-56.9,543.7c-5.2,49.2-6.4,98.8-10.2,148.1c-6.3,81.7-7.7,86.1-2,94.4c35.6,51.9,168.6-26.4,363.5,4.6
				c109.1,17.3,158.5,57.2,188.4,28.4c34.8-33.6,5-123.8-20.8-201.5c-29.5-89.2-47.8-90.3-64.5-157.5
				c-17.5-70.2-6.9-106.3-4.2-217.1C4857,1565.2,4856.8,1486.4,4847.7,1388.6z"/>
			<g class="st27">
				
					<linearGradient id="SVGID_35_" gradientUnits="userSpaceOnUse" x1="2851.3647" y1="2637.3193" x2="2989.7188" y2="1980.1399" gradientTransform="matrix(-1 0 0 1 7652.7202 0)">
					<stop  offset="0" style="stop-color:#FFC444"/>
					<stop  offset="0.9964" style="stop-color:#F36F56"/>
				</linearGradient>
				<path class="st36" d="M4582.7,2035.4c50.9-4,84,24.8,128,2.4c60.3-30.8,79.7-126.5,75.8-194.3c-5.8-103-64.6-130.1-54.5-196.7
					c5.5-36,31.2-83.8,123.5-132.6c1.2,41.1,1,76.1,0.3,103.9c-2.7,110.7-13.3,146.8,4.2,217.1c16.8,67.2,35,68.3,64.5,157.5
					c25.7,77.7,55.6,167.9,20.8,201.5c-29.9,28.8-79.3-11.1-188.4-28.4c-167.9-26.7-289.8,27.7-343.2,10.1
					C4478.1,2069.3,4536.6,2039,4582.7,2035.4z"/>
			</g>
			
				<linearGradient id="SVGID_36_" gradientUnits="userSpaceOnUse" x1="2915.144" y1="1090.4296" x2="2550.5964" y2="2838.2556" gradientTransform="matrix(-1 0 0 1 7652.7202 0)">
				<stop  offset="0" style="stop-color:#FFC444"/>
				<stop  offset="0.9964" style="stop-color:#F36F56"/>
			</linearGradient>
			<path class="st37" d="M4778.2,1395.7c36.4-29.9,109.5,3.9,129.1,13c109,50.4,207,186.4,182.7,330
				c-3.6,21.5-20.5,122.3-105.8,171.1c-77,44.1-180.9,32.7-264.2-29.7c-11.4-10.1-22.8-20.2-34.2-30.3
				c-11.2-12.1-22.4-24.2-33.6-36.3c17.6-14.6,47.5-35.8,89.5-49.3c55.4-17.9,95.7,14.2,121.4-10.2c17.7-16.8,17.8-46.5,13.4-64.6
				c-8.8-36.3-40.8-46.5-67.5-72.3C4746.2,1556.7,4734.7,1431.5,4778.2,1395.7z"/>
			<g>
				
					<linearGradient id="SVGID_37_" gradientUnits="userSpaceOnUse" x1="3225.9399" y1="2066.2351" x2="3166.9495" y2="1899.0948" gradientTransform="matrix(-1 0 0 1 7652.7202 0)">
					<stop  offset="0" style="stop-color:#311944"/>
					<stop  offset="1" style="stop-color:#893976"/>
				</linearGradient>
				<polygon class="st38" points="4255.4,1864.6 4743,1857.3 4613.4,1919.9 4254.1,1896.4 				"/>
				
					<linearGradient id="SVGID_38_" gradientUnits="userSpaceOnUse" x1="2968.2363" y1="1824.0747" x2="2989.8662" y2="1973.5177" gradientTransform="matrix(-1 0 0 1 7652.7202 0)">
					<stop  offset="0" style="stop-color:#311944"/>
					<stop  offset="1" style="stop-color:#893976"/>
				</linearGradient>
				<path class="st39" d="M4760.3,1870.3L4760.3,1870.3c0,9.1-5.7,17.3-14.3,20.4l-155.8,61.1l-0.7-42.4l153.6-52.1
					C4751.7,1854.9,4760.3,1861.3,4760.3,1870.3z"/>
			</g>
			<path class="st3" d="M4685.2,1841.5c3-0.7-14.6-35.7-28.4-31.6c-13.8,4-81.3,43.1-87.4,59.2c-6.1,16.1-6.1,16.1-6.1,16.1
				s29.4,2.3,47.7-3.8C4629.2,1875.2,4660.8,1846.9,4685.2,1841.5z"/>
			<g>
				<g>
					
						<linearGradient id="SVGID_39_" gradientUnits="userSpaceOnUse" x1="3396.8225" y1="1837.1637" x2="3281.812" y2="1673.8492" gradientTransform="matrix(-1 0 0 1 7652.7202 0)">
						<stop  offset="0" style="stop-color:#444B8C"/>
						<stop  offset="0.9964" style="stop-color:#26264F"/>
					</linearGradient>
					<path class="st40" d="M4576.5,1612.3l34.4,313c1.2,10.8-13.9,26.9-24.8,26.4l-504.3-31c-8.3-0.4-15.2-6.5-16.6-14.7
						l-63.3-302.3c-1.9-11,17.9-22.4,29-22l528.4,14.9C4568.3,1596.8,4575.5,1603.5,4576.5,1612.3z"/>
					
						<linearGradient id="SVGID_40_" gradientUnits="userSpaceOnUse" x1="3176.2122" y1="2107.4463" x2="3427.9065" y2="1596.1926" gradientTransform="matrix(-1 0 0 1 7652.7202 0)">
						<stop  offset="0" style="stop-color:#311944"/>
						<stop  offset="1" style="stop-color:#893976"/>
					</linearGradient>
					<path class="st41" d="M4565,1621.4l34.4,313c1.2,10.8-7.6,20.1-18.4,19.6l-510.6-24.2c-8.3-0.4-15.2-6.5-16.6-14.7l-52.2-303.7
						c-1.9-11,6.8-21,17.9-20.7l528.4,14.9C4556.7,1605.9,4564,1612.6,4565,1621.4z"/>
				</g>
				
					<linearGradient id="SVGID_41_" gradientUnits="userSpaceOnUse" x1="3053.2615" y1="1779.3068" x2="3606.199" y2="1779.3068" gradientTransform="matrix(-1 0 0 1 7652.7202 0)">
					<stop  offset="0" style="stop-color:#311944"/>
					<stop  offset="1" style="stop-color:#893976"/>
				</linearGradient>
				<path class="st42" d="M4265.1,1856.5c44.6-18.9,28.8-54.9,81.5-99.8c69.5-59.2,140.3-33.5,165-79.5c7.7-14.3,11.4-36.6-2-72.6
					l38.3,1.1c8.8,0.2,16.1,7,17.1,15.7l34.4,313c1.2,10.8-7.6,20.1-18.4,19.6l-510.6-24.2c-8.3-0.4-15.2-6.5-16.6-14.7l-7.2-41.9
					c15.5-8.6,34-16.5,55.6-20.8C4177,1837.2,4213.8,1878.2,4265.1,1856.5z"/>
			</g>
			<path class="st31" d="M4038.1,1886c-0.8-2.5,0.9-5.1,3.6-5.3c10.8-0.6,35.8-0.8,49.6,7.7c18,11,41.2,31.1,21.6,41.2l-18.3,9.5
				c-0.8,0.4-1.8,0.6-2.7,0.4c-6.5-1.4-33.8-7.5-36.8-9C4052.6,1929.1,4042.2,1898.2,4038.1,1886z"/>
			<g>
				<path class="st3" d="M4657.3,1238.6c-0.3,32.5,3.3,58.2,6.8,75.8c3.9,20.2,6.8,25.4,10.4,29.7c5.4,6.4,13.7,11.7,60.2,23.3
					c25.3,6.3,28.6,6.1,29.1,8.6c2.7,12.3-66.3,54-137.6,43.9c-43.6-6.2-83.3-31.1-80.9-44.1c2.5-13.2,46-6.1,59-29.9
					c9-16.6-1.1-40.1-13.1-59.5C4602.8,1264.6,4645.7,1260.3,4657.3,1238.6z"/>
				<g>
					
						<linearGradient id="SVGID_42_" gradientUnits="userSpaceOnUse" x1="3031.7114" y1="1236.7239" x2="2949.1497" y2="1027.032" gradientTransform="matrix(1 3.700000e-03 -3.700000e-03 1 1670.5756 155.6219)">
						<stop  offset="0" style="stop-color:#311944"/>
						<stop  offset="1" style="stop-color:#6B3976"/>
					</linearGradient>
					<path class="st43" d="M4576.3,1251.4c-10.3-13.7-10.9-37.6,0.9-52.7c10.2-13,26.3-14.8,35.9-16c27.9-3.2,63.1,8.4,75.3,34.1
						c7.3,15.2-8.4,46.8-10.9,52.5c-2.8,6.4-7.8,8.6-12.5,13.5c-6.5,6.7-16.6,17.4-33.1,35.4c-1.3-5.3-3.2-11.8-6.3-18.9
						c-1.2-2.7-6-13.4-13.2-22.2C4597.9,1259.3,4586.1,1264.4,4576.3,1251.4z"/>
					<path class="st3" d="M4655.5,1303.1c0,0-18.3,30.1-54.8,27.7c-32.7-2.1-37.5-75.4-16.6-90.9c7-5.2,20.9-7.3,32.2-4.2
						c6.7,1.9,9,4.7,20,7.5c10.1,2.6,13,1.5,16.1,4.1c3.8,3.2,6.6,11.1,0.2,32.6c6.2-6.3,13.7-8.7,19-6.2c0.8,0.4,3.1,1.9,4.4,4.2
						C4680.6,1286.2,4673,1296.9,4655.5,1303.1z"/>
					
						<linearGradient id="SVGID_43_" gradientUnits="userSpaceOnUse" x1="3006.4897" y1="1246.7648" x2="2923.8442" y2="1036.8601" gradientTransform="matrix(1 3.700000e-03 -3.700000e-03 1 1670.5756 155.6219)">
						<stop  offset="0" style="stop-color:#311944"/>
						<stop  offset="1" style="stop-color:#6B3976"/>
					</linearGradient>
					<path class="st44" d="M4653.9,1242.9c-1.6,1.2,3.2,7.1,3.6,15.4c0.7,16.2-15.6,35.5-32.3,37.2c-9.9,1-12.6-5-28.9-6.7
						c-10.1-1.1-18.5,0.2-23.8,1.4c-5.1,17.7-0.3,35.4,11.5,43.6c12.7,8.8,29,3.5,35.8,1.2c4.6-1.5,19.1-6.3,26.8-19.6
						c7.9-13.9,0.1-22.4,9.3-31.8c4.6-4.8,10.6-6.8,16.5-16c1.6-2.5,2.7-4.7,3.3-6.2C4667.3,1252.3,4656.2,1241.2,4653.9,1242.9z"/>
					<path class="st3" d="M4584.4,1296.7c0,0,7.1,3.7,19.3,3c0.6,0,1.2,0.1,1.3,0.4c0.3,1.2-7.5,6.3-14.8,4.3
						c-5.1-1.4-9.1-6.3-8.4-7.5C4582.1,1296.4,4583.2,1296.5,4584.4,1296.7z"/>
				</g>
			</g>
		</g>
	</g>
</g>
</svg>
